G75*
%MOIN*%
%OFA0B0*%
%FSLAX25Y25*%
%IPPOS*%
%LPD*%
%AMOC8*
5,1,8,0,0,1.08239X$1,22.5*
%
%ADD10C,0.01819*%
%ADD11C,0.00904*%
D10*
X0137583Y0129554D02*
X0137583Y0131870D01*
X0140017Y0131870D01*
X0140017Y0129554D01*
X0137583Y0129554D01*
X0137583Y0131372D02*
X0140017Y0131372D01*
X0137583Y0136444D02*
X0137583Y0138760D01*
X0140017Y0138760D01*
X0140017Y0136444D01*
X0137583Y0136444D01*
X0137583Y0138262D02*
X0140017Y0138262D01*
X0137483Y0146104D02*
X0137483Y0148420D01*
X0139917Y0148420D01*
X0139917Y0146104D01*
X0137483Y0146104D01*
X0137483Y0147922D02*
X0139917Y0147922D01*
X0137483Y0152994D02*
X0137483Y0155310D01*
X0139917Y0155310D01*
X0139917Y0152994D01*
X0137483Y0152994D01*
X0137483Y0154812D02*
X0139917Y0154812D01*
X0116683Y0143760D02*
X0116683Y0141444D01*
X0116683Y0143760D02*
X0119117Y0143760D01*
X0119117Y0141444D01*
X0116683Y0141444D01*
X0116683Y0143262D02*
X0119117Y0143262D01*
X0116683Y0136870D02*
X0116683Y0134554D01*
X0116683Y0136870D02*
X0119117Y0136870D01*
X0119117Y0134554D01*
X0116683Y0134554D01*
X0116683Y0136372D02*
X0119117Y0136372D01*
X0164397Y0188240D02*
X0166713Y0188240D01*
X0164397Y0188240D02*
X0164397Y0190674D01*
X0166713Y0190674D01*
X0166713Y0188240D01*
X0166713Y0190058D02*
X0164397Y0190058D01*
X0171287Y0188240D02*
X0173603Y0188240D01*
X0171287Y0188240D02*
X0171287Y0190674D01*
X0173603Y0190674D01*
X0173603Y0188240D01*
X0173603Y0190058D02*
X0171287Y0190058D01*
X0129717Y0193154D02*
X0129717Y0195470D01*
X0129717Y0193154D02*
X0127283Y0193154D01*
X0127283Y0195470D01*
X0129717Y0195470D01*
X0129717Y0194972D02*
X0127283Y0194972D01*
X0129717Y0200044D02*
X0129717Y0202360D01*
X0129717Y0200044D02*
X0127283Y0200044D01*
X0127283Y0202360D01*
X0129717Y0202360D01*
X0129717Y0201862D02*
X0127283Y0201862D01*
D11*
X0172628Y0201266D02*
X0174578Y0201266D01*
X0174578Y0200116D01*
X0172628Y0200116D01*
X0172628Y0201266D01*
X0172628Y0201019D02*
X0174578Y0201019D01*
X0174578Y0204503D02*
X0172628Y0204503D01*
X0174578Y0204503D02*
X0174578Y0203353D01*
X0172628Y0203353D01*
X0172628Y0204503D01*
X0172628Y0204256D02*
X0174578Y0204256D01*
X0179222Y0204503D02*
X0181172Y0204503D01*
X0181172Y0203353D01*
X0179222Y0203353D01*
X0179222Y0204503D01*
X0179222Y0204256D02*
X0181172Y0204256D01*
X0181172Y0201266D02*
X0179222Y0201266D01*
X0181172Y0201266D02*
X0181172Y0200116D01*
X0179222Y0200116D01*
X0179222Y0201266D01*
X0179222Y0201019D02*
X0181172Y0201019D01*
M02*
