%
M48
M72
T01C0.0100
T02C0.0150
T03C0.0207
T04C0.0250
T05C0.0354
T06C0.0394
T07C0.0400
T08C0.0630
T09C0.0669
T10C0.1280
%
T01
X9695Y3686
X9525Y4236
X10105Y4741
X11325Y5236
X12040Y5751
X12575Y6686
X12400Y7321
X10500Y6221
X14510Y8596
X14510Y8816
X14510Y9036
X14510Y9246
X14510Y9866
X14510Y10116
X14510Y10356
X14520Y10596
X14760Y11316
X14940Y11626
X15040Y11916
X15770Y12036
X17090Y12926
X17340Y13156
X17640Y13186
X17950Y13166
X18120Y12926
X18350Y12746
X18660Y12686
X18880Y13056
X19110Y13196
X20590Y13126
X20800Y13756
X20380Y14001
X20190Y14196
X19970Y14326
X19760Y14536
X19520Y14666
X21020Y15331
X21490Y15316
X21750Y15111
X22010Y15046
X22060Y15341
X22315Y15736
X22580Y15536
X22825Y15116
X23075Y14931
X23330Y14346
X23610Y14156
X23860Y13966
X24210Y14536
X25180Y14556
X25990Y14496
X25970Y14816
X26370Y16646
X25980Y16716
X25180Y16516
X24200Y16546
X23870Y16516
X23590Y16736
X23330Y17106
X23080Y17301
X24430Y17436
X24790Y17636
X24660Y17866
X24440Y18076
X24240Y18266
X24070Y18466
X25180Y19076
X25020Y19636
X24830Y20466
X24990Y20726
X24770Y21126
X24770Y21336
X25690Y21686
X25910Y21686
X26440Y21576
X26870Y21956
X27430Y22306
X27680Y22976
X27100Y23016
X28430Y23396
X29710Y22496
X30990Y23176
X30020Y24196
X28020Y24786
X29480Y25676
X29920Y26986
X32970Y26886
X35230Y23046
X34540Y21946
X36740Y20466
X35270Y19586
X35260Y19266
X34390Y19276
X34260Y19476
X33460Y18286
X31710Y18306
X31410Y18276
X31010Y17896
X31210Y17686
X30800Y18126
X30600Y18316
X30420Y18536
X30210Y19846
X30020Y20566
X30970Y20736
X31100Y21256
X27460Y20566
X27250Y19776
X27720Y18996
X26210Y19516
X25970Y19276
X22845Y18856
X22060Y18568
X20370Y17636
X20100Y17666
X19900Y17866
X19710Y18166
X19380Y18306
X19120Y18386
X18870Y18236
X18680Y18066
X18520Y17546
X19320Y17776
X21245Y16916
X20800Y16456
X20590Y16206
X21035Y15926
X21505Y16116
X21785Y16316
X21250Y14791
X22850Y13966
X22600Y13576
X22325Y13371
X23500Y12906
X23490Y12706
X24000Y12206
X22950Y11986
X25140Y12581
X26890Y12676
X27530Y12936
X27790Y13176
X27970Y12916
X28230Y12266
X28640Y12456
X28870Y12296
X28440Y11486
X27460Y11486
X27270Y11276
X26870Y11436
X27060Y10496
X26560Y10376
X26290Y10466
X26030Y9686
X25700Y9436
X25760Y9146
X25970Y9146
X25310Y8766
X26300Y8576
X24360Y7896
X22650Y6606
X22640Y6196
X20850Y7566
X18820Y7876
X18550Y8016
X18550Y7736
X18760Y8226
X18400Y8306
X19020Y8646
X19000Y8996
X19000Y9376
X18910Y9746
X18750Y9986
X16450Y9326
X16440Y9096
X16440Y8866
X16440Y8646
X16450Y8416
X19340Y12426
X16370Y13186
X16020Y13196
X15620Y13666
X14780Y13206
X14490Y13146
X14400Y14001
X13770Y14316
X13140Y14001
X12825Y14001
X12510Y14001
X12510Y14316
X12820Y14321
X12195Y14316
X12195Y14631
X12510Y14946
X12825Y14946
X12825Y15261
X12510Y15576
X12200Y15576
X12510Y15891
X12510Y16206
X12195Y16206
X12195Y16521
X12195Y16836
X12515Y16831
X12510Y17466
X12510Y17781
X12510Y18096
X12200Y18091
X12195Y18411
X12825Y18096
X12855Y18761
X13105Y18766
X13425Y18846
X12355Y18891
X12035Y18876
X13765Y18406
X14080Y18406
X14370Y18731
X14715Y18411
X15030Y18411
X15350Y18416
X15020Y18086
X15340Y17786
X15660Y17466
X15980Y17776
X16295Y17786
X16290Y17466
X16290Y17151
X16290Y16836
X16295Y16516
X16290Y16206
X16290Y15891
X15980Y15896
X15980Y15571
X16290Y15261
X16605Y15261
X16290Y14946
X15975Y14946
X15345Y14946
X15030Y14946
X14715Y14946
X14400Y15261
X14400Y15576
X14090Y15571
X14080Y15886
X14080Y16206
X14080Y16526
X14400Y16526
X14400Y16206
X14400Y15891
X14715Y15891
X14715Y15576
X15340Y16211
X15030Y16521
X14715Y16836
X14090Y17146
X14090Y17461
X13770Y17151
X13765Y16841
X13460Y16526
X13455Y16206
X13455Y15576
X14090Y14941
X15335Y14621
X15660Y14316
X16285Y14321
X17680Y15336
X18110Y15866
X17180Y16456
X16600Y15886
X15980Y16526
X14400Y18096
X15550Y19066
X15860Y19286
X16170Y19316
X16120Y18836
X15970Y18416
X16290Y18411
X17960Y19156
X18380Y20066
X18330Y20396
X18740Y21046
X18410Y21486
X16960Y20866
X16340Y21106
X15760Y21576
X15520Y21576
X16990Y20396
X20300Y19606
X13560Y23071
X12350Y23061
X11850Y23071
X10775Y23011
X10540Y22486
X9350Y22001
X8745Y22586
X9315Y23071
X8180Y22046
X7675Y20701
X7980Y20166
X8495Y19626
X8220Y19196
X8960Y18196
X9810Y17701
X10945Y17466
X11080Y17781
X10790Y17031
X11805Y17271
X11800Y16491
X11430Y16041
X11620Y15581
X11505Y15146
X11430Y14671
X11225Y14381
X12345Y13111
X12665Y12921
X12035Y12756
X11320Y12466
X9445Y13676
X9410Y14136
X8750Y13036
X9060Y12531
X8035Y12016
X8360Y11526
X7615Y10926
X7245Y10471
X25520Y6236
X26080Y5506
X27120Y5496
X27790Y5316
X27130Y6236
X29170Y6086
X29290Y8266
X29890Y9416
X30210Y9606
X29810Y10436
X30010Y11086
X30210Y11416
X30600Y11486
X30430Y12226
X30810Y12366
X32110Y12986
X31830Y13166
X32650Y13486
X32950Y13666
X32570Y14356
X32160Y14556
X33450Y14746
X33320Y15356
X32810Y16126
X32160Y16156
X32550Y16936
X34330Y16896
X34370Y16626
X35130Y16896
X35280Y14956
X34260Y14946
X34560Y13636
X32960Y12286
X33160Y11486
X33230Y10626
X32830Y10126
X32600Y10126
X32140Y9826
X31930Y10036
X30610Y10476
X29230Y10996
X29040Y10706
X28450Y10466
X29430Y11486
X29630Y13306
X30780Y16336
X29420Y17196
X40025Y15941
X40005Y15451
X43125Y16431
X43295Y15941
X43295Y15451
X44585Y15711
X46415Y16441
X46515Y15941
X46415Y16951
X43135Y16961
X47645Y14841
X50245Y14351
X50300Y14086
X48905Y13281
X48155Y13331
X45710Y7836
X45720Y7646
X45300Y6726
X37000Y8436
X49885Y21301
X50105Y21311
X26150Y24606
X13630Y26491
X12615Y26496
X11645Y26491
X10095Y25801
X9235Y25316
X10485Y24791
X10850Y24526
X11150Y23871
X8755Y26351
X9715Y26721
X8085Y27321
T02
X2580Y29176
X2570Y22456
X2490Y15706
X2575Y8956
X22320Y9026
X22550Y8756
X25860Y6826
X26770Y6596
X27360Y6756
X28290Y6076
X29740Y5746
X28040Y4626
X25100Y6596
X24220Y5746
X28420Y8266
X29620Y12316
X31140Y12676
X31393Y12283
X32580Y12776
X34640Y14406
X35910Y13786
X36040Y14136
X36430Y14976
X39070Y16186
X39440Y16416
X38650Y16966
X36770Y16666
X37050Y18476
X41190Y16626
X41410Y15936
X42000Y15946
X43010Y15086
X43020Y13846
X39390Y12616
X39090Y13276
X38540Y13356
X36890Y12866
X36440Y12576
X44540Y16596
X48260Y14356
X49150Y15296
X49540Y15636
X49420Y13026
X49760Y12636
X50175Y12651
X32490Y20716
X30210Y22516
X29190Y23376
X29490Y23556
X29320Y24376
X29320Y24656
X29310Y24956
X29010Y24956
X29010Y24666
X29020Y24376
X28710Y24366
X28700Y24646
X28710Y24956
X27920Y24206
X27130Y24006
X26660Y23776
X28860Y22926
X26180Y20856
X26610Y20646
X27060Y20636
X26270Y19826
X28430Y18856
X28850Y19446
X29200Y19136
X29490Y19366
X36820Y23756
X35820Y24156
X35310Y24656
X34780Y25126
X34240Y25126
X34240Y25886
X34770Y25886
X35300Y25886
X35820Y25896
X36830Y26866
X38970Y26716
X39230Y27166
X41690Y27516
X43380Y27716
X42930Y25356
X43370Y24406
X32680Y27436
X31080Y26126
X31410Y25476
X30490Y28166
X27060Y26496
X26770Y27256
X27420Y25536
T03
X17690Y20886
T04
X35130Y11281
X32830Y9776
X32870Y9276
X33320Y9006
X34510Y9036
X34980Y9006
X35380Y9226
X36030Y9096
X36470Y9086
X36480Y8646
X36030Y8646
X37460Y7406
X37810Y7026
X37770Y6496
X37320Y6306
X36360Y5626
X36310Y5216
X35860Y5016
X35380Y5026
X34510Y4886
X34050Y4896
X33570Y4886
X33090Y4916
X32610Y4896
X32160Y4926
X39900Y9556
X40410Y9556
X40850Y9416
X41390Y9426
X40410Y10076
X39890Y10096
X40430Y11046
X40330Y11656
X39850Y11946
X40280Y12356
X40960Y12266
X41980Y12436
X42510Y12326
X42950Y12066
X42120Y11756
X42980Y11416
X42450Y11066
X42090Y10186
X42020Y9536
X41860Y8696
X40380Y8756
X38345Y10566
X38350Y10921
X39730Y11346
X43670Y9526
X44320Y8646
X47350Y7956
X48520Y8326
X48460Y9116
X48450Y9626
X48020Y9626
X47620Y9666
X51650Y8716
X52070Y8736
X52510Y8736
X52790Y7836
X53290Y7916
X53810Y7856
X53970Y7356
X52610Y7336
X53810Y8716
X54250Y8756
X54690Y8736
X51230Y11876
X51220Y12266
X51230Y12676
X51230Y13096
X51610Y13476
X52050Y13496
X52490Y13496
X53830Y13476
X54250Y13496
X54670Y13476
X49480Y14056
X49470Y14446
X49080Y14426
X49080Y14046
X41750Y5736
X41560Y5096
X43710Y5706
X49890Y3426
X50690Y3506
T05
X53062Y10249
X53062Y11981
X48320Y23786
X47320Y24286
X48320Y24786
X47320Y25286
X48320Y25786
X47320Y26286
X48320Y26786
X47320Y27286
T06
X46930Y21305
X48702Y21305
X48702Y18746
X46930Y18746
T07
X3900Y3956
X4900Y3956
X4900Y4956
X3900Y4956
X3900Y5956
X4900Y5956
X4900Y6956
X3900Y6956
X3900Y7956
X4900Y7956
X4900Y8956
X3900Y8956
X3900Y10706
X4900Y10706
X4900Y11706
X3900Y11706
X3900Y12706
X4900Y12706
X4900Y13706
X3900Y13706
X3900Y14706
X4900Y14706
X4900Y15706
X3900Y15706
X3900Y17456
X4900Y17456
X4900Y18456
X3900Y18456
X3900Y19456
X4900Y19456
X4900Y20456
X3900Y20456
X3900Y21456
X4900Y21456
X4900Y22456
X3900Y22456
X3900Y24176
X4900Y24176
X4900Y25176
X3900Y25176
X3900Y26176
X4900Y26176
X4900Y27176
X3900Y27176
X3900Y28176
X4900Y28176
X4900Y29176
X3900Y29176
X14790Y26956
X15790Y26956
X16790Y26956
X17790Y26956
X18790Y26956
X19790Y26956
X20790Y26956
X21790Y26956
X22790Y26956
X23790Y26956
X23790Y23956
X22790Y23956
X21790Y23956
X20790Y23956
X19790Y23956
X18790Y23956
X17790Y23956
X16790Y23956
X15790Y23956
X14790Y23956
X36380Y22126
X37380Y22126
X37731Y18975
X37731Y17975
X37731Y16975
X37731Y15975
X37731Y14975
X37731Y13975
X45420Y23386
X45420Y24386
X45420Y26686
X45420Y27686
T08
X49620Y28586
X49620Y22486
T09
X50110Y5726
X52866Y5726
T10
X50820Y23286
X50820Y27786
M30
