G75*
%MOIN*%
%OFA0B0*%
%FSLAX25Y25*%
%IPPOS*%
%LPD*%
%AMOC8*
5,1,8,0,0,1.08239X$1,22.5*
%
%ADD10C,0.00000*%
%ADD11C,0.00500*%
%ADD12C,0.00300*%
D10*
X0001000Y0022394D02*
X0001000Y0309795D01*
X0553100Y0309795D01*
X0553100Y0022394D01*
X0001000Y0022394D01*
X0497754Y0057257D02*
X0497756Y0057372D01*
X0497762Y0057488D01*
X0497772Y0057603D01*
X0497786Y0057718D01*
X0497804Y0057832D01*
X0497826Y0057945D01*
X0497851Y0058058D01*
X0497881Y0058169D01*
X0497914Y0058280D01*
X0497951Y0058389D01*
X0497992Y0058497D01*
X0498037Y0058604D01*
X0498085Y0058709D01*
X0498137Y0058812D01*
X0498193Y0058913D01*
X0498252Y0059013D01*
X0498314Y0059110D01*
X0498380Y0059205D01*
X0498448Y0059298D01*
X0498520Y0059388D01*
X0498595Y0059476D01*
X0498674Y0059561D01*
X0498755Y0059643D01*
X0498838Y0059723D01*
X0498925Y0059799D01*
X0499014Y0059873D01*
X0499105Y0059943D01*
X0499199Y0060011D01*
X0499295Y0060075D01*
X0499394Y0060135D01*
X0499494Y0060192D01*
X0499596Y0060246D01*
X0499700Y0060296D01*
X0499806Y0060343D01*
X0499913Y0060386D01*
X0500022Y0060425D01*
X0500132Y0060460D01*
X0500243Y0060491D01*
X0500355Y0060519D01*
X0500468Y0060543D01*
X0500582Y0060563D01*
X0500697Y0060579D01*
X0500812Y0060591D01*
X0500927Y0060599D01*
X0501042Y0060603D01*
X0501158Y0060603D01*
X0501273Y0060599D01*
X0501388Y0060591D01*
X0501503Y0060579D01*
X0501618Y0060563D01*
X0501732Y0060543D01*
X0501845Y0060519D01*
X0501957Y0060491D01*
X0502068Y0060460D01*
X0502178Y0060425D01*
X0502287Y0060386D01*
X0502394Y0060343D01*
X0502500Y0060296D01*
X0502604Y0060246D01*
X0502706Y0060192D01*
X0502806Y0060135D01*
X0502905Y0060075D01*
X0503001Y0060011D01*
X0503095Y0059943D01*
X0503186Y0059873D01*
X0503275Y0059799D01*
X0503362Y0059723D01*
X0503445Y0059643D01*
X0503526Y0059561D01*
X0503605Y0059476D01*
X0503680Y0059388D01*
X0503752Y0059298D01*
X0503820Y0059205D01*
X0503886Y0059110D01*
X0503948Y0059013D01*
X0504007Y0058913D01*
X0504063Y0058812D01*
X0504115Y0058709D01*
X0504163Y0058604D01*
X0504208Y0058497D01*
X0504249Y0058389D01*
X0504286Y0058280D01*
X0504319Y0058169D01*
X0504349Y0058058D01*
X0504374Y0057945D01*
X0504396Y0057832D01*
X0504414Y0057718D01*
X0504428Y0057603D01*
X0504438Y0057488D01*
X0504444Y0057372D01*
X0504446Y0057257D01*
X0504444Y0057142D01*
X0504438Y0057026D01*
X0504428Y0056911D01*
X0504414Y0056796D01*
X0504396Y0056682D01*
X0504374Y0056569D01*
X0504349Y0056456D01*
X0504319Y0056345D01*
X0504286Y0056234D01*
X0504249Y0056125D01*
X0504208Y0056017D01*
X0504163Y0055910D01*
X0504115Y0055805D01*
X0504063Y0055702D01*
X0504007Y0055601D01*
X0503948Y0055501D01*
X0503886Y0055404D01*
X0503820Y0055309D01*
X0503752Y0055216D01*
X0503680Y0055126D01*
X0503605Y0055038D01*
X0503526Y0054953D01*
X0503445Y0054871D01*
X0503362Y0054791D01*
X0503275Y0054715D01*
X0503186Y0054641D01*
X0503095Y0054571D01*
X0503001Y0054503D01*
X0502905Y0054439D01*
X0502806Y0054379D01*
X0502706Y0054322D01*
X0502604Y0054268D01*
X0502500Y0054218D01*
X0502394Y0054171D01*
X0502287Y0054128D01*
X0502178Y0054089D01*
X0502068Y0054054D01*
X0501957Y0054023D01*
X0501845Y0053995D01*
X0501732Y0053971D01*
X0501618Y0053951D01*
X0501503Y0053935D01*
X0501388Y0053923D01*
X0501273Y0053915D01*
X0501158Y0053911D01*
X0501042Y0053911D01*
X0500927Y0053915D01*
X0500812Y0053923D01*
X0500697Y0053935D01*
X0500582Y0053951D01*
X0500468Y0053971D01*
X0500355Y0053995D01*
X0500243Y0054023D01*
X0500132Y0054054D01*
X0500022Y0054089D01*
X0499913Y0054128D01*
X0499806Y0054171D01*
X0499700Y0054218D01*
X0499596Y0054268D01*
X0499494Y0054322D01*
X0499394Y0054379D01*
X0499295Y0054439D01*
X0499199Y0054503D01*
X0499105Y0054571D01*
X0499014Y0054641D01*
X0498925Y0054715D01*
X0498838Y0054791D01*
X0498755Y0054871D01*
X0498674Y0054953D01*
X0498595Y0055038D01*
X0498520Y0055126D01*
X0498448Y0055216D01*
X0498380Y0055309D01*
X0498314Y0055404D01*
X0498252Y0055501D01*
X0498193Y0055601D01*
X0498137Y0055702D01*
X0498085Y0055805D01*
X0498037Y0055910D01*
X0497992Y0056017D01*
X0497951Y0056125D01*
X0497914Y0056234D01*
X0497881Y0056345D01*
X0497851Y0056456D01*
X0497826Y0056569D01*
X0497804Y0056682D01*
X0497786Y0056796D01*
X0497772Y0056911D01*
X0497762Y0057026D01*
X0497756Y0057142D01*
X0497754Y0057257D01*
X0525313Y0057257D02*
X0525315Y0057372D01*
X0525321Y0057488D01*
X0525331Y0057603D01*
X0525345Y0057718D01*
X0525363Y0057832D01*
X0525385Y0057945D01*
X0525410Y0058058D01*
X0525440Y0058169D01*
X0525473Y0058280D01*
X0525510Y0058389D01*
X0525551Y0058497D01*
X0525596Y0058604D01*
X0525644Y0058709D01*
X0525696Y0058812D01*
X0525752Y0058913D01*
X0525811Y0059013D01*
X0525873Y0059110D01*
X0525939Y0059205D01*
X0526007Y0059298D01*
X0526079Y0059388D01*
X0526154Y0059476D01*
X0526233Y0059561D01*
X0526314Y0059643D01*
X0526397Y0059723D01*
X0526484Y0059799D01*
X0526573Y0059873D01*
X0526664Y0059943D01*
X0526758Y0060011D01*
X0526854Y0060075D01*
X0526953Y0060135D01*
X0527053Y0060192D01*
X0527155Y0060246D01*
X0527259Y0060296D01*
X0527365Y0060343D01*
X0527472Y0060386D01*
X0527581Y0060425D01*
X0527691Y0060460D01*
X0527802Y0060491D01*
X0527914Y0060519D01*
X0528027Y0060543D01*
X0528141Y0060563D01*
X0528256Y0060579D01*
X0528371Y0060591D01*
X0528486Y0060599D01*
X0528601Y0060603D01*
X0528717Y0060603D01*
X0528832Y0060599D01*
X0528947Y0060591D01*
X0529062Y0060579D01*
X0529177Y0060563D01*
X0529291Y0060543D01*
X0529404Y0060519D01*
X0529516Y0060491D01*
X0529627Y0060460D01*
X0529737Y0060425D01*
X0529846Y0060386D01*
X0529953Y0060343D01*
X0530059Y0060296D01*
X0530163Y0060246D01*
X0530265Y0060192D01*
X0530365Y0060135D01*
X0530464Y0060075D01*
X0530560Y0060011D01*
X0530654Y0059943D01*
X0530745Y0059873D01*
X0530834Y0059799D01*
X0530921Y0059723D01*
X0531004Y0059643D01*
X0531085Y0059561D01*
X0531164Y0059476D01*
X0531239Y0059388D01*
X0531311Y0059298D01*
X0531379Y0059205D01*
X0531445Y0059110D01*
X0531507Y0059013D01*
X0531566Y0058913D01*
X0531622Y0058812D01*
X0531674Y0058709D01*
X0531722Y0058604D01*
X0531767Y0058497D01*
X0531808Y0058389D01*
X0531845Y0058280D01*
X0531878Y0058169D01*
X0531908Y0058058D01*
X0531933Y0057945D01*
X0531955Y0057832D01*
X0531973Y0057718D01*
X0531987Y0057603D01*
X0531997Y0057488D01*
X0532003Y0057372D01*
X0532005Y0057257D01*
X0532003Y0057142D01*
X0531997Y0057026D01*
X0531987Y0056911D01*
X0531973Y0056796D01*
X0531955Y0056682D01*
X0531933Y0056569D01*
X0531908Y0056456D01*
X0531878Y0056345D01*
X0531845Y0056234D01*
X0531808Y0056125D01*
X0531767Y0056017D01*
X0531722Y0055910D01*
X0531674Y0055805D01*
X0531622Y0055702D01*
X0531566Y0055601D01*
X0531507Y0055501D01*
X0531445Y0055404D01*
X0531379Y0055309D01*
X0531311Y0055216D01*
X0531239Y0055126D01*
X0531164Y0055038D01*
X0531085Y0054953D01*
X0531004Y0054871D01*
X0530921Y0054791D01*
X0530834Y0054715D01*
X0530745Y0054641D01*
X0530654Y0054571D01*
X0530560Y0054503D01*
X0530464Y0054439D01*
X0530365Y0054379D01*
X0530265Y0054322D01*
X0530163Y0054268D01*
X0530059Y0054218D01*
X0529953Y0054171D01*
X0529846Y0054128D01*
X0529737Y0054089D01*
X0529627Y0054054D01*
X0529516Y0054023D01*
X0529404Y0053995D01*
X0529291Y0053971D01*
X0529177Y0053951D01*
X0529062Y0053935D01*
X0528947Y0053923D01*
X0528832Y0053915D01*
X0528717Y0053911D01*
X0528601Y0053911D01*
X0528486Y0053915D01*
X0528371Y0053923D01*
X0528256Y0053935D01*
X0528141Y0053951D01*
X0528027Y0053971D01*
X0527914Y0053995D01*
X0527802Y0054023D01*
X0527691Y0054054D01*
X0527581Y0054089D01*
X0527472Y0054128D01*
X0527365Y0054171D01*
X0527259Y0054218D01*
X0527155Y0054268D01*
X0527053Y0054322D01*
X0526953Y0054379D01*
X0526854Y0054439D01*
X0526758Y0054503D01*
X0526664Y0054571D01*
X0526573Y0054641D01*
X0526484Y0054715D01*
X0526397Y0054791D01*
X0526314Y0054871D01*
X0526233Y0054953D01*
X0526154Y0055038D01*
X0526079Y0055126D01*
X0526007Y0055216D01*
X0525939Y0055309D01*
X0525873Y0055404D01*
X0525811Y0055501D01*
X0525752Y0055601D01*
X0525696Y0055702D01*
X0525644Y0055805D01*
X0525596Y0055910D01*
X0525551Y0056017D01*
X0525510Y0056125D01*
X0525473Y0056234D01*
X0525440Y0056345D01*
X0525410Y0056456D01*
X0525385Y0056569D01*
X0525363Y0056682D01*
X0525345Y0056796D01*
X0525331Y0056911D01*
X0525321Y0057026D01*
X0525315Y0057142D01*
X0525313Y0057257D01*
X0528850Y0102486D02*
X0528852Y0102570D01*
X0528858Y0102653D01*
X0528868Y0102736D01*
X0528882Y0102819D01*
X0528899Y0102901D01*
X0528921Y0102982D01*
X0528946Y0103061D01*
X0528975Y0103140D01*
X0529008Y0103217D01*
X0529044Y0103292D01*
X0529084Y0103366D01*
X0529127Y0103438D01*
X0529174Y0103507D01*
X0529224Y0103574D01*
X0529277Y0103639D01*
X0529333Y0103701D01*
X0529391Y0103761D01*
X0529453Y0103818D01*
X0529517Y0103871D01*
X0529584Y0103922D01*
X0529653Y0103969D01*
X0529724Y0104014D01*
X0529797Y0104054D01*
X0529872Y0104091D01*
X0529949Y0104125D01*
X0530027Y0104155D01*
X0530106Y0104181D01*
X0530187Y0104204D01*
X0530269Y0104222D01*
X0530351Y0104237D01*
X0530434Y0104248D01*
X0530517Y0104255D01*
X0530601Y0104258D01*
X0530685Y0104257D01*
X0530768Y0104252D01*
X0530852Y0104243D01*
X0530934Y0104230D01*
X0531016Y0104214D01*
X0531097Y0104193D01*
X0531178Y0104169D01*
X0531256Y0104141D01*
X0531334Y0104109D01*
X0531410Y0104073D01*
X0531484Y0104034D01*
X0531556Y0103992D01*
X0531626Y0103946D01*
X0531694Y0103897D01*
X0531759Y0103845D01*
X0531822Y0103790D01*
X0531882Y0103732D01*
X0531940Y0103671D01*
X0531994Y0103607D01*
X0532046Y0103541D01*
X0532094Y0103473D01*
X0532139Y0103402D01*
X0532180Y0103329D01*
X0532219Y0103255D01*
X0532253Y0103179D01*
X0532284Y0103101D01*
X0532311Y0103022D01*
X0532335Y0102941D01*
X0532354Y0102860D01*
X0532370Y0102778D01*
X0532382Y0102695D01*
X0532390Y0102611D01*
X0532394Y0102528D01*
X0532394Y0102444D01*
X0532390Y0102361D01*
X0532382Y0102277D01*
X0532370Y0102194D01*
X0532354Y0102112D01*
X0532335Y0102031D01*
X0532311Y0101950D01*
X0532284Y0101871D01*
X0532253Y0101793D01*
X0532219Y0101717D01*
X0532180Y0101643D01*
X0532139Y0101570D01*
X0532094Y0101499D01*
X0532046Y0101431D01*
X0531994Y0101365D01*
X0531940Y0101301D01*
X0531882Y0101240D01*
X0531822Y0101182D01*
X0531759Y0101127D01*
X0531694Y0101075D01*
X0531626Y0101026D01*
X0531556Y0100980D01*
X0531484Y0100938D01*
X0531410Y0100899D01*
X0531334Y0100863D01*
X0531256Y0100831D01*
X0531178Y0100803D01*
X0531097Y0100779D01*
X0531016Y0100758D01*
X0530934Y0100742D01*
X0530852Y0100729D01*
X0530768Y0100720D01*
X0530685Y0100715D01*
X0530601Y0100714D01*
X0530517Y0100717D01*
X0530434Y0100724D01*
X0530351Y0100735D01*
X0530269Y0100750D01*
X0530187Y0100768D01*
X0530106Y0100791D01*
X0530027Y0100817D01*
X0529949Y0100847D01*
X0529872Y0100881D01*
X0529797Y0100918D01*
X0529724Y0100958D01*
X0529653Y0101003D01*
X0529584Y0101050D01*
X0529517Y0101101D01*
X0529453Y0101154D01*
X0529391Y0101211D01*
X0529333Y0101271D01*
X0529277Y0101333D01*
X0529224Y0101398D01*
X0529174Y0101465D01*
X0529127Y0101534D01*
X0529084Y0101606D01*
X0529044Y0101680D01*
X0529008Y0101755D01*
X0528975Y0101832D01*
X0528946Y0101911D01*
X0528921Y0101990D01*
X0528899Y0102071D01*
X0528882Y0102153D01*
X0528868Y0102236D01*
X0528858Y0102319D01*
X0528852Y0102402D01*
X0528850Y0102486D01*
X0528850Y0119809D02*
X0528852Y0119893D01*
X0528858Y0119976D01*
X0528868Y0120059D01*
X0528882Y0120142D01*
X0528899Y0120224D01*
X0528921Y0120305D01*
X0528946Y0120384D01*
X0528975Y0120463D01*
X0529008Y0120540D01*
X0529044Y0120615D01*
X0529084Y0120689D01*
X0529127Y0120761D01*
X0529174Y0120830D01*
X0529224Y0120897D01*
X0529277Y0120962D01*
X0529333Y0121024D01*
X0529391Y0121084D01*
X0529453Y0121141D01*
X0529517Y0121194D01*
X0529584Y0121245D01*
X0529653Y0121292D01*
X0529724Y0121337D01*
X0529797Y0121377D01*
X0529872Y0121414D01*
X0529949Y0121448D01*
X0530027Y0121478D01*
X0530106Y0121504D01*
X0530187Y0121527D01*
X0530269Y0121545D01*
X0530351Y0121560D01*
X0530434Y0121571D01*
X0530517Y0121578D01*
X0530601Y0121581D01*
X0530685Y0121580D01*
X0530768Y0121575D01*
X0530852Y0121566D01*
X0530934Y0121553D01*
X0531016Y0121537D01*
X0531097Y0121516D01*
X0531178Y0121492D01*
X0531256Y0121464D01*
X0531334Y0121432D01*
X0531410Y0121396D01*
X0531484Y0121357D01*
X0531556Y0121315D01*
X0531626Y0121269D01*
X0531694Y0121220D01*
X0531759Y0121168D01*
X0531822Y0121113D01*
X0531882Y0121055D01*
X0531940Y0120994D01*
X0531994Y0120930D01*
X0532046Y0120864D01*
X0532094Y0120796D01*
X0532139Y0120725D01*
X0532180Y0120652D01*
X0532219Y0120578D01*
X0532253Y0120502D01*
X0532284Y0120424D01*
X0532311Y0120345D01*
X0532335Y0120264D01*
X0532354Y0120183D01*
X0532370Y0120101D01*
X0532382Y0120018D01*
X0532390Y0119934D01*
X0532394Y0119851D01*
X0532394Y0119767D01*
X0532390Y0119684D01*
X0532382Y0119600D01*
X0532370Y0119517D01*
X0532354Y0119435D01*
X0532335Y0119354D01*
X0532311Y0119273D01*
X0532284Y0119194D01*
X0532253Y0119116D01*
X0532219Y0119040D01*
X0532180Y0118966D01*
X0532139Y0118893D01*
X0532094Y0118822D01*
X0532046Y0118754D01*
X0531994Y0118688D01*
X0531940Y0118624D01*
X0531882Y0118563D01*
X0531822Y0118505D01*
X0531759Y0118450D01*
X0531694Y0118398D01*
X0531626Y0118349D01*
X0531556Y0118303D01*
X0531484Y0118261D01*
X0531410Y0118222D01*
X0531334Y0118186D01*
X0531256Y0118154D01*
X0531178Y0118126D01*
X0531097Y0118102D01*
X0531016Y0118081D01*
X0530934Y0118065D01*
X0530852Y0118052D01*
X0530768Y0118043D01*
X0530685Y0118038D01*
X0530601Y0118037D01*
X0530517Y0118040D01*
X0530434Y0118047D01*
X0530351Y0118058D01*
X0530269Y0118073D01*
X0530187Y0118091D01*
X0530106Y0118114D01*
X0530027Y0118140D01*
X0529949Y0118170D01*
X0529872Y0118204D01*
X0529797Y0118241D01*
X0529724Y0118281D01*
X0529653Y0118326D01*
X0529584Y0118373D01*
X0529517Y0118424D01*
X0529453Y0118477D01*
X0529391Y0118534D01*
X0529333Y0118594D01*
X0529277Y0118656D01*
X0529224Y0118721D01*
X0529174Y0118788D01*
X0529127Y0118857D01*
X0529084Y0118929D01*
X0529044Y0119003D01*
X0529008Y0119078D01*
X0528975Y0119155D01*
X0528946Y0119234D01*
X0528921Y0119313D01*
X0528899Y0119394D01*
X0528882Y0119476D01*
X0528868Y0119559D01*
X0528858Y0119642D01*
X0528852Y0119725D01*
X0528850Y0119809D01*
X0501800Y0232857D02*
X0501802Y0233017D01*
X0501808Y0233176D01*
X0501818Y0233335D01*
X0501832Y0233494D01*
X0501850Y0233653D01*
X0501871Y0233811D01*
X0501897Y0233968D01*
X0501927Y0234125D01*
X0501960Y0234281D01*
X0501998Y0234436D01*
X0502039Y0234590D01*
X0502084Y0234743D01*
X0502133Y0234895D01*
X0502186Y0235046D01*
X0502242Y0235195D01*
X0502303Y0235343D01*
X0502366Y0235489D01*
X0502434Y0235634D01*
X0502505Y0235777D01*
X0502579Y0235918D01*
X0502657Y0236057D01*
X0502739Y0236194D01*
X0502824Y0236329D01*
X0502912Y0236462D01*
X0503004Y0236593D01*
X0503098Y0236721D01*
X0503196Y0236847D01*
X0503297Y0236971D01*
X0503401Y0237092D01*
X0503508Y0237210D01*
X0503618Y0237326D01*
X0503731Y0237439D01*
X0503847Y0237549D01*
X0503965Y0237656D01*
X0504086Y0237760D01*
X0504210Y0237861D01*
X0504336Y0237959D01*
X0504464Y0238053D01*
X0504595Y0238145D01*
X0504728Y0238233D01*
X0504863Y0238318D01*
X0505000Y0238400D01*
X0505139Y0238478D01*
X0505280Y0238552D01*
X0505423Y0238623D01*
X0505568Y0238691D01*
X0505714Y0238754D01*
X0505862Y0238815D01*
X0506011Y0238871D01*
X0506162Y0238924D01*
X0506314Y0238973D01*
X0506467Y0239018D01*
X0506621Y0239059D01*
X0506776Y0239097D01*
X0506932Y0239130D01*
X0507089Y0239160D01*
X0507246Y0239186D01*
X0507404Y0239207D01*
X0507563Y0239225D01*
X0507722Y0239239D01*
X0507881Y0239249D01*
X0508040Y0239255D01*
X0508200Y0239257D01*
X0508360Y0239255D01*
X0508519Y0239249D01*
X0508678Y0239239D01*
X0508837Y0239225D01*
X0508996Y0239207D01*
X0509154Y0239186D01*
X0509311Y0239160D01*
X0509468Y0239130D01*
X0509624Y0239097D01*
X0509779Y0239059D01*
X0509933Y0239018D01*
X0510086Y0238973D01*
X0510238Y0238924D01*
X0510389Y0238871D01*
X0510538Y0238815D01*
X0510686Y0238754D01*
X0510832Y0238691D01*
X0510977Y0238623D01*
X0511120Y0238552D01*
X0511261Y0238478D01*
X0511400Y0238400D01*
X0511537Y0238318D01*
X0511672Y0238233D01*
X0511805Y0238145D01*
X0511936Y0238053D01*
X0512064Y0237959D01*
X0512190Y0237861D01*
X0512314Y0237760D01*
X0512435Y0237656D01*
X0512553Y0237549D01*
X0512669Y0237439D01*
X0512782Y0237326D01*
X0512892Y0237210D01*
X0512999Y0237092D01*
X0513103Y0236971D01*
X0513204Y0236847D01*
X0513302Y0236721D01*
X0513396Y0236593D01*
X0513488Y0236462D01*
X0513576Y0236329D01*
X0513661Y0236194D01*
X0513743Y0236057D01*
X0513821Y0235918D01*
X0513895Y0235777D01*
X0513966Y0235634D01*
X0514034Y0235489D01*
X0514097Y0235343D01*
X0514158Y0235195D01*
X0514214Y0235046D01*
X0514267Y0234895D01*
X0514316Y0234743D01*
X0514361Y0234590D01*
X0514402Y0234436D01*
X0514440Y0234281D01*
X0514473Y0234125D01*
X0514503Y0233968D01*
X0514529Y0233811D01*
X0514550Y0233653D01*
X0514568Y0233494D01*
X0514582Y0233335D01*
X0514592Y0233176D01*
X0514598Y0233017D01*
X0514600Y0232857D01*
X0514598Y0232697D01*
X0514592Y0232538D01*
X0514582Y0232379D01*
X0514568Y0232220D01*
X0514550Y0232061D01*
X0514529Y0231903D01*
X0514503Y0231746D01*
X0514473Y0231589D01*
X0514440Y0231433D01*
X0514402Y0231278D01*
X0514361Y0231124D01*
X0514316Y0230971D01*
X0514267Y0230819D01*
X0514214Y0230668D01*
X0514158Y0230519D01*
X0514097Y0230371D01*
X0514034Y0230225D01*
X0513966Y0230080D01*
X0513895Y0229937D01*
X0513821Y0229796D01*
X0513743Y0229657D01*
X0513661Y0229520D01*
X0513576Y0229385D01*
X0513488Y0229252D01*
X0513396Y0229121D01*
X0513302Y0228993D01*
X0513204Y0228867D01*
X0513103Y0228743D01*
X0512999Y0228622D01*
X0512892Y0228504D01*
X0512782Y0228388D01*
X0512669Y0228275D01*
X0512553Y0228165D01*
X0512435Y0228058D01*
X0512314Y0227954D01*
X0512190Y0227853D01*
X0512064Y0227755D01*
X0511936Y0227661D01*
X0511805Y0227569D01*
X0511672Y0227481D01*
X0511537Y0227396D01*
X0511400Y0227314D01*
X0511261Y0227236D01*
X0511120Y0227162D01*
X0510977Y0227091D01*
X0510832Y0227023D01*
X0510686Y0226960D01*
X0510538Y0226899D01*
X0510389Y0226843D01*
X0510238Y0226790D01*
X0510086Y0226741D01*
X0509933Y0226696D01*
X0509779Y0226655D01*
X0509624Y0226617D01*
X0509468Y0226584D01*
X0509311Y0226554D01*
X0509154Y0226528D01*
X0508996Y0226507D01*
X0508837Y0226489D01*
X0508678Y0226475D01*
X0508519Y0226465D01*
X0508360Y0226459D01*
X0508200Y0226457D01*
X0508040Y0226459D01*
X0507881Y0226465D01*
X0507722Y0226475D01*
X0507563Y0226489D01*
X0507404Y0226507D01*
X0507246Y0226528D01*
X0507089Y0226554D01*
X0506932Y0226584D01*
X0506776Y0226617D01*
X0506621Y0226655D01*
X0506467Y0226696D01*
X0506314Y0226741D01*
X0506162Y0226790D01*
X0506011Y0226843D01*
X0505862Y0226899D01*
X0505714Y0226960D01*
X0505568Y0227023D01*
X0505423Y0227091D01*
X0505280Y0227162D01*
X0505139Y0227236D01*
X0505000Y0227314D01*
X0504863Y0227396D01*
X0504728Y0227481D01*
X0504595Y0227569D01*
X0504464Y0227661D01*
X0504336Y0227755D01*
X0504210Y0227853D01*
X0504086Y0227954D01*
X0503965Y0228058D01*
X0503847Y0228165D01*
X0503731Y0228275D01*
X0503618Y0228388D01*
X0503508Y0228504D01*
X0503401Y0228622D01*
X0503297Y0228743D01*
X0503196Y0228867D01*
X0503098Y0228993D01*
X0503004Y0229121D01*
X0502912Y0229252D01*
X0502824Y0229385D01*
X0502739Y0229520D01*
X0502657Y0229657D01*
X0502579Y0229796D01*
X0502505Y0229937D01*
X0502434Y0230080D01*
X0502366Y0230225D01*
X0502303Y0230371D01*
X0502242Y0230519D01*
X0502186Y0230668D01*
X0502133Y0230819D01*
X0502084Y0230971D01*
X0502039Y0231124D01*
X0501998Y0231278D01*
X0501960Y0231433D01*
X0501927Y0231589D01*
X0501897Y0231746D01*
X0501871Y0231903D01*
X0501850Y0232061D01*
X0501832Y0232220D01*
X0501818Y0232379D01*
X0501808Y0232538D01*
X0501802Y0232697D01*
X0501800Y0232857D01*
X0501800Y0277857D02*
X0501802Y0278017D01*
X0501808Y0278176D01*
X0501818Y0278335D01*
X0501832Y0278494D01*
X0501850Y0278653D01*
X0501871Y0278811D01*
X0501897Y0278968D01*
X0501927Y0279125D01*
X0501960Y0279281D01*
X0501998Y0279436D01*
X0502039Y0279590D01*
X0502084Y0279743D01*
X0502133Y0279895D01*
X0502186Y0280046D01*
X0502242Y0280195D01*
X0502303Y0280343D01*
X0502366Y0280489D01*
X0502434Y0280634D01*
X0502505Y0280777D01*
X0502579Y0280918D01*
X0502657Y0281057D01*
X0502739Y0281194D01*
X0502824Y0281329D01*
X0502912Y0281462D01*
X0503004Y0281593D01*
X0503098Y0281721D01*
X0503196Y0281847D01*
X0503297Y0281971D01*
X0503401Y0282092D01*
X0503508Y0282210D01*
X0503618Y0282326D01*
X0503731Y0282439D01*
X0503847Y0282549D01*
X0503965Y0282656D01*
X0504086Y0282760D01*
X0504210Y0282861D01*
X0504336Y0282959D01*
X0504464Y0283053D01*
X0504595Y0283145D01*
X0504728Y0283233D01*
X0504863Y0283318D01*
X0505000Y0283400D01*
X0505139Y0283478D01*
X0505280Y0283552D01*
X0505423Y0283623D01*
X0505568Y0283691D01*
X0505714Y0283754D01*
X0505862Y0283815D01*
X0506011Y0283871D01*
X0506162Y0283924D01*
X0506314Y0283973D01*
X0506467Y0284018D01*
X0506621Y0284059D01*
X0506776Y0284097D01*
X0506932Y0284130D01*
X0507089Y0284160D01*
X0507246Y0284186D01*
X0507404Y0284207D01*
X0507563Y0284225D01*
X0507722Y0284239D01*
X0507881Y0284249D01*
X0508040Y0284255D01*
X0508200Y0284257D01*
X0508360Y0284255D01*
X0508519Y0284249D01*
X0508678Y0284239D01*
X0508837Y0284225D01*
X0508996Y0284207D01*
X0509154Y0284186D01*
X0509311Y0284160D01*
X0509468Y0284130D01*
X0509624Y0284097D01*
X0509779Y0284059D01*
X0509933Y0284018D01*
X0510086Y0283973D01*
X0510238Y0283924D01*
X0510389Y0283871D01*
X0510538Y0283815D01*
X0510686Y0283754D01*
X0510832Y0283691D01*
X0510977Y0283623D01*
X0511120Y0283552D01*
X0511261Y0283478D01*
X0511400Y0283400D01*
X0511537Y0283318D01*
X0511672Y0283233D01*
X0511805Y0283145D01*
X0511936Y0283053D01*
X0512064Y0282959D01*
X0512190Y0282861D01*
X0512314Y0282760D01*
X0512435Y0282656D01*
X0512553Y0282549D01*
X0512669Y0282439D01*
X0512782Y0282326D01*
X0512892Y0282210D01*
X0512999Y0282092D01*
X0513103Y0281971D01*
X0513204Y0281847D01*
X0513302Y0281721D01*
X0513396Y0281593D01*
X0513488Y0281462D01*
X0513576Y0281329D01*
X0513661Y0281194D01*
X0513743Y0281057D01*
X0513821Y0280918D01*
X0513895Y0280777D01*
X0513966Y0280634D01*
X0514034Y0280489D01*
X0514097Y0280343D01*
X0514158Y0280195D01*
X0514214Y0280046D01*
X0514267Y0279895D01*
X0514316Y0279743D01*
X0514361Y0279590D01*
X0514402Y0279436D01*
X0514440Y0279281D01*
X0514473Y0279125D01*
X0514503Y0278968D01*
X0514529Y0278811D01*
X0514550Y0278653D01*
X0514568Y0278494D01*
X0514582Y0278335D01*
X0514592Y0278176D01*
X0514598Y0278017D01*
X0514600Y0277857D01*
X0514598Y0277697D01*
X0514592Y0277538D01*
X0514582Y0277379D01*
X0514568Y0277220D01*
X0514550Y0277061D01*
X0514529Y0276903D01*
X0514503Y0276746D01*
X0514473Y0276589D01*
X0514440Y0276433D01*
X0514402Y0276278D01*
X0514361Y0276124D01*
X0514316Y0275971D01*
X0514267Y0275819D01*
X0514214Y0275668D01*
X0514158Y0275519D01*
X0514097Y0275371D01*
X0514034Y0275225D01*
X0513966Y0275080D01*
X0513895Y0274937D01*
X0513821Y0274796D01*
X0513743Y0274657D01*
X0513661Y0274520D01*
X0513576Y0274385D01*
X0513488Y0274252D01*
X0513396Y0274121D01*
X0513302Y0273993D01*
X0513204Y0273867D01*
X0513103Y0273743D01*
X0512999Y0273622D01*
X0512892Y0273504D01*
X0512782Y0273388D01*
X0512669Y0273275D01*
X0512553Y0273165D01*
X0512435Y0273058D01*
X0512314Y0272954D01*
X0512190Y0272853D01*
X0512064Y0272755D01*
X0511936Y0272661D01*
X0511805Y0272569D01*
X0511672Y0272481D01*
X0511537Y0272396D01*
X0511400Y0272314D01*
X0511261Y0272236D01*
X0511120Y0272162D01*
X0510977Y0272091D01*
X0510832Y0272023D01*
X0510686Y0271960D01*
X0510538Y0271899D01*
X0510389Y0271843D01*
X0510238Y0271790D01*
X0510086Y0271741D01*
X0509933Y0271696D01*
X0509779Y0271655D01*
X0509624Y0271617D01*
X0509468Y0271584D01*
X0509311Y0271554D01*
X0509154Y0271528D01*
X0508996Y0271507D01*
X0508837Y0271489D01*
X0508678Y0271475D01*
X0508519Y0271465D01*
X0508360Y0271459D01*
X0508200Y0271457D01*
X0508040Y0271459D01*
X0507881Y0271465D01*
X0507722Y0271475D01*
X0507563Y0271489D01*
X0507404Y0271507D01*
X0507246Y0271528D01*
X0507089Y0271554D01*
X0506932Y0271584D01*
X0506776Y0271617D01*
X0506621Y0271655D01*
X0506467Y0271696D01*
X0506314Y0271741D01*
X0506162Y0271790D01*
X0506011Y0271843D01*
X0505862Y0271899D01*
X0505714Y0271960D01*
X0505568Y0272023D01*
X0505423Y0272091D01*
X0505280Y0272162D01*
X0505139Y0272236D01*
X0505000Y0272314D01*
X0504863Y0272396D01*
X0504728Y0272481D01*
X0504595Y0272569D01*
X0504464Y0272661D01*
X0504336Y0272755D01*
X0504210Y0272853D01*
X0504086Y0272954D01*
X0503965Y0273058D01*
X0503847Y0273165D01*
X0503731Y0273275D01*
X0503618Y0273388D01*
X0503508Y0273504D01*
X0503401Y0273622D01*
X0503297Y0273743D01*
X0503196Y0273867D01*
X0503098Y0273993D01*
X0503004Y0274121D01*
X0502912Y0274252D01*
X0502824Y0274385D01*
X0502739Y0274520D01*
X0502657Y0274657D01*
X0502579Y0274796D01*
X0502505Y0274937D01*
X0502434Y0275080D01*
X0502366Y0275225D01*
X0502303Y0275371D01*
X0502242Y0275519D01*
X0502186Y0275668D01*
X0502133Y0275819D01*
X0502084Y0275971D01*
X0502039Y0276124D01*
X0501998Y0276278D01*
X0501960Y0276433D01*
X0501927Y0276589D01*
X0501897Y0276746D01*
X0501871Y0276903D01*
X0501850Y0277061D01*
X0501832Y0277220D01*
X0501818Y0277379D01*
X0501808Y0277538D01*
X0501802Y0277697D01*
X0501800Y0277857D01*
D11*
X0182018Y0212794D02*
X0182018Y0199014D01*
X0171782Y0199014D01*
X0171782Y0212794D01*
X0182018Y0212794D01*
X0169000Y0191857D02*
X0169000Y0187057D01*
X0130900Y0197757D02*
X0126100Y0197757D01*
X0136300Y0150707D02*
X0141100Y0150707D01*
X0120300Y0139157D02*
X0115500Y0139157D01*
X0136400Y0134157D02*
X0141200Y0134157D01*
D12*
X0136093Y0134994D02*
X0136093Y0135961D01*
X0135610Y0136445D01*
X0133675Y0134510D01*
X0133191Y0134994D01*
X0133191Y0135961D01*
X0133675Y0136445D01*
X0135610Y0136445D01*
X0136093Y0134994D02*
X0135610Y0134510D01*
X0133675Y0134510D01*
X0133191Y0133498D02*
X0133191Y0131563D01*
X0133191Y0132531D02*
X0136093Y0132531D01*
X0135126Y0131563D01*
X0135610Y0130552D02*
X0136093Y0130068D01*
X0136093Y0129101D01*
X0135610Y0128617D01*
X0133675Y0128617D01*
X0133191Y0129101D01*
X0133191Y0130068D01*
X0133675Y0130552D01*
X0115193Y0134101D02*
X0114710Y0133617D01*
X0112775Y0133617D01*
X0112291Y0134101D01*
X0112291Y0135068D01*
X0112775Y0135552D01*
X0112291Y0136563D02*
X0112291Y0138498D01*
X0112291Y0137531D02*
X0115193Y0137531D01*
X0114226Y0136563D01*
X0114710Y0135552D02*
X0115193Y0135068D01*
X0115193Y0134101D01*
X0115193Y0139510D02*
X0113742Y0139510D01*
X0114226Y0140477D01*
X0114226Y0140961D01*
X0113742Y0141445D01*
X0112775Y0141445D01*
X0112291Y0140961D01*
X0112291Y0139994D01*
X0112775Y0139510D01*
X0115193Y0139510D02*
X0115193Y0141445D01*
X0136791Y0157497D02*
X0136791Y0158465D01*
X0137275Y0158948D01*
X0137275Y0159960D02*
X0136791Y0160444D01*
X0136791Y0161411D01*
X0137275Y0161895D01*
X0139210Y0161895D01*
X0139693Y0161411D01*
X0139693Y0160444D01*
X0139210Y0159960D01*
X0138726Y0159960D01*
X0138242Y0160444D01*
X0138242Y0161895D01*
X0139210Y0158948D02*
X0139693Y0158465D01*
X0139693Y0157497D01*
X0139210Y0157013D01*
X0137275Y0157013D01*
X0136791Y0157497D01*
X0133628Y0194757D02*
X0131693Y0194757D01*
X0131209Y0195241D01*
X0131209Y0196208D01*
X0131693Y0196692D01*
X0131209Y0197704D02*
X0131209Y0199639D01*
X0131209Y0198671D02*
X0134112Y0198671D01*
X0133144Y0197704D01*
X0133628Y0196692D02*
X0134112Y0196208D01*
X0134112Y0195241D01*
X0133628Y0194757D01*
X0133628Y0200650D02*
X0134112Y0201134D01*
X0134112Y0202101D01*
X0133628Y0202585D01*
X0133144Y0202585D01*
X0132660Y0202101D01*
X0132177Y0202585D01*
X0131693Y0202585D01*
X0131209Y0202101D01*
X0131209Y0201134D01*
X0131693Y0200650D01*
X0132660Y0201618D02*
X0132660Y0202101D01*
X0165112Y0193248D02*
X0167047Y0193248D01*
X0166079Y0193248D02*
X0166079Y0196150D01*
X0167047Y0195183D01*
X0168058Y0193248D02*
X0169993Y0193248D01*
X0169026Y0193248D02*
X0169026Y0196150D01*
X0169993Y0195183D01*
X0171005Y0195666D02*
X0171489Y0196150D01*
X0172456Y0196150D01*
X0172940Y0195666D01*
X0172940Y0193731D01*
X0172456Y0193248D01*
X0171489Y0193248D01*
X0171005Y0193731D01*
X0185744Y0198874D02*
X0185744Y0200108D01*
X0186362Y0200725D01*
X0189448Y0200725D01*
X0188213Y0201940D02*
X0189448Y0203174D01*
X0185744Y0203174D01*
X0185744Y0201940D02*
X0185744Y0204408D01*
X0186362Y0205623D02*
X0185744Y0206240D01*
X0185744Y0207474D01*
X0186362Y0208092D01*
X0186979Y0208092D01*
X0187596Y0207474D01*
X0187596Y0206857D01*
X0187596Y0207474D02*
X0188213Y0208092D01*
X0188830Y0208092D01*
X0189448Y0207474D01*
X0189448Y0206240D01*
X0188830Y0205623D01*
X0189448Y0198257D02*
X0186362Y0198257D01*
X0185744Y0198874D01*
M02*
