G75*
%MOIN*%
%OFA0B0*%
%FSLAX25Y25*%
%IPPOS*%
%LPD*%
%AMOC8*
5,1,8,0,0,1.08239X$1,22.5*
%
%ADD10R,0.07800X0.22700*%
%ADD11R,0.03300X0.03400*%
%ADD12C,0.05800*%
%ADD13C,0.06693*%
%ADD14C,0.03543*%
%ADD15C,0.05906*%
%ADD16C,0.08661*%
%ADD17C,0.12800*%
%ADD18OC8,0.05800*%
%ADD19C,0.01819*%
%ADD20C,0.05737*%
%ADD21C,0.00904*%
%ADD22C,0.03248*%
D10*
X0527300Y0176507D03*
D11*
X0176850Y0208857D03*
D12*
X0177900Y0236657D02*
X0177900Y0242457D01*
X0167900Y0242457D02*
X0167900Y0236657D01*
X0157900Y0236657D02*
X0157900Y0242457D01*
X0147900Y0242457D02*
X0147900Y0236657D01*
X0187900Y0236657D02*
X0187900Y0242457D01*
X0197900Y0242457D02*
X0197900Y0236657D01*
X0207900Y0236657D02*
X0207900Y0242457D01*
X0217900Y0242457D02*
X0217900Y0236657D01*
X0227900Y0236657D02*
X0227900Y0242457D01*
X0237900Y0242457D02*
X0237900Y0236657D01*
X0237900Y0266657D02*
X0237900Y0272457D01*
X0227900Y0272457D02*
X0227900Y0266657D01*
X0217900Y0266657D02*
X0217900Y0272457D01*
X0207900Y0272457D02*
X0207900Y0266657D01*
X0197900Y0266657D02*
X0197900Y0272457D01*
X0187900Y0272457D02*
X0187900Y0266657D01*
X0177900Y0266657D02*
X0177900Y0272457D01*
X0167900Y0272457D02*
X0167900Y0266657D01*
X0157900Y0266657D02*
X0157900Y0272457D01*
X0147900Y0272457D02*
X0147900Y0266657D01*
X0363800Y0224157D02*
X0363800Y0218357D01*
X0373800Y0218357D02*
X0373800Y0224157D01*
X0374409Y0189748D02*
X0380209Y0189748D01*
X0380209Y0179748D02*
X0374409Y0179748D01*
X0374409Y0169748D02*
X0380209Y0169748D01*
X0380209Y0159748D02*
X0374409Y0159748D01*
X0374409Y0149748D02*
X0380209Y0149748D01*
X0380209Y0139748D02*
X0374409Y0139748D01*
D13*
X0501100Y0057257D03*
X0528659Y0057257D03*
D14*
X0530622Y0102486D03*
X0530622Y0119809D03*
D15*
X0454200Y0233857D03*
X0454200Y0243857D03*
X0473200Y0242857D03*
X0483200Y0247857D03*
X0473200Y0252857D03*
X0483200Y0257857D03*
X0473200Y0262857D03*
X0483200Y0267857D03*
X0473200Y0272857D03*
X0454200Y0276857D03*
X0454200Y0266857D03*
X0483200Y0237857D03*
D16*
X0496200Y0224857D03*
X0496200Y0285857D03*
D17*
X0508200Y0277857D03*
X0508200Y0232857D03*
D18*
X0039000Y0039557D03*
X0049000Y0039557D03*
X0049000Y0049557D03*
X0039000Y0049557D03*
X0039000Y0059557D03*
X0049000Y0059557D03*
X0049000Y0069557D03*
X0039000Y0069557D03*
X0039000Y0079557D03*
X0049000Y0079557D03*
X0049000Y0089557D03*
X0039000Y0089557D03*
X0039000Y0107057D03*
X0049000Y0107057D03*
X0049000Y0117057D03*
X0039000Y0117057D03*
X0039000Y0127057D03*
X0049000Y0127057D03*
X0049000Y0137057D03*
X0039000Y0137057D03*
X0039000Y0147057D03*
X0049000Y0147057D03*
X0049000Y0157057D03*
X0039000Y0157057D03*
X0039000Y0174557D03*
X0049000Y0174557D03*
X0049000Y0184557D03*
X0039000Y0184557D03*
X0039000Y0194557D03*
X0049000Y0194557D03*
X0049000Y0204557D03*
X0039000Y0204557D03*
X0039000Y0214557D03*
X0049000Y0214557D03*
X0049000Y0224557D03*
X0039000Y0224557D03*
X0039000Y0241757D03*
X0049000Y0241757D03*
X0049000Y0251757D03*
X0039000Y0251757D03*
X0039000Y0261757D03*
X0049000Y0261757D03*
X0049000Y0271757D03*
X0039000Y0271757D03*
X0039000Y0281757D03*
X0049000Y0281757D03*
X0049000Y0291757D03*
X0039000Y0291757D03*
D19*
X0129717Y0202360D02*
X0129717Y0200044D01*
X0127283Y0200044D01*
X0127283Y0202360D01*
X0129717Y0202360D01*
X0129717Y0201862D02*
X0127283Y0201862D01*
X0129717Y0195470D02*
X0129717Y0193154D01*
X0127283Y0193154D01*
X0127283Y0195470D01*
X0129717Y0195470D01*
X0129717Y0194972D02*
X0127283Y0194972D01*
X0164397Y0188240D02*
X0166713Y0188240D01*
X0164397Y0188240D02*
X0164397Y0190674D01*
X0166713Y0190674D01*
X0166713Y0188240D01*
X0166713Y0190058D02*
X0164397Y0190058D01*
X0171287Y0188240D02*
X0173603Y0188240D01*
X0171287Y0188240D02*
X0171287Y0190674D01*
X0173603Y0190674D01*
X0173603Y0188240D01*
X0173603Y0190058D02*
X0171287Y0190058D01*
X0137483Y0155310D02*
X0137483Y0152994D01*
X0137483Y0155310D02*
X0139917Y0155310D01*
X0139917Y0152994D01*
X0137483Y0152994D01*
X0137483Y0154812D02*
X0139917Y0154812D01*
X0137483Y0148420D02*
X0137483Y0146104D01*
X0137483Y0148420D02*
X0139917Y0148420D01*
X0139917Y0146104D01*
X0137483Y0146104D01*
X0137483Y0147922D02*
X0139917Y0147922D01*
X0116683Y0143760D02*
X0116683Y0141444D01*
X0116683Y0143760D02*
X0119117Y0143760D01*
X0119117Y0141444D01*
X0116683Y0141444D01*
X0116683Y0143262D02*
X0119117Y0143262D01*
X0116683Y0136870D02*
X0116683Y0134554D01*
X0116683Y0136870D02*
X0119117Y0136870D01*
X0119117Y0134554D01*
X0116683Y0134554D01*
X0116683Y0136372D02*
X0119117Y0136372D01*
X0137583Y0136444D02*
X0137583Y0138760D01*
X0140017Y0138760D01*
X0140017Y0136444D01*
X0137583Y0136444D01*
X0137583Y0138262D02*
X0140017Y0138262D01*
X0137583Y0131870D02*
X0137583Y0129554D01*
X0137583Y0131870D02*
X0140017Y0131870D01*
X0140017Y0129554D01*
X0137583Y0129554D01*
X0137583Y0131372D02*
X0140017Y0131372D01*
D20*
X0469300Y0187457D03*
X0487017Y0187457D03*
X0487017Y0213047D03*
X0469300Y0213047D03*
D21*
X0181172Y0204503D02*
X0179222Y0204503D01*
X0181172Y0204503D02*
X0181172Y0203353D01*
X0179222Y0203353D01*
X0179222Y0204503D01*
X0179222Y0204256D02*
X0181172Y0204256D01*
X0181172Y0201266D02*
X0179222Y0201266D01*
X0181172Y0201266D02*
X0181172Y0200116D01*
X0179222Y0200116D01*
X0179222Y0201266D01*
X0179222Y0201019D02*
X0181172Y0201019D01*
X0174578Y0201266D02*
X0172628Y0201266D01*
X0174578Y0201266D02*
X0174578Y0200116D01*
X0172628Y0200116D01*
X0172628Y0201266D01*
X0172628Y0201019D02*
X0174578Y0201019D01*
X0174578Y0204503D02*
X0172628Y0204503D01*
X0174578Y0204503D02*
X0174578Y0203353D01*
X0172628Y0203353D01*
X0172628Y0204503D01*
X0172628Y0204256D02*
X0174578Y0204256D01*
D22*
X0176900Y0208857D03*
M02*
