G75*
%MOIN*%
%OFA0B0*%
%FSLAX25Y25*%
%IPPOS*%
%LPD*%
%AMOC8*
5,1,8,0,0,1.08239X$1,22.5*
%
%ADD10C,0.00300*%
%ADD11C,0.05800*%
%ADD12C,0.05906*%
%ADD13C,0.08661*%
%ADD14C,0.05737*%
%ADD15C,0.03248*%
%ADD16C,0.03750*%
%ADD17C,0.02000*%
%ADD18C,0.02500*%
%ADD19C,0.00800*%
%ADD20C,0.00600*%
%ADD21C,0.01000*%
%ADD22C,0.05000*%
%ADD23C,0.06600*%
%ADD24C,0.04000*%
%ADD25C,0.01600*%
%ADD26C,0.01200*%
%ADD27C,0.00500*%
D10*
X0526248Y0173991D02*
X0526731Y0173507D01*
X0526248Y0173991D02*
X0526248Y0174958D01*
X0526731Y0175442D01*
X0527215Y0175442D01*
X0529150Y0173507D01*
X0529150Y0175442D01*
D11*
X0377309Y0179748D03*
X0377309Y0169748D03*
X0377309Y0159748D03*
X0377309Y0149748D03*
X0377309Y0139748D03*
X0377309Y0189748D03*
X0373800Y0221257D03*
X0363800Y0221257D03*
X0237900Y0239557D03*
X0227900Y0239557D03*
X0217900Y0239557D03*
X0207900Y0239557D03*
X0197900Y0239557D03*
X0187900Y0239557D03*
X0177900Y0239557D03*
X0167900Y0239557D03*
X0157900Y0239557D03*
X0147900Y0239557D03*
X0147900Y0269557D03*
X0157900Y0269557D03*
X0167900Y0269557D03*
X0177900Y0269557D03*
X0187900Y0269557D03*
X0197900Y0269557D03*
X0207900Y0269557D03*
X0217900Y0269557D03*
X0227900Y0269557D03*
X0237900Y0269557D03*
X0049000Y0271757D03*
X0039000Y0271757D03*
X0039000Y0281757D03*
X0049000Y0281757D03*
X0049000Y0291757D03*
X0039000Y0291757D03*
X0039000Y0261757D03*
X0049000Y0261757D03*
X0049000Y0251757D03*
X0039000Y0251757D03*
X0039000Y0241757D03*
X0049000Y0241757D03*
X0049000Y0224557D03*
X0039000Y0224557D03*
X0039000Y0214557D03*
X0049000Y0214557D03*
X0049000Y0204557D03*
X0039000Y0204557D03*
X0039000Y0194557D03*
X0049000Y0194557D03*
X0049000Y0184557D03*
X0039000Y0184557D03*
X0039000Y0174557D03*
X0049000Y0174557D03*
X0049000Y0157057D03*
X0039000Y0157057D03*
X0039000Y0147057D03*
X0049000Y0147057D03*
X0049000Y0137057D03*
X0039000Y0137057D03*
X0039000Y0127057D03*
X0049000Y0127057D03*
X0049000Y0117057D03*
X0039000Y0117057D03*
X0039000Y0107057D03*
X0049000Y0107057D03*
X0049000Y0089557D03*
X0039000Y0089557D03*
X0039000Y0079557D03*
X0049000Y0079557D03*
X0049000Y0069557D03*
X0039000Y0069557D03*
X0039000Y0059557D03*
X0049000Y0059557D03*
X0049000Y0049557D03*
X0039000Y0049557D03*
X0039000Y0039557D03*
X0049000Y0039557D03*
D12*
X0454200Y0233857D03*
X0454200Y0243857D03*
X0473200Y0242857D03*
X0483200Y0247857D03*
X0473200Y0252857D03*
X0483200Y0257857D03*
X0473200Y0262857D03*
X0483200Y0267857D03*
X0473200Y0272857D03*
X0454200Y0276857D03*
X0454200Y0266857D03*
X0483200Y0237857D03*
D13*
X0496200Y0224857D03*
X0496200Y0285857D03*
D14*
X0487017Y0213047D03*
X0469300Y0213047D03*
X0469300Y0187457D03*
X0487017Y0187457D03*
D15*
X0176900Y0208857D03*
D16*
X0351300Y0112807D03*
X0328300Y0097757D03*
X0328700Y0092757D03*
X0333200Y0090057D03*
X0345100Y0090357D03*
X0349800Y0090057D03*
X0353800Y0092257D03*
X0360300Y0090957D03*
X0364700Y0090857D03*
X0364800Y0086457D03*
X0360300Y0086457D03*
X0374600Y0074057D03*
X0378100Y0070257D03*
X0377700Y0064957D03*
X0373200Y0063057D03*
X0363600Y0056257D03*
X0363100Y0052157D03*
X0358600Y0050157D03*
X0353800Y0050257D03*
X0345100Y0048857D03*
X0340500Y0048957D03*
X0335700Y0048857D03*
X0330900Y0049157D03*
X0326100Y0048957D03*
X0321600Y0049257D03*
X0399000Y0095557D03*
X0404100Y0095557D03*
X0408500Y0094157D03*
X0413900Y0094257D03*
X0404100Y0100757D03*
X0398900Y0100957D03*
X0404300Y0110457D03*
X0403300Y0116557D03*
X0398500Y0119457D03*
X0402800Y0123557D03*
X0409600Y0122657D03*
X0419800Y0124357D03*
X0425100Y0123257D03*
X0429500Y0120657D03*
X0421200Y0117557D03*
X0429800Y0114157D03*
X0424500Y0110657D03*
X0420900Y0101857D03*
X0420200Y0095357D03*
X0418600Y0086957D03*
X0403800Y0087557D03*
X0383450Y0105657D03*
X0383500Y0109207D03*
X0397300Y0113457D03*
X0436700Y0095257D03*
X0443200Y0086457D03*
X0473500Y0079557D03*
X0485200Y0083257D03*
X0484600Y0091157D03*
X0484500Y0096257D03*
X0480200Y0096257D03*
X0476200Y0096657D03*
X0516500Y0087157D03*
X0520700Y0087357D03*
X0525100Y0087357D03*
X0527900Y0078357D03*
X0532900Y0079157D03*
X0538100Y0078557D03*
X0539700Y0073557D03*
X0526100Y0073357D03*
X0538100Y0087157D03*
X0542500Y0087557D03*
X0546900Y0087357D03*
X0512300Y0118757D03*
X0512200Y0122657D03*
X0512300Y0126757D03*
X0512300Y0130957D03*
X0516100Y0134757D03*
X0520500Y0134957D03*
X0524900Y0134957D03*
X0538300Y0134757D03*
X0542500Y0134957D03*
X0546700Y0134757D03*
X0494800Y0140557D03*
X0494700Y0144457D03*
X0490800Y0144257D03*
X0490800Y0140457D03*
X0417500Y0057357D03*
X0415600Y0050957D03*
X0437100Y0057057D03*
X0498900Y0034257D03*
X0506900Y0035057D03*
D17*
X0453000Y0067257D03*
X0457200Y0076457D03*
X0457100Y0078357D03*
X0370000Y0084357D03*
X0332300Y0106257D03*
X0328300Y0101257D03*
X0326000Y0101257D03*
X0321400Y0098257D03*
X0319300Y0100357D03*
X0306100Y0104757D03*
X0298100Y0104357D03*
X0300100Y0110857D03*
X0302100Y0114157D03*
X0306000Y0114857D03*
X0304300Y0122257D03*
X0308100Y0123657D03*
X0321100Y0129857D03*
X0318300Y0131657D03*
X0326500Y0134857D03*
X0329500Y0136657D03*
X0325700Y0143557D03*
X0321600Y0145557D03*
X0334500Y0147457D03*
X0333200Y0153557D03*
X0328100Y0161257D03*
X0321600Y0161557D03*
X0325500Y0169357D03*
X0312100Y0176857D03*
X0310100Y0178957D03*
X0308000Y0181257D03*
X0306000Y0183157D03*
X0304200Y0185357D03*
X0314100Y0182757D03*
X0317100Y0183057D03*
X0334600Y0182857D03*
X0343900Y0192757D03*
X0342600Y0194757D03*
X0352600Y0192657D03*
X0352700Y0195857D03*
X0367400Y0204657D03*
X0345400Y0219457D03*
X0352300Y0230457D03*
X0309900Y0231757D03*
X0297100Y0224957D03*
X0284300Y0233957D03*
X0276800Y0229757D03*
X0271000Y0230157D03*
X0274300Y0223057D03*
X0268700Y0219557D03*
X0264400Y0215757D03*
X0259100Y0216857D03*
X0256900Y0216857D03*
X0247700Y0213357D03*
X0247700Y0211257D03*
X0249900Y0207257D03*
X0248300Y0204657D03*
X0250200Y0196357D03*
X0251800Y0190757D03*
X0259700Y0192757D03*
X0262100Y0195157D03*
X0272500Y0197757D03*
X0277200Y0189957D03*
X0302100Y0198457D03*
X0300200Y0205657D03*
X0309700Y0207357D03*
X0311000Y0212557D03*
X0274600Y0205657D03*
X0242400Y0182657D03*
X0240700Y0184657D03*
X0244400Y0180757D03*
X0246600Y0178657D03*
X0247900Y0176357D03*
X0244300Y0174357D03*
X0242000Y0165457D03*
X0238700Y0165157D03*
X0235900Y0167357D03*
X0233300Y0171057D03*
X0230800Y0173007D03*
X0217850Y0163157D03*
X0215050Y0161157D03*
X0210350Y0159257D03*
X0205900Y0162057D03*
X0208000Y0164557D03*
X0212450Y0169157D03*
X0203700Y0176357D03*
X0201000Y0176657D03*
X0199000Y0178657D03*
X0197100Y0181657D03*
X0193800Y0183057D03*
X0191200Y0183857D03*
X0188700Y0182357D03*
X0186800Y0180657D03*
X0185200Y0175457D03*
X0193200Y0177757D03*
X0171800Y0164557D03*
X0166000Y0158857D03*
X0162900Y0158907D03*
X0159800Y0158957D03*
X0159800Y0155707D03*
X0162900Y0152607D03*
X0166050Y0152607D03*
X0162900Y0149457D03*
X0159750Y0149457D03*
X0153450Y0149457D03*
X0150300Y0149457D03*
X0147150Y0149457D03*
X0144000Y0152607D03*
X0144000Y0155757D03*
X0140900Y0155707D03*
X0140800Y0158857D03*
X0140800Y0162057D03*
X0140800Y0165257D03*
X0144000Y0165257D03*
X0144000Y0162057D03*
X0144000Y0158907D03*
X0147150Y0158907D03*
X0147150Y0155757D03*
X0153400Y0162107D03*
X0150300Y0165207D03*
X0147150Y0168357D03*
X0140900Y0171457D03*
X0140900Y0174607D03*
X0137700Y0171507D03*
X0137650Y0168407D03*
X0134600Y0165257D03*
X0134550Y0162057D03*
X0134550Y0155757D03*
X0128250Y0152607D03*
X0128250Y0149457D03*
X0125100Y0149457D03*
X0121950Y0146307D03*
X0121950Y0143157D03*
X0125100Y0143157D03*
X0128200Y0143207D03*
X0128250Y0140007D03*
X0125100Y0140007D03*
X0131400Y0140007D03*
X0137700Y0143157D03*
X0144000Y0140007D03*
X0144900Y0131457D03*
X0147800Y0132057D03*
X0156200Y0136657D03*
X0160200Y0131957D03*
X0163700Y0131857D03*
X0170900Y0129257D03*
X0173400Y0131557D03*
X0176400Y0131857D03*
X0179500Y0131657D03*
X0181200Y0129257D03*
X0183500Y0127457D03*
X0186600Y0126857D03*
X0188800Y0130557D03*
X0191100Y0131957D03*
X0205900Y0131257D03*
X0208000Y0137557D03*
X0203800Y0140007D03*
X0201900Y0141957D03*
X0199700Y0143257D03*
X0197600Y0145357D03*
X0195200Y0146657D03*
X0210200Y0153307D03*
X0214900Y0153157D03*
X0217500Y0151107D03*
X0220100Y0150457D03*
X0220600Y0153407D03*
X0223150Y0157357D03*
X0225800Y0155357D03*
X0228250Y0151157D03*
X0230750Y0149307D03*
X0233300Y0143457D03*
X0236100Y0141557D03*
X0238600Y0139657D03*
X0242100Y0145357D03*
X0251800Y0145557D03*
X0259900Y0144957D03*
X0259700Y0148157D03*
X0263700Y0166457D03*
X0259800Y0167157D03*
X0251800Y0165157D03*
X0220600Y0185679D03*
X0228450Y0188557D03*
X0203000Y0196057D03*
X0183800Y0200657D03*
X0183300Y0203957D03*
X0187400Y0210457D03*
X0184100Y0214857D03*
X0169600Y0208657D03*
X0163400Y0211057D03*
X0157600Y0215757D03*
X0155200Y0215757D03*
X0169900Y0203957D03*
X0161700Y0193157D03*
X0158600Y0192857D03*
X0155500Y0190657D03*
X0161200Y0188357D03*
X0159700Y0184157D03*
X0162900Y0184107D03*
X0162950Y0177857D03*
X0159800Y0177757D03*
X0162900Y0174657D03*
X0162900Y0171507D03*
X0162900Y0168357D03*
X0162950Y0165157D03*
X0162900Y0162057D03*
X0159800Y0165257D03*
X0156600Y0174657D03*
X0153400Y0177857D03*
X0150200Y0180855D03*
X0150300Y0184107D03*
X0147150Y0184107D03*
X0144000Y0180957D03*
X0140800Y0184057D03*
X0137650Y0184057D03*
X0143700Y0187307D03*
X0134250Y0188457D03*
X0131050Y0187657D03*
X0128550Y0187607D03*
X0123550Y0188907D03*
X0120350Y0188757D03*
X0121950Y0184107D03*
X0122000Y0180907D03*
X0125100Y0180957D03*
X0128250Y0180957D03*
X0125100Y0177807D03*
X0125100Y0174657D03*
X0125150Y0168307D03*
X0121950Y0168357D03*
X0121950Y0165207D03*
X0121950Y0162057D03*
X0125100Y0162057D03*
X0125100Y0158907D03*
X0125100Y0155757D03*
X0122000Y0155757D03*
X0116200Y0155807D03*
X0115050Y0151457D03*
X0114300Y0146707D03*
X0112250Y0143807D03*
X0123450Y0131107D03*
X0126650Y0129207D03*
X0120350Y0127557D03*
X0113200Y0124657D03*
X0094450Y0136757D03*
X0094100Y0141357D03*
X0087500Y0130357D03*
X0090600Y0125307D03*
X0080350Y0120157D03*
X0083600Y0115257D03*
X0076150Y0109257D03*
X0072450Y0104707D03*
X0124000Y0073207D03*
X0125750Y0066857D03*
X0120400Y0057507D03*
X0113250Y0052357D03*
X0101050Y0047407D03*
X0095250Y0042357D03*
X0096950Y0036857D03*
X0105000Y0062207D03*
X0145100Y0085957D03*
X0145100Y0088157D03*
X0145100Y0090357D03*
X0145100Y0092457D03*
X0145100Y0098657D03*
X0145100Y0101157D03*
X0145100Y0103557D03*
X0145200Y0105957D03*
X0147600Y0113157D03*
X0149400Y0116257D03*
X0150400Y0119157D03*
X0157700Y0120357D03*
X0193400Y0124257D03*
X0223250Y0133707D03*
X0226000Y0135757D03*
X0228500Y0139657D03*
X0235000Y0129057D03*
X0234900Y0127057D03*
X0240000Y0122057D03*
X0229500Y0119857D03*
X0251400Y0125808D03*
X0268900Y0126757D03*
X0275300Y0129357D03*
X0277900Y0131757D03*
X0279700Y0129157D03*
X0282300Y0122657D03*
X0286400Y0124557D03*
X0288700Y0122957D03*
X0284400Y0114857D03*
X0274600Y0114857D03*
X0272700Y0112757D03*
X0268700Y0114357D03*
X0270600Y0104957D03*
X0265600Y0103757D03*
X0262900Y0104657D03*
X0260300Y0096857D03*
X0257000Y0094357D03*
X0257600Y0091457D03*
X0259700Y0091457D03*
X0253100Y0087657D03*
X0263000Y0085757D03*
X0243600Y0078957D03*
X0226500Y0066057D03*
X0226400Y0061957D03*
X0208500Y0075657D03*
X0188200Y0078757D03*
X0185500Y0080157D03*
X0185500Y0077357D03*
X0187600Y0082257D03*
X0184000Y0083057D03*
X0190200Y0086457D03*
X0190000Y0089957D03*
X0190000Y0093757D03*
X0189100Y0097457D03*
X0187500Y0099857D03*
X0164500Y0093257D03*
X0164400Y0090957D03*
X0164400Y0088657D03*
X0164400Y0086457D03*
X0164500Y0084157D03*
X0255200Y0062357D03*
X0260800Y0055057D03*
X0271200Y0054957D03*
X0277900Y0053157D03*
X0271300Y0062357D03*
X0291700Y0060857D03*
X0292900Y0082657D03*
X0298900Y0094157D03*
X0302100Y0096057D03*
X0290400Y0107057D03*
X0292300Y0109957D03*
X0294300Y0114857D03*
X0284500Y0104657D03*
X0296300Y0133057D03*
X0329600Y0122857D03*
X0331600Y0114857D03*
X0345600Y0136357D03*
X0342600Y0149457D03*
X0352800Y0149557D03*
X0343700Y0166257D03*
X0343300Y0168957D03*
X0351300Y0168957D03*
X0307800Y0163357D03*
X0294200Y0171957D03*
X0212500Y0147907D03*
X0181100Y0158657D03*
X0176800Y0153357D03*
X0162850Y0143207D03*
X0156600Y0143157D03*
X0153350Y0146207D03*
X0140900Y0149407D03*
X0118000Y0164907D03*
X0114300Y0160407D03*
X0107900Y0170307D03*
X0109450Y0174657D03*
X0110800Y0177807D03*
X0118050Y0172707D03*
X0098100Y0177007D03*
X0089600Y0181957D03*
X0082200Y0191957D03*
X0084950Y0196257D03*
X0079800Y0201657D03*
X0076750Y0207007D03*
X0081800Y0220457D03*
X0087450Y0225857D03*
X0093150Y0230707D03*
X0105400Y0224857D03*
X0107750Y0230107D03*
X0118500Y0230707D03*
X0123500Y0230607D03*
X0135600Y0230707D03*
X0111500Y0238707D03*
X0108500Y0245257D03*
X0104850Y0247907D03*
X0092350Y0253157D03*
X0100950Y0258007D03*
X0116450Y0264907D03*
X0126150Y0264957D03*
X0136300Y0264907D03*
X0097150Y0267207D03*
X0087550Y0263507D03*
X0080850Y0273207D03*
X0093500Y0220007D03*
X0153500Y0184157D03*
X0179600Y0191557D03*
X0261500Y0246057D03*
X0280200Y0247857D03*
X0294800Y0256757D03*
X0299200Y0269857D03*
X0329700Y0268857D03*
X0300200Y0241957D03*
X0431350Y0169607D03*
X0431250Y0164307D03*
X0432950Y0159407D03*
X0432950Y0154507D03*
X0445850Y0157107D03*
X0464150Y0164407D03*
X0465150Y0159407D03*
X0464150Y0169507D03*
X0476450Y0148407D03*
X0502450Y0143507D03*
X0503000Y0140857D03*
X0489050Y0132807D03*
X0481550Y0133307D03*
X0400050Y0154507D03*
X0400250Y0159407D03*
X0498850Y0213007D03*
X0501050Y0213107D03*
D18*
X0433700Y0244057D03*
X0429300Y0253557D03*
X0416900Y0275157D03*
X0433800Y0277157D03*
X0392300Y0271657D03*
X0389700Y0267157D03*
X0368300Y0268657D03*
X0358200Y0258957D03*
X0353000Y0258857D03*
X0347700Y0258857D03*
X0342400Y0258857D03*
X0342400Y0251257D03*
X0347800Y0251257D03*
X0353100Y0246557D03*
X0358200Y0241557D03*
X0368200Y0237557D03*
X0324900Y0207157D03*
X0302100Y0225157D03*
X0291900Y0233757D03*
X0294900Y0235557D03*
X0293200Y0243757D03*
X0293200Y0246557D03*
X0293100Y0249557D03*
X0290100Y0249557D03*
X0290100Y0246657D03*
X0290200Y0243757D03*
X0287100Y0243657D03*
X0287000Y0246457D03*
X0287100Y0249557D03*
X0279200Y0242057D03*
X0271300Y0240057D03*
X0266600Y0237757D03*
X0288600Y0229257D03*
X0261800Y0208557D03*
X0266100Y0206457D03*
X0270600Y0206357D03*
X0262700Y0198257D03*
X0284300Y0188557D03*
X0288500Y0194457D03*
X0292000Y0191357D03*
X0294900Y0193657D03*
X0367700Y0166657D03*
X0386500Y0169657D03*
X0390700Y0161857D03*
X0394400Y0164157D03*
X0411900Y0166257D03*
X0414100Y0159357D03*
X0420000Y0159457D03*
X0430100Y0150857D03*
X0430200Y0138457D03*
X0393900Y0126157D03*
X0390900Y0132757D03*
X0385400Y0133557D03*
X0368900Y0128657D03*
X0364400Y0125757D03*
X0359100Y0137857D03*
X0360400Y0141357D03*
X0364300Y0149757D03*
X0346400Y0144057D03*
X0325800Y0127757D03*
X0313932Y0122826D03*
X0311400Y0126757D03*
X0296200Y0123157D03*
X0284200Y0082657D03*
X0273600Y0067557D03*
X0267700Y0065957D03*
X0258600Y0068257D03*
X0251000Y0065957D03*
X0242200Y0057457D03*
X0280400Y0046257D03*
X0297400Y0057457D03*
X0282900Y0060757D03*
X0225500Y0087557D03*
X0223200Y0090257D03*
X0370500Y0184757D03*
X0445400Y0165957D03*
X0482600Y0143557D03*
X0491500Y0152957D03*
X0495400Y0156357D03*
X0494200Y0130257D03*
X0497600Y0126357D03*
X0501754Y0126510D03*
X0314100Y0254757D03*
X0310800Y0261257D03*
X0326800Y0274357D03*
X0304900Y0281657D03*
X0270600Y0264957D03*
X0267700Y0272557D03*
X0274200Y0255357D03*
X0025700Y0224557D03*
X0025800Y0291757D03*
X0024900Y0157057D03*
X0025750Y0089557D03*
D19*
X0072450Y0104707D02*
X0073250Y0105507D01*
X0073250Y0154957D01*
X0074100Y0155807D01*
X0086200Y0155807D01*
X0086255Y0155809D01*
X0086310Y0155815D01*
X0086365Y0155825D01*
X0086418Y0155838D01*
X0086471Y0155856D01*
X0086522Y0155877D01*
X0086571Y0155902D01*
X0086619Y0155930D01*
X0086664Y0155962D01*
X0086708Y0155996D01*
X0086748Y0156034D01*
X0086786Y0156074D01*
X0086820Y0156118D01*
X0086852Y0156163D01*
X0086880Y0156211D01*
X0086905Y0156260D01*
X0086926Y0156311D01*
X0086944Y0156364D01*
X0086957Y0156417D01*
X0086967Y0156472D01*
X0086973Y0156527D01*
X0086975Y0156582D01*
X0086977Y0156637D01*
X0086983Y0156692D01*
X0086993Y0156747D01*
X0087006Y0156800D01*
X0087024Y0156853D01*
X0087045Y0156904D01*
X0087070Y0156953D01*
X0087098Y0157001D01*
X0087130Y0157046D01*
X0087164Y0157090D01*
X0087202Y0157130D01*
X0087242Y0157168D01*
X0087286Y0157202D01*
X0087331Y0157234D01*
X0087379Y0157262D01*
X0087428Y0157287D01*
X0087479Y0157308D01*
X0087532Y0157326D01*
X0087585Y0157339D01*
X0087640Y0157349D01*
X0087695Y0157355D01*
X0087750Y0157357D01*
X0092870Y0157357D01*
X0092925Y0157355D01*
X0092980Y0157349D01*
X0093035Y0157339D01*
X0093088Y0157326D01*
X0093141Y0157308D01*
X0093192Y0157287D01*
X0093241Y0157262D01*
X0093289Y0157234D01*
X0093334Y0157202D01*
X0093378Y0157168D01*
X0093418Y0157130D01*
X0093456Y0157090D01*
X0093490Y0157046D01*
X0093522Y0157001D01*
X0093550Y0156953D01*
X0093575Y0156904D01*
X0093596Y0156853D01*
X0093614Y0156800D01*
X0093627Y0156747D01*
X0093637Y0156692D01*
X0093643Y0156637D01*
X0093645Y0156582D01*
X0093647Y0156527D01*
X0093653Y0156472D01*
X0093663Y0156417D01*
X0093676Y0156364D01*
X0093694Y0156311D01*
X0093715Y0156260D01*
X0093740Y0156211D01*
X0093768Y0156163D01*
X0093800Y0156118D01*
X0093834Y0156074D01*
X0093872Y0156034D01*
X0093912Y0155996D01*
X0093956Y0155962D01*
X0094001Y0155930D01*
X0094049Y0155902D01*
X0094098Y0155877D01*
X0094149Y0155856D01*
X0094202Y0155838D01*
X0094255Y0155825D01*
X0094310Y0155815D01*
X0094365Y0155809D01*
X0094420Y0155807D01*
X0116200Y0155807D01*
X0113100Y0153307D02*
X0077100Y0153307D01*
X0076500Y0152707D01*
X0076500Y0109607D01*
X0076150Y0109257D01*
X0083600Y0115257D02*
X0084000Y0115657D01*
X0084000Y0125357D01*
X0084002Y0125412D01*
X0084008Y0125467D01*
X0084018Y0125522D01*
X0084031Y0125575D01*
X0084049Y0125628D01*
X0084070Y0125679D01*
X0084095Y0125728D01*
X0084123Y0125776D01*
X0084155Y0125821D01*
X0084189Y0125865D01*
X0084227Y0125905D01*
X0084267Y0125943D01*
X0084311Y0125977D01*
X0084356Y0126009D01*
X0084404Y0126037D01*
X0084453Y0126062D01*
X0084504Y0126083D01*
X0084557Y0126101D01*
X0084610Y0126114D01*
X0084665Y0126124D01*
X0084720Y0126130D01*
X0084775Y0126132D01*
X0084941Y0126132D01*
X0084996Y0126134D01*
X0085051Y0126140D01*
X0085106Y0126150D01*
X0085159Y0126163D01*
X0085212Y0126181D01*
X0085263Y0126202D01*
X0085312Y0126227D01*
X0085360Y0126255D01*
X0085405Y0126287D01*
X0085449Y0126321D01*
X0085489Y0126359D01*
X0085527Y0126399D01*
X0085561Y0126443D01*
X0085593Y0126488D01*
X0085621Y0126536D01*
X0085646Y0126585D01*
X0085667Y0126636D01*
X0085685Y0126689D01*
X0085698Y0126742D01*
X0085708Y0126797D01*
X0085714Y0126852D01*
X0085716Y0126907D01*
X0085716Y0128197D01*
X0085714Y0128252D01*
X0085708Y0128307D01*
X0085698Y0128362D01*
X0085685Y0128415D01*
X0085667Y0128468D01*
X0085646Y0128519D01*
X0085621Y0128568D01*
X0085593Y0128616D01*
X0085561Y0128661D01*
X0085527Y0128705D01*
X0085489Y0128745D01*
X0085449Y0128783D01*
X0085405Y0128817D01*
X0085360Y0128849D01*
X0085312Y0128877D01*
X0085263Y0128902D01*
X0085212Y0128923D01*
X0085159Y0128941D01*
X0085106Y0128954D01*
X0085051Y0128964D01*
X0084996Y0128970D01*
X0084941Y0128972D01*
X0084775Y0128972D01*
X0084720Y0128974D01*
X0084665Y0128980D01*
X0084610Y0128990D01*
X0084557Y0129003D01*
X0084504Y0129021D01*
X0084453Y0129042D01*
X0084404Y0129067D01*
X0084356Y0129095D01*
X0084311Y0129127D01*
X0084267Y0129161D01*
X0084227Y0129199D01*
X0084189Y0129239D01*
X0084155Y0129283D01*
X0084123Y0129328D01*
X0084095Y0129376D01*
X0084070Y0129425D01*
X0084049Y0129476D01*
X0084031Y0129529D01*
X0084018Y0129582D01*
X0084008Y0129637D01*
X0084002Y0129692D01*
X0084000Y0129747D01*
X0084000Y0131038D01*
X0084002Y0131093D01*
X0084008Y0131148D01*
X0084018Y0131203D01*
X0084031Y0131256D01*
X0084049Y0131309D01*
X0084070Y0131360D01*
X0084095Y0131409D01*
X0084123Y0131457D01*
X0084155Y0131502D01*
X0084189Y0131546D01*
X0084227Y0131586D01*
X0084267Y0131624D01*
X0084311Y0131658D01*
X0084356Y0131690D01*
X0084404Y0131718D01*
X0084453Y0131743D01*
X0084504Y0131764D01*
X0084557Y0131782D01*
X0084610Y0131795D01*
X0084665Y0131805D01*
X0084720Y0131811D01*
X0084775Y0131813D01*
X0084941Y0131813D01*
X0084996Y0131815D01*
X0085051Y0131821D01*
X0085106Y0131831D01*
X0085159Y0131844D01*
X0085212Y0131862D01*
X0085263Y0131883D01*
X0085312Y0131908D01*
X0085360Y0131936D01*
X0085405Y0131968D01*
X0085449Y0132002D01*
X0085489Y0132040D01*
X0085527Y0132080D01*
X0085561Y0132124D01*
X0085593Y0132169D01*
X0085621Y0132217D01*
X0085646Y0132266D01*
X0085667Y0132317D01*
X0085685Y0132370D01*
X0085698Y0132423D01*
X0085708Y0132478D01*
X0085714Y0132533D01*
X0085716Y0132588D01*
X0085716Y0133879D01*
X0085714Y0133934D01*
X0085708Y0133989D01*
X0085698Y0134044D01*
X0085685Y0134097D01*
X0085667Y0134150D01*
X0085646Y0134201D01*
X0085621Y0134250D01*
X0085593Y0134298D01*
X0085561Y0134343D01*
X0085527Y0134387D01*
X0085489Y0134427D01*
X0085449Y0134465D01*
X0085405Y0134499D01*
X0085360Y0134531D01*
X0085312Y0134559D01*
X0085263Y0134584D01*
X0085212Y0134605D01*
X0085159Y0134623D01*
X0085106Y0134636D01*
X0085051Y0134646D01*
X0084996Y0134652D01*
X0084941Y0134654D01*
X0084775Y0134654D01*
X0084720Y0134656D01*
X0084665Y0134662D01*
X0084610Y0134672D01*
X0084557Y0134685D01*
X0084504Y0134703D01*
X0084453Y0134724D01*
X0084404Y0134749D01*
X0084356Y0134777D01*
X0084311Y0134809D01*
X0084267Y0134843D01*
X0084227Y0134881D01*
X0084189Y0134921D01*
X0084155Y0134965D01*
X0084123Y0135010D01*
X0084095Y0135058D01*
X0084070Y0135107D01*
X0084049Y0135158D01*
X0084031Y0135211D01*
X0084018Y0135264D01*
X0084008Y0135319D01*
X0084002Y0135374D01*
X0084000Y0135429D01*
X0084000Y0136720D01*
X0084002Y0136775D01*
X0084008Y0136830D01*
X0084018Y0136885D01*
X0084031Y0136938D01*
X0084049Y0136991D01*
X0084070Y0137042D01*
X0084095Y0137091D01*
X0084123Y0137139D01*
X0084155Y0137184D01*
X0084189Y0137228D01*
X0084227Y0137268D01*
X0084267Y0137306D01*
X0084311Y0137340D01*
X0084356Y0137372D01*
X0084404Y0137400D01*
X0084453Y0137425D01*
X0084504Y0137446D01*
X0084557Y0137464D01*
X0084610Y0137477D01*
X0084665Y0137487D01*
X0084720Y0137493D01*
X0084775Y0137495D01*
X0084941Y0137495D01*
X0084996Y0137497D01*
X0085051Y0137503D01*
X0085106Y0137513D01*
X0085159Y0137526D01*
X0085212Y0137544D01*
X0085263Y0137565D01*
X0085312Y0137590D01*
X0085360Y0137618D01*
X0085405Y0137650D01*
X0085449Y0137684D01*
X0085489Y0137722D01*
X0085527Y0137762D01*
X0085561Y0137806D01*
X0085593Y0137851D01*
X0085621Y0137899D01*
X0085646Y0137948D01*
X0085667Y0137999D01*
X0085685Y0138052D01*
X0085698Y0138105D01*
X0085708Y0138160D01*
X0085714Y0138215D01*
X0085716Y0138270D01*
X0085716Y0139560D01*
X0085714Y0139615D01*
X0085708Y0139670D01*
X0085698Y0139725D01*
X0085685Y0139778D01*
X0085667Y0139831D01*
X0085646Y0139882D01*
X0085621Y0139931D01*
X0085593Y0139979D01*
X0085561Y0140024D01*
X0085527Y0140068D01*
X0085489Y0140108D01*
X0085449Y0140146D01*
X0085405Y0140180D01*
X0085360Y0140212D01*
X0085312Y0140240D01*
X0085263Y0140265D01*
X0085212Y0140286D01*
X0085159Y0140304D01*
X0085106Y0140317D01*
X0085051Y0140327D01*
X0084996Y0140333D01*
X0084941Y0140335D01*
X0084775Y0140335D01*
X0084720Y0140337D01*
X0084665Y0140343D01*
X0084610Y0140353D01*
X0084557Y0140366D01*
X0084504Y0140384D01*
X0084453Y0140405D01*
X0084404Y0140430D01*
X0084356Y0140458D01*
X0084311Y0140490D01*
X0084267Y0140524D01*
X0084227Y0140562D01*
X0084189Y0140602D01*
X0084155Y0140646D01*
X0084123Y0140691D01*
X0084095Y0140739D01*
X0084070Y0140788D01*
X0084049Y0140839D01*
X0084031Y0140892D01*
X0084018Y0140945D01*
X0084008Y0141000D01*
X0084002Y0141055D01*
X0084000Y0141110D01*
X0084000Y0142401D01*
X0084002Y0142456D01*
X0084008Y0142511D01*
X0084018Y0142566D01*
X0084031Y0142619D01*
X0084049Y0142672D01*
X0084070Y0142723D01*
X0084095Y0142772D01*
X0084123Y0142820D01*
X0084155Y0142865D01*
X0084189Y0142909D01*
X0084227Y0142949D01*
X0084267Y0142987D01*
X0084311Y0143021D01*
X0084356Y0143053D01*
X0084404Y0143081D01*
X0084453Y0143106D01*
X0084504Y0143127D01*
X0084557Y0143145D01*
X0084610Y0143158D01*
X0084665Y0143168D01*
X0084720Y0143174D01*
X0084775Y0143176D01*
X0084941Y0143176D01*
X0084996Y0143178D01*
X0085051Y0143184D01*
X0085106Y0143194D01*
X0085159Y0143207D01*
X0085212Y0143225D01*
X0085263Y0143246D01*
X0085312Y0143271D01*
X0085360Y0143299D01*
X0085405Y0143331D01*
X0085449Y0143365D01*
X0085489Y0143403D01*
X0085527Y0143443D01*
X0085561Y0143487D01*
X0085593Y0143532D01*
X0085621Y0143580D01*
X0085646Y0143629D01*
X0085667Y0143680D01*
X0085685Y0143733D01*
X0085698Y0143786D01*
X0085708Y0143841D01*
X0085714Y0143896D01*
X0085716Y0143951D01*
X0085716Y0145242D01*
X0085714Y0145297D01*
X0085708Y0145352D01*
X0085698Y0145407D01*
X0085685Y0145460D01*
X0085667Y0145513D01*
X0085646Y0145564D01*
X0085621Y0145613D01*
X0085593Y0145661D01*
X0085561Y0145706D01*
X0085527Y0145750D01*
X0085489Y0145790D01*
X0085449Y0145828D01*
X0085405Y0145862D01*
X0085360Y0145894D01*
X0085312Y0145922D01*
X0085263Y0145947D01*
X0085212Y0145968D01*
X0085159Y0145986D01*
X0085106Y0145999D01*
X0085051Y0146009D01*
X0084996Y0146015D01*
X0084941Y0146017D01*
X0084775Y0146017D01*
X0084720Y0146019D01*
X0084665Y0146025D01*
X0084610Y0146035D01*
X0084557Y0146048D01*
X0084504Y0146066D01*
X0084453Y0146087D01*
X0084404Y0146112D01*
X0084356Y0146140D01*
X0084311Y0146172D01*
X0084267Y0146206D01*
X0084227Y0146244D01*
X0084189Y0146284D01*
X0084155Y0146328D01*
X0084123Y0146373D01*
X0084095Y0146421D01*
X0084070Y0146470D01*
X0084049Y0146521D01*
X0084031Y0146574D01*
X0084018Y0146627D01*
X0084008Y0146682D01*
X0084002Y0146737D01*
X0084000Y0146792D01*
X0084000Y0148057D01*
X0084750Y0148807D01*
X0115700Y0148807D01*
X0114300Y0146707D02*
X0114000Y0146407D01*
X0088100Y0146407D01*
X0087500Y0145807D01*
X0087500Y0130357D01*
X0089825Y0133160D02*
X0089880Y0133158D01*
X0089935Y0133152D01*
X0089990Y0133142D01*
X0090043Y0133129D01*
X0090096Y0133111D01*
X0090147Y0133090D01*
X0090196Y0133065D01*
X0090244Y0133037D01*
X0090289Y0133005D01*
X0090333Y0132971D01*
X0090373Y0132933D01*
X0090411Y0132893D01*
X0090445Y0132849D01*
X0090477Y0132804D01*
X0090505Y0132756D01*
X0090530Y0132707D01*
X0090551Y0132656D01*
X0090569Y0132603D01*
X0090582Y0132550D01*
X0090592Y0132495D01*
X0090598Y0132440D01*
X0090600Y0132385D01*
X0090600Y0125307D01*
X0097950Y0130707D02*
X0097950Y0037857D01*
X0096950Y0036857D01*
X0095250Y0042357D02*
X0095000Y0042607D01*
X0095000Y0089457D01*
X0094998Y0089512D01*
X0094992Y0089567D01*
X0094982Y0089622D01*
X0094969Y0089675D01*
X0094951Y0089728D01*
X0094930Y0089779D01*
X0094905Y0089828D01*
X0094877Y0089876D01*
X0094845Y0089921D01*
X0094811Y0089965D01*
X0094773Y0090005D01*
X0094733Y0090043D01*
X0094689Y0090077D01*
X0094644Y0090109D01*
X0094596Y0090137D01*
X0094547Y0090162D01*
X0094496Y0090183D01*
X0094443Y0090201D01*
X0094390Y0090214D01*
X0094335Y0090224D01*
X0094280Y0090230D01*
X0094225Y0090232D01*
X0091628Y0090232D01*
X0091573Y0090234D01*
X0091518Y0090240D01*
X0091463Y0090250D01*
X0091410Y0090263D01*
X0091357Y0090281D01*
X0091306Y0090302D01*
X0091257Y0090327D01*
X0091209Y0090355D01*
X0091164Y0090387D01*
X0091120Y0090421D01*
X0091080Y0090459D01*
X0091042Y0090499D01*
X0091008Y0090543D01*
X0090976Y0090588D01*
X0090948Y0090636D01*
X0090923Y0090685D01*
X0090902Y0090736D01*
X0090884Y0090789D01*
X0090871Y0090842D01*
X0090861Y0090897D01*
X0090855Y0090952D01*
X0090853Y0091007D01*
X0090853Y0093590D01*
X0090855Y0093645D01*
X0090861Y0093700D01*
X0090871Y0093755D01*
X0090884Y0093808D01*
X0090902Y0093861D01*
X0090923Y0093912D01*
X0090948Y0093961D01*
X0090976Y0094009D01*
X0091008Y0094054D01*
X0091042Y0094098D01*
X0091080Y0094138D01*
X0091120Y0094176D01*
X0091164Y0094210D01*
X0091209Y0094242D01*
X0091257Y0094270D01*
X0091306Y0094295D01*
X0091357Y0094316D01*
X0091410Y0094334D01*
X0091463Y0094347D01*
X0091518Y0094357D01*
X0091573Y0094363D01*
X0091628Y0094365D01*
X0094225Y0094365D01*
X0094280Y0094367D01*
X0094335Y0094373D01*
X0094390Y0094383D01*
X0094443Y0094396D01*
X0094496Y0094414D01*
X0094547Y0094435D01*
X0094596Y0094460D01*
X0094644Y0094488D01*
X0094689Y0094520D01*
X0094733Y0094554D01*
X0094773Y0094592D01*
X0094811Y0094632D01*
X0094845Y0094676D01*
X0094877Y0094721D01*
X0094905Y0094769D01*
X0094930Y0094818D01*
X0094951Y0094869D01*
X0094969Y0094922D01*
X0094982Y0094975D01*
X0094992Y0095030D01*
X0094998Y0095085D01*
X0095000Y0095140D01*
X0095000Y0131707D01*
X0097600Y0134307D01*
X0112450Y0134307D01*
X0114300Y0136157D01*
X0114350Y0136157D01*
X0113600Y0138707D02*
X0110050Y0136757D01*
X0105195Y0136757D01*
X0105140Y0136759D01*
X0105085Y0136765D01*
X0105030Y0136775D01*
X0104977Y0136788D01*
X0104924Y0136806D01*
X0104873Y0136827D01*
X0104824Y0136852D01*
X0104776Y0136880D01*
X0104731Y0136912D01*
X0104687Y0136946D01*
X0104647Y0136984D01*
X0104609Y0137024D01*
X0104575Y0137068D01*
X0104543Y0137113D01*
X0104515Y0137161D01*
X0104490Y0137210D01*
X0104469Y0137261D01*
X0104451Y0137314D01*
X0104438Y0137367D01*
X0104428Y0137422D01*
X0104422Y0137477D01*
X0104420Y0137532D01*
X0104420Y0138882D01*
X0104418Y0138937D01*
X0104412Y0138992D01*
X0104402Y0139047D01*
X0104389Y0139100D01*
X0104371Y0139153D01*
X0104350Y0139204D01*
X0104325Y0139253D01*
X0104297Y0139301D01*
X0104265Y0139346D01*
X0104231Y0139390D01*
X0104193Y0139430D01*
X0104153Y0139468D01*
X0104109Y0139502D01*
X0104064Y0139534D01*
X0104016Y0139562D01*
X0103967Y0139587D01*
X0103916Y0139608D01*
X0103863Y0139626D01*
X0103810Y0139639D01*
X0103755Y0139649D01*
X0103700Y0139655D01*
X0103645Y0139657D01*
X0103356Y0139657D01*
X0103301Y0139655D01*
X0103246Y0139649D01*
X0103191Y0139639D01*
X0103138Y0139626D01*
X0103085Y0139608D01*
X0103034Y0139587D01*
X0102985Y0139562D01*
X0102937Y0139534D01*
X0102892Y0139502D01*
X0102848Y0139468D01*
X0102808Y0139430D01*
X0102770Y0139390D01*
X0102736Y0139346D01*
X0102704Y0139301D01*
X0102676Y0139253D01*
X0102651Y0139204D01*
X0102630Y0139153D01*
X0102612Y0139100D01*
X0102599Y0139047D01*
X0102589Y0138992D01*
X0102583Y0138937D01*
X0102581Y0138882D01*
X0102581Y0137532D01*
X0102579Y0137477D01*
X0102573Y0137422D01*
X0102563Y0137367D01*
X0102550Y0137314D01*
X0102532Y0137261D01*
X0102511Y0137210D01*
X0102486Y0137161D01*
X0102458Y0137113D01*
X0102426Y0137068D01*
X0102392Y0137024D01*
X0102354Y0136984D01*
X0102314Y0136946D01*
X0102270Y0136912D01*
X0102225Y0136880D01*
X0102177Y0136852D01*
X0102128Y0136827D01*
X0102077Y0136806D01*
X0102024Y0136788D01*
X0101971Y0136775D01*
X0101916Y0136765D01*
X0101861Y0136759D01*
X0101806Y0136757D01*
X0101517Y0136757D01*
X0101462Y0136759D01*
X0101407Y0136765D01*
X0101352Y0136775D01*
X0101299Y0136788D01*
X0101246Y0136806D01*
X0101195Y0136827D01*
X0101146Y0136852D01*
X0101098Y0136880D01*
X0101053Y0136912D01*
X0101009Y0136946D01*
X0100969Y0136984D01*
X0100931Y0137024D01*
X0100897Y0137068D01*
X0100865Y0137113D01*
X0100837Y0137161D01*
X0100812Y0137210D01*
X0100791Y0137261D01*
X0100773Y0137314D01*
X0100760Y0137367D01*
X0100750Y0137422D01*
X0100744Y0137477D01*
X0100742Y0137532D01*
X0100742Y0138882D01*
X0100740Y0138937D01*
X0100734Y0138992D01*
X0100724Y0139047D01*
X0100711Y0139100D01*
X0100693Y0139153D01*
X0100672Y0139204D01*
X0100647Y0139253D01*
X0100619Y0139301D01*
X0100587Y0139346D01*
X0100553Y0139390D01*
X0100515Y0139430D01*
X0100475Y0139468D01*
X0100431Y0139502D01*
X0100386Y0139534D01*
X0100338Y0139562D01*
X0100289Y0139587D01*
X0100238Y0139608D01*
X0100185Y0139626D01*
X0100132Y0139639D01*
X0100077Y0139649D01*
X0100022Y0139655D01*
X0099967Y0139657D01*
X0099678Y0139657D01*
X0099623Y0139655D01*
X0099568Y0139649D01*
X0099513Y0139639D01*
X0099460Y0139626D01*
X0099407Y0139608D01*
X0099356Y0139587D01*
X0099307Y0139562D01*
X0099259Y0139534D01*
X0099214Y0139502D01*
X0099170Y0139468D01*
X0099130Y0139430D01*
X0099092Y0139390D01*
X0099058Y0139346D01*
X0099026Y0139301D01*
X0098998Y0139253D01*
X0098973Y0139204D01*
X0098952Y0139153D01*
X0098934Y0139100D01*
X0098921Y0139047D01*
X0098911Y0138992D01*
X0098905Y0138937D01*
X0098903Y0138882D01*
X0098903Y0137532D01*
X0098901Y0137477D01*
X0098895Y0137422D01*
X0098885Y0137367D01*
X0098872Y0137314D01*
X0098854Y0137261D01*
X0098833Y0137210D01*
X0098808Y0137161D01*
X0098780Y0137113D01*
X0098748Y0137068D01*
X0098714Y0137024D01*
X0098676Y0136984D01*
X0098636Y0136946D01*
X0098592Y0136912D01*
X0098547Y0136880D01*
X0098499Y0136852D01*
X0098450Y0136827D01*
X0098399Y0136806D01*
X0098346Y0136788D01*
X0098293Y0136775D01*
X0098238Y0136765D01*
X0098183Y0136759D01*
X0098128Y0136757D01*
X0097839Y0136757D01*
X0097784Y0136759D01*
X0097729Y0136765D01*
X0097674Y0136775D01*
X0097621Y0136788D01*
X0097568Y0136806D01*
X0097517Y0136827D01*
X0097468Y0136852D01*
X0097420Y0136880D01*
X0097375Y0136912D01*
X0097331Y0136946D01*
X0097291Y0136984D01*
X0097253Y0137024D01*
X0097219Y0137068D01*
X0097187Y0137113D01*
X0097159Y0137161D01*
X0097134Y0137210D01*
X0097113Y0137261D01*
X0097095Y0137314D01*
X0097082Y0137367D01*
X0097072Y0137422D01*
X0097066Y0137477D01*
X0097064Y0137532D01*
X0097064Y0138882D01*
X0097062Y0138937D01*
X0097056Y0138992D01*
X0097046Y0139047D01*
X0097033Y0139100D01*
X0097015Y0139153D01*
X0096994Y0139204D01*
X0096969Y0139253D01*
X0096941Y0139301D01*
X0096909Y0139346D01*
X0096875Y0139390D01*
X0096837Y0139430D01*
X0096797Y0139468D01*
X0096753Y0139502D01*
X0096708Y0139534D01*
X0096660Y0139562D01*
X0096611Y0139587D01*
X0096560Y0139608D01*
X0096507Y0139626D01*
X0096454Y0139639D01*
X0096399Y0139649D01*
X0096344Y0139655D01*
X0096289Y0139657D01*
X0096000Y0139657D01*
X0095945Y0139655D01*
X0095890Y0139649D01*
X0095835Y0139639D01*
X0095782Y0139626D01*
X0095729Y0139608D01*
X0095678Y0139587D01*
X0095629Y0139562D01*
X0095581Y0139534D01*
X0095536Y0139502D01*
X0095492Y0139468D01*
X0095452Y0139430D01*
X0095414Y0139390D01*
X0095380Y0139346D01*
X0095348Y0139301D01*
X0095320Y0139253D01*
X0095295Y0139204D01*
X0095274Y0139153D01*
X0095256Y0139100D01*
X0095243Y0139047D01*
X0095233Y0138992D01*
X0095227Y0138937D01*
X0095225Y0138882D01*
X0095225Y0137532D01*
X0095223Y0137477D01*
X0095217Y0137422D01*
X0095207Y0137367D01*
X0095194Y0137314D01*
X0095176Y0137261D01*
X0095155Y0137210D01*
X0095130Y0137161D01*
X0095102Y0137113D01*
X0095070Y0137068D01*
X0095036Y0137024D01*
X0094998Y0136984D01*
X0094958Y0136946D01*
X0094914Y0136912D01*
X0094869Y0136880D01*
X0094821Y0136852D01*
X0094772Y0136827D01*
X0094721Y0136806D01*
X0094668Y0136788D01*
X0094615Y0136775D01*
X0094560Y0136765D01*
X0094505Y0136759D01*
X0094450Y0136757D01*
X0090600Y0135973D02*
X0090600Y0135729D01*
X0090598Y0135674D01*
X0090592Y0135619D01*
X0090582Y0135564D01*
X0090569Y0135511D01*
X0090551Y0135458D01*
X0090530Y0135407D01*
X0090505Y0135358D01*
X0090477Y0135310D01*
X0090445Y0135265D01*
X0090411Y0135221D01*
X0090373Y0135181D01*
X0090333Y0135143D01*
X0090289Y0135109D01*
X0090244Y0135077D01*
X0090196Y0135049D01*
X0090147Y0135024D01*
X0090096Y0135003D01*
X0090043Y0134985D01*
X0089990Y0134972D01*
X0089935Y0134962D01*
X0089880Y0134956D01*
X0089825Y0134954D01*
X0089770Y0134952D01*
X0089715Y0134946D01*
X0089660Y0134936D01*
X0089607Y0134923D01*
X0089554Y0134905D01*
X0089503Y0134884D01*
X0089454Y0134859D01*
X0089406Y0134831D01*
X0089361Y0134799D01*
X0089317Y0134765D01*
X0089277Y0134727D01*
X0089239Y0134687D01*
X0089205Y0134643D01*
X0089173Y0134598D01*
X0089145Y0134550D01*
X0089120Y0134501D01*
X0089099Y0134450D01*
X0089081Y0134397D01*
X0089068Y0134344D01*
X0089058Y0134289D01*
X0089052Y0134234D01*
X0089050Y0134179D01*
X0089050Y0133935D01*
X0089052Y0133880D01*
X0089058Y0133825D01*
X0089068Y0133770D01*
X0089081Y0133717D01*
X0089099Y0133664D01*
X0089120Y0133613D01*
X0089145Y0133564D01*
X0089173Y0133516D01*
X0089205Y0133471D01*
X0089239Y0133427D01*
X0089277Y0133387D01*
X0089317Y0133349D01*
X0089361Y0133315D01*
X0089406Y0133283D01*
X0089454Y0133255D01*
X0089503Y0133230D01*
X0089554Y0133209D01*
X0089607Y0133191D01*
X0089660Y0133178D01*
X0089715Y0133168D01*
X0089770Y0133162D01*
X0089825Y0133160D01*
X0090600Y0135973D02*
X0090598Y0136028D01*
X0090592Y0136083D01*
X0090582Y0136138D01*
X0090569Y0136191D01*
X0090551Y0136244D01*
X0090530Y0136295D01*
X0090505Y0136344D01*
X0090477Y0136392D01*
X0090445Y0136437D01*
X0090411Y0136481D01*
X0090373Y0136521D01*
X0090333Y0136559D01*
X0090289Y0136593D01*
X0090244Y0136625D01*
X0090196Y0136653D01*
X0090147Y0136678D01*
X0090096Y0136699D01*
X0090043Y0136717D01*
X0089990Y0136730D01*
X0089935Y0136740D01*
X0089880Y0136746D01*
X0089825Y0136748D01*
X0089770Y0136750D01*
X0089715Y0136756D01*
X0089660Y0136766D01*
X0089607Y0136779D01*
X0089554Y0136797D01*
X0089503Y0136818D01*
X0089454Y0136843D01*
X0089406Y0136871D01*
X0089361Y0136903D01*
X0089317Y0136937D01*
X0089277Y0136975D01*
X0089239Y0137015D01*
X0089205Y0137059D01*
X0089173Y0137104D01*
X0089145Y0137152D01*
X0089120Y0137201D01*
X0089099Y0137252D01*
X0089081Y0137305D01*
X0089068Y0137358D01*
X0089058Y0137413D01*
X0089052Y0137468D01*
X0089050Y0137523D01*
X0089050Y0137768D01*
X0089052Y0137823D01*
X0089058Y0137878D01*
X0089068Y0137933D01*
X0089081Y0137986D01*
X0089099Y0138039D01*
X0089120Y0138090D01*
X0089145Y0138139D01*
X0089173Y0138187D01*
X0089205Y0138232D01*
X0089239Y0138276D01*
X0089277Y0138316D01*
X0089317Y0138354D01*
X0089361Y0138388D01*
X0089406Y0138420D01*
X0089454Y0138448D01*
X0089503Y0138473D01*
X0089554Y0138494D01*
X0089607Y0138512D01*
X0089660Y0138525D01*
X0089715Y0138535D01*
X0089770Y0138541D01*
X0089825Y0138543D01*
X0089880Y0138545D01*
X0089935Y0138551D01*
X0089990Y0138561D01*
X0090043Y0138574D01*
X0090096Y0138592D01*
X0090147Y0138613D01*
X0090196Y0138638D01*
X0090244Y0138666D01*
X0090289Y0138698D01*
X0090333Y0138732D01*
X0090373Y0138770D01*
X0090411Y0138810D01*
X0090445Y0138854D01*
X0090477Y0138899D01*
X0090505Y0138947D01*
X0090530Y0138996D01*
X0090551Y0139047D01*
X0090569Y0139100D01*
X0090582Y0139153D01*
X0090592Y0139208D01*
X0090598Y0139263D01*
X0090600Y0139318D01*
X0090600Y0139562D01*
X0090598Y0139617D01*
X0090592Y0139672D01*
X0090582Y0139727D01*
X0090569Y0139780D01*
X0090551Y0139833D01*
X0090530Y0139884D01*
X0090505Y0139933D01*
X0090477Y0139981D01*
X0090445Y0140026D01*
X0090411Y0140070D01*
X0090373Y0140110D01*
X0090333Y0140148D01*
X0090289Y0140182D01*
X0090244Y0140214D01*
X0090196Y0140242D01*
X0090147Y0140267D01*
X0090096Y0140288D01*
X0090043Y0140306D01*
X0089990Y0140319D01*
X0089935Y0140329D01*
X0089880Y0140335D01*
X0089825Y0140337D01*
X0089770Y0140339D01*
X0089715Y0140345D01*
X0089660Y0140355D01*
X0089607Y0140368D01*
X0089554Y0140386D01*
X0089503Y0140407D01*
X0089454Y0140432D01*
X0089406Y0140460D01*
X0089361Y0140492D01*
X0089317Y0140526D01*
X0089277Y0140564D01*
X0089239Y0140604D01*
X0089205Y0140648D01*
X0089173Y0140693D01*
X0089145Y0140741D01*
X0089120Y0140790D01*
X0089099Y0140841D01*
X0089081Y0140894D01*
X0089068Y0140947D01*
X0089058Y0141002D01*
X0089052Y0141057D01*
X0089050Y0141112D01*
X0089050Y0141357D01*
X0089052Y0141412D01*
X0089058Y0141467D01*
X0089068Y0141522D01*
X0089081Y0141575D01*
X0089099Y0141628D01*
X0089120Y0141679D01*
X0089145Y0141728D01*
X0089173Y0141776D01*
X0089205Y0141821D01*
X0089239Y0141865D01*
X0089277Y0141905D01*
X0089317Y0141943D01*
X0089361Y0141977D01*
X0089406Y0142009D01*
X0089454Y0142037D01*
X0089503Y0142062D01*
X0089554Y0142083D01*
X0089607Y0142101D01*
X0089660Y0142114D01*
X0089715Y0142124D01*
X0089770Y0142130D01*
X0089825Y0142132D01*
X0089880Y0142134D01*
X0089935Y0142140D01*
X0089990Y0142150D01*
X0090043Y0142163D01*
X0090096Y0142181D01*
X0090147Y0142202D01*
X0090196Y0142227D01*
X0090244Y0142255D01*
X0090289Y0142287D01*
X0090333Y0142321D01*
X0090373Y0142359D01*
X0090411Y0142399D01*
X0090445Y0142443D01*
X0090477Y0142488D01*
X0090505Y0142536D01*
X0090530Y0142585D01*
X0090551Y0142636D01*
X0090569Y0142689D01*
X0090582Y0142742D01*
X0090592Y0142797D01*
X0090598Y0142852D01*
X0090600Y0142907D01*
X0091500Y0143807D01*
X0112250Y0143807D01*
X0114550Y0141557D02*
X0114350Y0141357D01*
X0094100Y0141357D01*
X0082100Y0141995D02*
X0082100Y0142003D01*
X0082098Y0142058D01*
X0082092Y0142113D01*
X0082082Y0142168D01*
X0082069Y0142221D01*
X0082051Y0142274D01*
X0082030Y0142325D01*
X0082005Y0142374D01*
X0081977Y0142422D01*
X0081945Y0142467D01*
X0081911Y0142511D01*
X0081873Y0142551D01*
X0081833Y0142589D01*
X0081789Y0142623D01*
X0081744Y0142655D01*
X0081696Y0142683D01*
X0081647Y0142708D01*
X0081596Y0142729D01*
X0081543Y0142747D01*
X0081490Y0142760D01*
X0081435Y0142770D01*
X0081380Y0142776D01*
X0081325Y0142778D01*
X0079775Y0142778D01*
X0079720Y0142780D01*
X0079665Y0142786D01*
X0079610Y0142796D01*
X0079557Y0142809D01*
X0079504Y0142827D01*
X0079453Y0142848D01*
X0079404Y0142873D01*
X0079356Y0142901D01*
X0079311Y0142933D01*
X0079267Y0142967D01*
X0079227Y0143005D01*
X0079189Y0143045D01*
X0079155Y0143089D01*
X0079123Y0143134D01*
X0079095Y0143182D01*
X0079070Y0143231D01*
X0079049Y0143282D01*
X0079031Y0143335D01*
X0079018Y0143388D01*
X0079008Y0143443D01*
X0079002Y0143498D01*
X0079000Y0143553D01*
X0079000Y0143561D01*
X0079002Y0143616D01*
X0079008Y0143671D01*
X0079018Y0143726D01*
X0079031Y0143779D01*
X0079049Y0143832D01*
X0079070Y0143883D01*
X0079095Y0143932D01*
X0079123Y0143980D01*
X0079155Y0144025D01*
X0079189Y0144069D01*
X0079227Y0144109D01*
X0079267Y0144147D01*
X0079311Y0144181D01*
X0079356Y0144213D01*
X0079404Y0144241D01*
X0079453Y0144266D01*
X0079504Y0144287D01*
X0079557Y0144305D01*
X0079610Y0144318D01*
X0079665Y0144328D01*
X0079720Y0144334D01*
X0079775Y0144336D01*
X0079830Y0144338D01*
X0079885Y0144344D01*
X0079940Y0144354D01*
X0079993Y0144367D01*
X0080046Y0144385D01*
X0080097Y0144406D01*
X0080146Y0144431D01*
X0080194Y0144459D01*
X0080239Y0144491D01*
X0080283Y0144525D01*
X0080323Y0144563D01*
X0080361Y0144603D01*
X0080395Y0144647D01*
X0080427Y0144692D01*
X0080455Y0144740D01*
X0080480Y0144789D01*
X0080501Y0144840D01*
X0080519Y0144893D01*
X0080532Y0144946D01*
X0080542Y0145001D01*
X0080548Y0145056D01*
X0080550Y0145111D01*
X0080550Y0150157D01*
X0081450Y0151057D01*
X0114500Y0151057D01*
X0115150Y0151707D01*
X0115050Y0151457D01*
X0111050Y0158007D02*
X0100300Y0158007D01*
X0076850Y0181457D01*
X0076850Y0206907D01*
X0076750Y0207007D01*
X0079800Y0201657D02*
X0079850Y0201607D01*
X0079850Y0182257D01*
X0101700Y0160407D01*
X0114300Y0160407D01*
X0112600Y0162057D02*
X0103100Y0162057D01*
X0082800Y0182357D01*
X0082800Y0191357D01*
X0082200Y0191957D01*
X0085050Y0193532D02*
X0085050Y0193694D01*
X0085052Y0193749D01*
X0085058Y0193804D01*
X0085068Y0193859D01*
X0085081Y0193912D01*
X0085099Y0193965D01*
X0085120Y0194016D01*
X0085145Y0194065D01*
X0085173Y0194113D01*
X0085205Y0194158D01*
X0085239Y0194202D01*
X0085277Y0194242D01*
X0085317Y0194280D01*
X0085361Y0194314D01*
X0085406Y0194346D01*
X0085454Y0194374D01*
X0085503Y0194399D01*
X0085554Y0194420D01*
X0085607Y0194438D01*
X0085660Y0194451D01*
X0085715Y0194461D01*
X0085770Y0194467D01*
X0085825Y0194469D01*
X0088909Y0194469D01*
X0088964Y0194471D01*
X0089019Y0194477D01*
X0089074Y0194487D01*
X0089127Y0194500D01*
X0089180Y0194518D01*
X0089231Y0194539D01*
X0089280Y0194564D01*
X0089328Y0194592D01*
X0089373Y0194624D01*
X0089417Y0194658D01*
X0089457Y0194696D01*
X0089495Y0194736D01*
X0089529Y0194780D01*
X0089561Y0194825D01*
X0089589Y0194873D01*
X0089614Y0194922D01*
X0089635Y0194973D01*
X0089653Y0195026D01*
X0089666Y0195079D01*
X0089676Y0195134D01*
X0089682Y0195189D01*
X0089684Y0195244D01*
X0089684Y0195407D01*
X0089682Y0195462D01*
X0089676Y0195517D01*
X0089666Y0195572D01*
X0089653Y0195625D01*
X0089635Y0195678D01*
X0089614Y0195729D01*
X0089589Y0195778D01*
X0089561Y0195826D01*
X0089529Y0195871D01*
X0089495Y0195915D01*
X0089457Y0195955D01*
X0089417Y0195993D01*
X0089373Y0196027D01*
X0089328Y0196059D01*
X0089280Y0196087D01*
X0089231Y0196112D01*
X0089180Y0196133D01*
X0089127Y0196151D01*
X0089074Y0196164D01*
X0089019Y0196174D01*
X0088964Y0196180D01*
X0088909Y0196182D01*
X0085825Y0196182D01*
X0085783Y0196155D01*
X0085739Y0196131D01*
X0085693Y0196111D01*
X0085647Y0196093D01*
X0085599Y0196079D01*
X0085550Y0196068D01*
X0085500Y0196061D01*
X0085451Y0196057D01*
X0085401Y0196057D01*
X0085351Y0196061D01*
X0085301Y0196068D01*
X0085252Y0196079D01*
X0085205Y0196093D01*
X0085158Y0196110D01*
X0085112Y0196131D01*
X0085068Y0196155D01*
X0085026Y0196182D01*
X0084986Y0196212D01*
X0084948Y0196244D01*
X0084913Y0196280D01*
X0084880Y0196317D01*
X0084850Y0196357D01*
X0084950Y0196257D01*
X0085050Y0193532D02*
X0085052Y0193477D01*
X0085058Y0193422D01*
X0085068Y0193367D01*
X0085081Y0193314D01*
X0085099Y0193261D01*
X0085120Y0193210D01*
X0085145Y0193161D01*
X0085173Y0193113D01*
X0085205Y0193068D01*
X0085239Y0193024D01*
X0085277Y0192984D01*
X0085317Y0192946D01*
X0085361Y0192912D01*
X0085406Y0192880D01*
X0085454Y0192852D01*
X0085503Y0192827D01*
X0085554Y0192806D01*
X0085607Y0192788D01*
X0085660Y0192775D01*
X0085715Y0192765D01*
X0085770Y0192759D01*
X0085825Y0192757D01*
X0088909Y0192757D01*
X0088964Y0192755D01*
X0089019Y0192749D01*
X0089074Y0192739D01*
X0089127Y0192726D01*
X0089180Y0192708D01*
X0089231Y0192687D01*
X0089280Y0192662D01*
X0089328Y0192634D01*
X0089373Y0192602D01*
X0089417Y0192568D01*
X0089457Y0192530D01*
X0089495Y0192490D01*
X0089529Y0192446D01*
X0089561Y0192401D01*
X0089589Y0192353D01*
X0089614Y0192304D01*
X0089635Y0192253D01*
X0089653Y0192200D01*
X0089666Y0192147D01*
X0089676Y0192092D01*
X0089682Y0192037D01*
X0089684Y0191982D01*
X0089684Y0191819D01*
X0089682Y0191764D01*
X0089676Y0191709D01*
X0089666Y0191654D01*
X0089653Y0191601D01*
X0089635Y0191548D01*
X0089614Y0191497D01*
X0089589Y0191448D01*
X0089561Y0191400D01*
X0089529Y0191355D01*
X0089495Y0191311D01*
X0089457Y0191271D01*
X0089417Y0191233D01*
X0089373Y0191199D01*
X0089328Y0191167D01*
X0089280Y0191139D01*
X0089231Y0191114D01*
X0089180Y0191093D01*
X0089127Y0191075D01*
X0089074Y0191062D01*
X0089019Y0191052D01*
X0088964Y0191046D01*
X0088909Y0191044D01*
X0085825Y0191044D01*
X0085770Y0191042D01*
X0085715Y0191036D01*
X0085660Y0191026D01*
X0085607Y0191013D01*
X0085554Y0190995D01*
X0085503Y0190974D01*
X0085454Y0190949D01*
X0085406Y0190921D01*
X0085361Y0190889D01*
X0085317Y0190855D01*
X0085277Y0190817D01*
X0085239Y0190777D01*
X0085205Y0190733D01*
X0085173Y0190688D01*
X0085145Y0190640D01*
X0085120Y0190591D01*
X0085099Y0190540D01*
X0085081Y0190487D01*
X0085068Y0190434D01*
X0085058Y0190379D01*
X0085052Y0190324D01*
X0085050Y0190269D01*
X0085050Y0182957D01*
X0103100Y0164907D01*
X0118000Y0164907D01*
X0113850Y0166707D02*
X0104850Y0166707D01*
X0094800Y0176757D01*
X0094762Y0176797D01*
X0094728Y0176841D01*
X0094696Y0176886D01*
X0094668Y0176934D01*
X0094643Y0176983D01*
X0094622Y0177034D01*
X0094604Y0177087D01*
X0094591Y0177140D01*
X0094581Y0177195D01*
X0094575Y0177250D01*
X0094573Y0177305D01*
X0094575Y0177360D01*
X0094581Y0177415D01*
X0094591Y0177470D01*
X0094604Y0177523D01*
X0094622Y0177576D01*
X0094643Y0177627D01*
X0094668Y0177676D01*
X0094696Y0177724D01*
X0094728Y0177769D01*
X0094762Y0177813D01*
X0094800Y0177853D01*
X0096104Y0179157D01*
X0096142Y0179197D01*
X0096176Y0179241D01*
X0096208Y0179286D01*
X0096236Y0179334D01*
X0096261Y0179383D01*
X0096282Y0179434D01*
X0096300Y0179487D01*
X0096313Y0179540D01*
X0096323Y0179595D01*
X0096329Y0179650D01*
X0096331Y0179705D01*
X0096329Y0179760D01*
X0096323Y0179815D01*
X0096313Y0179870D01*
X0096300Y0179923D01*
X0096282Y0179976D01*
X0096261Y0180027D01*
X0096236Y0180076D01*
X0096208Y0180124D01*
X0096176Y0180169D01*
X0096142Y0180213D01*
X0096104Y0180253D01*
X0095417Y0180940D01*
X0095377Y0180978D01*
X0095333Y0181012D01*
X0095288Y0181044D01*
X0095240Y0181072D01*
X0095191Y0181097D01*
X0095140Y0181118D01*
X0095087Y0181136D01*
X0095034Y0181149D01*
X0094979Y0181159D01*
X0094924Y0181165D01*
X0094869Y0181167D01*
X0094814Y0181165D01*
X0094759Y0181159D01*
X0094704Y0181149D01*
X0094651Y0181136D01*
X0094598Y0181118D01*
X0094547Y0181097D01*
X0094498Y0181072D01*
X0094450Y0181044D01*
X0094405Y0181012D01*
X0094361Y0180978D01*
X0094321Y0180940D01*
X0093017Y0179636D01*
X0092977Y0179598D01*
X0092933Y0179564D01*
X0092888Y0179532D01*
X0092840Y0179504D01*
X0092791Y0179479D01*
X0092740Y0179458D01*
X0092687Y0179440D01*
X0092634Y0179427D01*
X0092579Y0179417D01*
X0092524Y0179411D01*
X0092469Y0179409D01*
X0092414Y0179411D01*
X0092359Y0179417D01*
X0092304Y0179427D01*
X0092251Y0179440D01*
X0092198Y0179458D01*
X0092147Y0179479D01*
X0092098Y0179504D01*
X0092050Y0179532D01*
X0092005Y0179564D01*
X0091961Y0179598D01*
X0091921Y0179636D01*
X0089600Y0181957D01*
X0093500Y0185057D02*
X0093500Y0220007D01*
X0087450Y0225857D02*
X0087450Y0263407D01*
X0087550Y0263507D01*
X0097150Y0267207D02*
X0097150Y0185507D01*
X0108050Y0174607D01*
X0109400Y0174607D01*
X0109450Y0174657D01*
X0109750Y0177857D02*
X0110750Y0177857D01*
X0110800Y0177807D01*
X0109750Y0177857D02*
X0100950Y0186657D01*
X0100950Y0258007D01*
X0093150Y0252357D02*
X0092350Y0253157D01*
X0093150Y0252357D02*
X0093150Y0246589D01*
X0093148Y0246534D01*
X0093142Y0246479D01*
X0093132Y0246424D01*
X0093119Y0246371D01*
X0093101Y0246318D01*
X0093080Y0246267D01*
X0093055Y0246218D01*
X0093027Y0246170D01*
X0092995Y0246125D01*
X0092961Y0246081D01*
X0092923Y0246041D01*
X0092883Y0246003D01*
X0092839Y0245969D01*
X0092794Y0245937D01*
X0092746Y0245909D01*
X0092697Y0245884D01*
X0092646Y0245863D01*
X0092593Y0245845D01*
X0092540Y0245832D01*
X0092485Y0245822D01*
X0092430Y0245816D01*
X0092375Y0245814D01*
X0091799Y0245814D01*
X0091744Y0245812D01*
X0091689Y0245806D01*
X0091634Y0245796D01*
X0091581Y0245783D01*
X0091528Y0245765D01*
X0091477Y0245744D01*
X0091428Y0245719D01*
X0091380Y0245691D01*
X0091335Y0245659D01*
X0091291Y0245625D01*
X0091251Y0245587D01*
X0091213Y0245547D01*
X0091179Y0245503D01*
X0091147Y0245458D01*
X0091119Y0245410D01*
X0091094Y0245361D01*
X0091073Y0245310D01*
X0091055Y0245257D01*
X0091042Y0245204D01*
X0091032Y0245149D01*
X0091026Y0245094D01*
X0091024Y0245039D01*
X0091024Y0244652D01*
X0091026Y0244597D01*
X0091032Y0244542D01*
X0091042Y0244487D01*
X0091055Y0244434D01*
X0091073Y0244381D01*
X0091094Y0244330D01*
X0091119Y0244281D01*
X0091147Y0244233D01*
X0091179Y0244188D01*
X0091213Y0244144D01*
X0091251Y0244104D01*
X0091291Y0244066D01*
X0091335Y0244032D01*
X0091380Y0244000D01*
X0091428Y0243972D01*
X0091477Y0243947D01*
X0091528Y0243926D01*
X0091581Y0243908D01*
X0091634Y0243895D01*
X0091689Y0243885D01*
X0091744Y0243879D01*
X0091799Y0243877D01*
X0092375Y0243877D01*
X0092430Y0243875D01*
X0092485Y0243869D01*
X0092540Y0243859D01*
X0092593Y0243846D01*
X0092646Y0243828D01*
X0092697Y0243807D01*
X0092746Y0243782D01*
X0092794Y0243754D01*
X0092839Y0243722D01*
X0092883Y0243688D01*
X0092923Y0243650D01*
X0092961Y0243610D01*
X0092995Y0243566D01*
X0093027Y0243521D01*
X0093055Y0243473D01*
X0093080Y0243424D01*
X0093101Y0243373D01*
X0093119Y0243320D01*
X0093132Y0243267D01*
X0093142Y0243212D01*
X0093148Y0243157D01*
X0093150Y0243102D01*
X0093150Y0242716D01*
X0093148Y0242661D01*
X0093142Y0242606D01*
X0093132Y0242551D01*
X0093119Y0242498D01*
X0093101Y0242445D01*
X0093080Y0242394D01*
X0093055Y0242345D01*
X0093027Y0242297D01*
X0092995Y0242252D01*
X0092961Y0242208D01*
X0092923Y0242168D01*
X0092883Y0242130D01*
X0092839Y0242096D01*
X0092794Y0242064D01*
X0092746Y0242036D01*
X0092697Y0242011D01*
X0092646Y0241990D01*
X0092593Y0241972D01*
X0092540Y0241959D01*
X0092485Y0241949D01*
X0092430Y0241943D01*
X0092375Y0241941D01*
X0091799Y0241941D01*
X0091744Y0241939D01*
X0091689Y0241933D01*
X0091634Y0241923D01*
X0091581Y0241910D01*
X0091528Y0241892D01*
X0091477Y0241871D01*
X0091428Y0241846D01*
X0091380Y0241818D01*
X0091335Y0241786D01*
X0091291Y0241752D01*
X0091251Y0241714D01*
X0091213Y0241674D01*
X0091179Y0241630D01*
X0091147Y0241585D01*
X0091119Y0241537D01*
X0091094Y0241488D01*
X0091073Y0241437D01*
X0091055Y0241384D01*
X0091042Y0241331D01*
X0091032Y0241276D01*
X0091026Y0241221D01*
X0091024Y0241166D01*
X0091024Y0240780D01*
X0091026Y0240725D01*
X0091032Y0240670D01*
X0091042Y0240615D01*
X0091055Y0240562D01*
X0091073Y0240509D01*
X0091094Y0240458D01*
X0091119Y0240409D01*
X0091147Y0240361D01*
X0091179Y0240316D01*
X0091213Y0240272D01*
X0091251Y0240232D01*
X0091291Y0240194D01*
X0091335Y0240160D01*
X0091380Y0240128D01*
X0091428Y0240100D01*
X0091477Y0240075D01*
X0091528Y0240054D01*
X0091581Y0240036D01*
X0091634Y0240023D01*
X0091689Y0240013D01*
X0091744Y0240007D01*
X0091799Y0240005D01*
X0092375Y0240005D01*
X0092430Y0240003D01*
X0092485Y0239997D01*
X0092540Y0239987D01*
X0092593Y0239974D01*
X0092646Y0239956D01*
X0092697Y0239935D01*
X0092746Y0239910D01*
X0092794Y0239882D01*
X0092839Y0239850D01*
X0092883Y0239816D01*
X0092923Y0239778D01*
X0092961Y0239738D01*
X0092995Y0239694D01*
X0093027Y0239649D01*
X0093055Y0239601D01*
X0093080Y0239552D01*
X0093101Y0239501D01*
X0093119Y0239448D01*
X0093132Y0239395D01*
X0093142Y0239340D01*
X0093148Y0239285D01*
X0093150Y0239230D01*
X0093150Y0238843D01*
X0093148Y0238788D01*
X0093142Y0238733D01*
X0093132Y0238678D01*
X0093119Y0238625D01*
X0093101Y0238572D01*
X0093080Y0238521D01*
X0093055Y0238472D01*
X0093027Y0238424D01*
X0092995Y0238379D01*
X0092961Y0238335D01*
X0092923Y0238295D01*
X0092883Y0238257D01*
X0092839Y0238223D01*
X0092794Y0238191D01*
X0092746Y0238163D01*
X0092697Y0238138D01*
X0092646Y0238117D01*
X0092593Y0238099D01*
X0092540Y0238086D01*
X0092485Y0238076D01*
X0092430Y0238070D01*
X0092375Y0238068D01*
X0091799Y0238068D01*
X0091744Y0238066D01*
X0091689Y0238060D01*
X0091634Y0238050D01*
X0091581Y0238037D01*
X0091528Y0238019D01*
X0091477Y0237998D01*
X0091428Y0237973D01*
X0091380Y0237945D01*
X0091335Y0237913D01*
X0091291Y0237879D01*
X0091251Y0237841D01*
X0091213Y0237801D01*
X0091179Y0237757D01*
X0091147Y0237712D01*
X0091119Y0237664D01*
X0091094Y0237615D01*
X0091073Y0237564D01*
X0091055Y0237511D01*
X0091042Y0237458D01*
X0091032Y0237403D01*
X0091026Y0237348D01*
X0091024Y0237293D01*
X0091024Y0236907D01*
X0091026Y0236852D01*
X0091032Y0236797D01*
X0091042Y0236742D01*
X0091055Y0236689D01*
X0091073Y0236636D01*
X0091094Y0236585D01*
X0091119Y0236536D01*
X0091147Y0236488D01*
X0091179Y0236443D01*
X0091213Y0236399D01*
X0091251Y0236359D01*
X0091291Y0236321D01*
X0091335Y0236287D01*
X0091380Y0236255D01*
X0091428Y0236227D01*
X0091477Y0236202D01*
X0091528Y0236181D01*
X0091581Y0236163D01*
X0091634Y0236150D01*
X0091689Y0236140D01*
X0091744Y0236134D01*
X0091799Y0236132D01*
X0092375Y0236132D01*
X0092430Y0236130D01*
X0092485Y0236124D01*
X0092540Y0236114D01*
X0092593Y0236101D01*
X0092646Y0236083D01*
X0092697Y0236062D01*
X0092746Y0236037D01*
X0092794Y0236009D01*
X0092839Y0235977D01*
X0092883Y0235943D01*
X0092923Y0235905D01*
X0092961Y0235865D01*
X0092995Y0235821D01*
X0093027Y0235776D01*
X0093055Y0235728D01*
X0093080Y0235679D01*
X0093101Y0235628D01*
X0093119Y0235575D01*
X0093132Y0235522D01*
X0093142Y0235467D01*
X0093148Y0235412D01*
X0093150Y0235357D01*
X0093150Y0230707D01*
X0105400Y0224857D02*
X0105650Y0224607D01*
X0105650Y0186707D01*
X0109350Y0187257D02*
X0109350Y0228507D01*
X0107750Y0230107D01*
X0111600Y0231407D02*
X0104850Y0238157D01*
X0104850Y0247907D01*
X0108500Y0245257D02*
X0108600Y0245157D01*
X0121450Y0245157D01*
X0126650Y0239957D01*
X0126650Y0182557D01*
X0128250Y0180957D01*
X0128300Y0180907D01*
X0125100Y0180957D02*
X0123450Y0179007D01*
X0117600Y0179007D01*
X0109350Y0187257D01*
X0111600Y0187757D02*
X0111600Y0231407D01*
X0114900Y0236307D02*
X0112500Y0238707D01*
X0111500Y0238707D01*
X0114900Y0236307D02*
X0114900Y0188057D01*
X0118850Y0184107D01*
X0121950Y0184107D01*
X0122000Y0180957D02*
X0118400Y0180957D01*
X0111600Y0187757D01*
X0118500Y0190607D02*
X0118500Y0230707D01*
X0123500Y0230607D02*
X0123500Y0188957D01*
X0123550Y0188907D01*
X0120350Y0188757D02*
X0118500Y0190607D01*
X0134250Y0188457D02*
X0135600Y0189807D01*
X0135600Y0230707D01*
X0139800Y0225857D02*
X0142400Y0228457D01*
X0195400Y0228457D01*
X0197900Y0230957D01*
X0197900Y0239557D01*
X0207900Y0239557D02*
X0207900Y0227957D01*
X0205900Y0225957D01*
X0144700Y0225957D01*
X0141800Y0223057D01*
X0141800Y0185057D01*
X0140800Y0184057D01*
X0139800Y0186157D02*
X0139800Y0225857D01*
X0145600Y0220457D02*
X0149200Y0223857D01*
X0215900Y0223857D01*
X0217800Y0225757D01*
X0217800Y0239457D01*
X0227700Y0239357D02*
X0227700Y0226057D01*
X0223300Y0221657D01*
X0151000Y0221657D01*
X0147200Y0217857D01*
X0147150Y0184107D01*
X0145200Y0182657D02*
X0144000Y0180957D01*
X0145200Y0182657D02*
X0145200Y0185657D01*
X0145300Y0185757D01*
X0145300Y0186057D01*
X0145600Y0186357D01*
X0145600Y0220457D01*
X0150300Y0215657D02*
X0153500Y0218857D01*
X0234600Y0218857D01*
X0237800Y0222057D01*
X0237800Y0239457D01*
X0262200Y0241457D02*
X0262200Y0212457D01*
X0262900Y0211757D01*
X0264000Y0211757D01*
X0264600Y0211157D01*
X0264600Y0208857D01*
X0262700Y0205157D01*
X0262700Y0198257D01*
X0262100Y0195157D02*
X0280200Y0195157D01*
X0282600Y0197557D01*
X0282600Y0232257D01*
X0284300Y0233957D01*
X0288600Y0229257D02*
X0288500Y0229157D01*
X0288500Y0194457D01*
X0292000Y0191357D02*
X0292000Y0233657D01*
X0291900Y0233757D01*
X0294900Y0235557D02*
X0294900Y0193657D01*
X0284300Y0188557D02*
X0319200Y0188557D01*
X0323000Y0184757D01*
X0370500Y0184757D01*
X0367700Y0166657D02*
X0367800Y0129557D01*
X0368000Y0129557D01*
X0368900Y0128657D01*
X0364400Y0125757D02*
X0364300Y0125857D01*
X0364300Y0149757D01*
X0396400Y0120757D02*
X0403900Y0126457D01*
X0429700Y0126457D01*
X0434200Y0124357D01*
X0434000Y0109857D01*
X0431200Y0107057D01*
X0397200Y0107057D01*
X0394600Y0109657D01*
X0396400Y0120757D01*
X0396385Y0120666D02*
X0434149Y0120666D01*
X0434138Y0119868D02*
X0396256Y0119868D01*
X0396126Y0119069D02*
X0434127Y0119069D01*
X0434116Y0118271D02*
X0395997Y0118271D01*
X0395867Y0117472D02*
X0434105Y0117472D01*
X0434094Y0116674D02*
X0395738Y0116674D01*
X0395608Y0115875D02*
X0434083Y0115875D01*
X0434072Y0115077D02*
X0395479Y0115077D01*
X0395349Y0114278D02*
X0434061Y0114278D01*
X0434050Y0113480D02*
X0395220Y0113480D01*
X0395090Y0112681D02*
X0434039Y0112681D01*
X0434028Y0111883D02*
X0394961Y0111883D01*
X0394831Y0111084D02*
X0434017Y0111084D01*
X0434006Y0110286D02*
X0394702Y0110286D01*
X0394770Y0109487D02*
X0433630Y0109487D01*
X0432832Y0108689D02*
X0395568Y0108689D01*
X0396367Y0107890D02*
X0432033Y0107890D01*
X0431235Y0107092D02*
X0397165Y0107092D01*
X0397332Y0121465D02*
X0434160Y0121465D01*
X0434171Y0122263D02*
X0398382Y0122263D01*
X0399433Y0123062D02*
X0434182Y0123062D01*
X0434193Y0123860D02*
X0400484Y0123860D01*
X0401534Y0124659D02*
X0433553Y0124659D01*
X0431842Y0125457D02*
X0402585Y0125457D01*
X0403636Y0126256D02*
X0430131Y0126256D01*
X0297400Y0057457D02*
X0242200Y0057457D01*
X0251000Y0065957D02*
X0267700Y0065957D01*
X0272900Y0068257D02*
X0258600Y0068257D01*
X0272900Y0068257D02*
X0273600Y0067557D01*
X0278300Y0088557D02*
X0254000Y0088557D01*
X0253100Y0087657D01*
X0278300Y0088557D02*
X0279700Y0089957D01*
X0279700Y0129157D01*
X0158900Y0170657D02*
X0158900Y0175257D01*
X0157600Y0176557D01*
X0157600Y0185757D01*
X0160200Y0188357D01*
X0161200Y0188357D01*
X0150300Y0184107D02*
X0150300Y0215657D01*
X0139800Y0186157D02*
X0137650Y0184057D01*
X0122000Y0180957D02*
X0122000Y0180907D01*
X0114900Y0172507D02*
X0106050Y0172507D01*
X0093500Y0185057D01*
X0098100Y0177007D02*
X0106800Y0168307D01*
X0114600Y0168357D01*
X0126500Y0153857D02*
X0130000Y0157357D01*
X0133000Y0157357D01*
X0134550Y0155757D01*
X0136500Y0157707D02*
X0136500Y0167557D01*
X0137300Y0168357D01*
X0137650Y0168407D02*
X0138500Y0169257D01*
X0146500Y0169257D01*
X0147100Y0168657D01*
X0147123Y0168520D02*
X0148160Y0169557D01*
X0148343Y0169557D01*
X0157800Y0169557D01*
X0158900Y0170657D01*
X0148343Y0169557D02*
X0147351Y0168565D01*
X0147150Y0168257D02*
X0147150Y0158907D01*
X0147150Y0155757D02*
X0146000Y0151557D01*
X0145100Y0150057D01*
X0144000Y0143357D01*
X0146400Y0141657D01*
X0146400Y0133457D01*
X0147800Y0132057D01*
X0144900Y0131457D02*
X0141700Y0134657D01*
X0141700Y0144757D01*
X0142900Y0148657D01*
X0144000Y0152607D01*
X0126500Y0153857D02*
X0123900Y0153857D01*
X0117500Y0132457D02*
X0117500Y0132407D01*
X0114900Y0129807D01*
X0102250Y0129807D01*
X0101350Y0128907D01*
X0101350Y0110257D01*
X0101348Y0110202D01*
X0101342Y0110147D01*
X0101332Y0110092D01*
X0101319Y0110039D01*
X0101301Y0109986D01*
X0101280Y0109935D01*
X0101255Y0109886D01*
X0101227Y0109838D01*
X0101195Y0109793D01*
X0101161Y0109749D01*
X0101123Y0109709D01*
X0101083Y0109671D01*
X0101039Y0109637D01*
X0100994Y0109605D01*
X0100946Y0109577D01*
X0100897Y0109552D01*
X0100846Y0109531D01*
X0100793Y0109513D01*
X0100740Y0109500D01*
X0100685Y0109490D01*
X0100630Y0109484D01*
X0100575Y0109482D01*
X0100498Y0109482D01*
X0100443Y0109480D01*
X0100388Y0109474D01*
X0100333Y0109464D01*
X0100280Y0109451D01*
X0100227Y0109433D01*
X0100176Y0109412D01*
X0100127Y0109387D01*
X0100079Y0109359D01*
X0100034Y0109327D01*
X0099990Y0109293D01*
X0099950Y0109255D01*
X0099912Y0109215D01*
X0099878Y0109171D01*
X0099846Y0109126D01*
X0099818Y0109078D01*
X0099793Y0109029D01*
X0099772Y0108978D01*
X0099754Y0108925D01*
X0099741Y0108872D01*
X0099731Y0108817D01*
X0099725Y0108762D01*
X0099723Y0108707D01*
X0099723Y0107506D01*
X0099725Y0107451D01*
X0099731Y0107396D01*
X0099741Y0107341D01*
X0099754Y0107288D01*
X0099772Y0107235D01*
X0099793Y0107184D01*
X0099818Y0107135D01*
X0099846Y0107087D01*
X0099878Y0107042D01*
X0099912Y0106998D01*
X0099950Y0106958D01*
X0099990Y0106920D01*
X0100034Y0106886D01*
X0100079Y0106854D01*
X0100127Y0106826D01*
X0100176Y0106801D01*
X0100227Y0106780D01*
X0100280Y0106762D01*
X0100333Y0106749D01*
X0100388Y0106739D01*
X0100443Y0106733D01*
X0100498Y0106731D01*
X0102202Y0106731D01*
X0102257Y0106729D01*
X0102312Y0106723D01*
X0102367Y0106713D01*
X0102420Y0106700D01*
X0102473Y0106682D01*
X0102524Y0106661D01*
X0102573Y0106636D01*
X0102621Y0106608D01*
X0102666Y0106576D01*
X0102710Y0106542D01*
X0102750Y0106504D01*
X0102788Y0106464D01*
X0102822Y0106420D01*
X0102854Y0106375D01*
X0102882Y0106327D01*
X0102907Y0106278D01*
X0102928Y0106227D01*
X0102946Y0106174D01*
X0102959Y0106121D01*
X0102969Y0106066D01*
X0102975Y0106011D01*
X0102977Y0105956D01*
X0102977Y0104755D01*
X0102975Y0104700D01*
X0102969Y0104645D01*
X0102959Y0104590D01*
X0102946Y0104537D01*
X0102928Y0104484D01*
X0102907Y0104433D01*
X0102882Y0104384D01*
X0102854Y0104336D01*
X0102822Y0104291D01*
X0102788Y0104247D01*
X0102750Y0104207D01*
X0102710Y0104169D01*
X0102666Y0104135D01*
X0102621Y0104103D01*
X0102573Y0104075D01*
X0102524Y0104050D01*
X0102473Y0104029D01*
X0102420Y0104011D01*
X0102367Y0103998D01*
X0102312Y0103988D01*
X0102257Y0103982D01*
X0102202Y0103980D01*
X0100498Y0103980D01*
X0100443Y0103978D01*
X0100388Y0103972D01*
X0100333Y0103962D01*
X0100280Y0103949D01*
X0100227Y0103931D01*
X0100176Y0103910D01*
X0100127Y0103885D01*
X0100079Y0103857D01*
X0100034Y0103825D01*
X0099990Y0103791D01*
X0099950Y0103753D01*
X0099912Y0103713D01*
X0099878Y0103669D01*
X0099846Y0103624D01*
X0099818Y0103576D01*
X0099793Y0103527D01*
X0099772Y0103476D01*
X0099754Y0103423D01*
X0099741Y0103370D01*
X0099731Y0103315D01*
X0099725Y0103260D01*
X0099723Y0103205D01*
X0099723Y0102005D01*
X0099725Y0101950D01*
X0099731Y0101895D01*
X0099741Y0101840D01*
X0099754Y0101787D01*
X0099772Y0101734D01*
X0099793Y0101683D01*
X0099818Y0101634D01*
X0099846Y0101586D01*
X0099878Y0101541D01*
X0099912Y0101497D01*
X0099950Y0101457D01*
X0099990Y0101419D01*
X0100034Y0101385D01*
X0100079Y0101353D01*
X0100127Y0101325D01*
X0100176Y0101300D01*
X0100227Y0101279D01*
X0100280Y0101261D01*
X0100333Y0101248D01*
X0100388Y0101238D01*
X0100443Y0101232D01*
X0100498Y0101230D01*
X0102202Y0101230D01*
X0102257Y0101228D01*
X0102312Y0101222D01*
X0102367Y0101212D01*
X0102420Y0101199D01*
X0102473Y0101181D01*
X0102524Y0101160D01*
X0102573Y0101135D01*
X0102621Y0101107D01*
X0102666Y0101075D01*
X0102710Y0101041D01*
X0102750Y0101003D01*
X0102788Y0100963D01*
X0102822Y0100919D01*
X0102854Y0100874D01*
X0102882Y0100826D01*
X0102907Y0100777D01*
X0102928Y0100726D01*
X0102946Y0100673D01*
X0102959Y0100620D01*
X0102969Y0100565D01*
X0102975Y0100510D01*
X0102977Y0100455D01*
X0102977Y0099254D01*
X0102975Y0099199D01*
X0102969Y0099144D01*
X0102959Y0099089D01*
X0102946Y0099036D01*
X0102928Y0098983D01*
X0102907Y0098932D01*
X0102882Y0098883D01*
X0102854Y0098835D01*
X0102822Y0098790D01*
X0102788Y0098746D01*
X0102750Y0098706D01*
X0102710Y0098668D01*
X0102666Y0098634D01*
X0102621Y0098602D01*
X0102573Y0098574D01*
X0102524Y0098549D01*
X0102473Y0098528D01*
X0102420Y0098510D01*
X0102367Y0098497D01*
X0102312Y0098487D01*
X0102257Y0098481D01*
X0102202Y0098479D01*
X0100498Y0098479D01*
X0100443Y0098477D01*
X0100388Y0098471D01*
X0100333Y0098461D01*
X0100280Y0098448D01*
X0100227Y0098430D01*
X0100176Y0098409D01*
X0100127Y0098384D01*
X0100079Y0098356D01*
X0100034Y0098324D01*
X0099990Y0098290D01*
X0099950Y0098252D01*
X0099912Y0098212D01*
X0099878Y0098168D01*
X0099846Y0098123D01*
X0099818Y0098075D01*
X0099793Y0098026D01*
X0099772Y0097975D01*
X0099754Y0097922D01*
X0099741Y0097869D01*
X0099731Y0097814D01*
X0099725Y0097759D01*
X0099723Y0097704D01*
X0099723Y0096503D01*
X0099725Y0096448D01*
X0099731Y0096393D01*
X0099741Y0096338D01*
X0099754Y0096285D01*
X0099772Y0096232D01*
X0099793Y0096181D01*
X0099818Y0096132D01*
X0099846Y0096084D01*
X0099878Y0096039D01*
X0099912Y0095995D01*
X0099950Y0095955D01*
X0099990Y0095917D01*
X0100034Y0095883D01*
X0100079Y0095851D01*
X0100127Y0095823D01*
X0100176Y0095798D01*
X0100227Y0095777D01*
X0100280Y0095759D01*
X0100333Y0095746D01*
X0100388Y0095736D01*
X0100443Y0095730D01*
X0100498Y0095728D01*
X0100575Y0095728D01*
X0100630Y0095726D01*
X0100685Y0095720D01*
X0100740Y0095710D01*
X0100793Y0095697D01*
X0100846Y0095679D01*
X0100897Y0095658D01*
X0100946Y0095633D01*
X0100994Y0095605D01*
X0101039Y0095573D01*
X0101083Y0095539D01*
X0101123Y0095501D01*
X0101161Y0095461D01*
X0101195Y0095417D01*
X0101227Y0095372D01*
X0101255Y0095324D01*
X0101280Y0095275D01*
X0101301Y0095224D01*
X0101319Y0095171D01*
X0101332Y0095118D01*
X0101342Y0095063D01*
X0101348Y0095008D01*
X0101350Y0094953D01*
X0101350Y0047707D01*
X0101050Y0047407D01*
X0113200Y0052407D02*
X0113250Y0052357D01*
X0113200Y0052407D02*
X0113200Y0092457D01*
X0113198Y0092512D01*
X0113192Y0092567D01*
X0113182Y0092622D01*
X0113169Y0092675D01*
X0113151Y0092728D01*
X0113130Y0092779D01*
X0113105Y0092828D01*
X0113077Y0092876D01*
X0113045Y0092921D01*
X0113011Y0092965D01*
X0112973Y0093005D01*
X0112933Y0093043D01*
X0112889Y0093077D01*
X0112844Y0093109D01*
X0112796Y0093137D01*
X0112747Y0093162D01*
X0112696Y0093183D01*
X0112643Y0093201D01*
X0112590Y0093214D01*
X0112535Y0093224D01*
X0112480Y0093230D01*
X0112425Y0093232D01*
X0110060Y0093232D01*
X0110005Y0093234D01*
X0109950Y0093240D01*
X0109895Y0093250D01*
X0109842Y0093263D01*
X0109789Y0093281D01*
X0109738Y0093302D01*
X0109689Y0093327D01*
X0109641Y0093355D01*
X0109596Y0093387D01*
X0109552Y0093421D01*
X0109512Y0093459D01*
X0109474Y0093499D01*
X0109440Y0093543D01*
X0109408Y0093588D01*
X0109380Y0093636D01*
X0109355Y0093685D01*
X0109334Y0093736D01*
X0109316Y0093789D01*
X0109303Y0093842D01*
X0109293Y0093897D01*
X0109287Y0093952D01*
X0109285Y0094007D01*
X0109285Y0094589D01*
X0109287Y0094644D01*
X0109293Y0094699D01*
X0109303Y0094754D01*
X0109316Y0094807D01*
X0109334Y0094860D01*
X0109355Y0094911D01*
X0109380Y0094960D01*
X0109408Y0095008D01*
X0109440Y0095053D01*
X0109474Y0095097D01*
X0109512Y0095137D01*
X0109552Y0095175D01*
X0109596Y0095209D01*
X0109641Y0095241D01*
X0109689Y0095269D01*
X0109738Y0095294D01*
X0109789Y0095315D01*
X0109842Y0095333D01*
X0109895Y0095346D01*
X0109950Y0095356D01*
X0110005Y0095362D01*
X0110060Y0095364D01*
X0112425Y0095364D01*
X0112480Y0095366D01*
X0112535Y0095372D01*
X0112590Y0095382D01*
X0112643Y0095395D01*
X0112696Y0095413D01*
X0112747Y0095434D01*
X0112796Y0095459D01*
X0112844Y0095487D01*
X0112889Y0095519D01*
X0112933Y0095553D01*
X0112973Y0095591D01*
X0113011Y0095631D01*
X0113045Y0095675D01*
X0113077Y0095720D01*
X0113105Y0095768D01*
X0113130Y0095817D01*
X0113151Y0095868D01*
X0113169Y0095921D01*
X0113182Y0095974D01*
X0113192Y0096029D01*
X0113198Y0096084D01*
X0113200Y0096139D01*
X0113200Y0096721D01*
X0113198Y0096776D01*
X0113192Y0096831D01*
X0113182Y0096886D01*
X0113169Y0096939D01*
X0113151Y0096992D01*
X0113130Y0097043D01*
X0113105Y0097092D01*
X0113077Y0097140D01*
X0113045Y0097185D01*
X0113011Y0097229D01*
X0112973Y0097269D01*
X0112933Y0097307D01*
X0112889Y0097341D01*
X0112844Y0097373D01*
X0112796Y0097401D01*
X0112747Y0097426D01*
X0112696Y0097447D01*
X0112643Y0097465D01*
X0112590Y0097478D01*
X0112535Y0097488D01*
X0112480Y0097494D01*
X0112425Y0097496D01*
X0110060Y0097496D01*
X0110005Y0097498D01*
X0109950Y0097504D01*
X0109895Y0097514D01*
X0109842Y0097527D01*
X0109789Y0097545D01*
X0109738Y0097566D01*
X0109689Y0097591D01*
X0109641Y0097619D01*
X0109596Y0097651D01*
X0109552Y0097685D01*
X0109512Y0097723D01*
X0109474Y0097763D01*
X0109440Y0097807D01*
X0109408Y0097852D01*
X0109380Y0097900D01*
X0109355Y0097949D01*
X0109334Y0098000D01*
X0109316Y0098053D01*
X0109303Y0098106D01*
X0109293Y0098161D01*
X0109287Y0098216D01*
X0109285Y0098271D01*
X0109285Y0098853D01*
X0109287Y0098908D01*
X0109293Y0098963D01*
X0109303Y0099018D01*
X0109316Y0099071D01*
X0109334Y0099124D01*
X0109355Y0099175D01*
X0109380Y0099224D01*
X0109408Y0099272D01*
X0109440Y0099317D01*
X0109474Y0099361D01*
X0109512Y0099401D01*
X0109552Y0099439D01*
X0109596Y0099473D01*
X0109641Y0099505D01*
X0109689Y0099533D01*
X0109738Y0099558D01*
X0109789Y0099579D01*
X0109842Y0099597D01*
X0109895Y0099610D01*
X0109950Y0099620D01*
X0110005Y0099626D01*
X0110060Y0099628D01*
X0112425Y0099628D01*
X0112480Y0099630D01*
X0112535Y0099636D01*
X0112590Y0099646D01*
X0112643Y0099659D01*
X0112696Y0099677D01*
X0112747Y0099698D01*
X0112796Y0099723D01*
X0112844Y0099751D01*
X0112889Y0099783D01*
X0112933Y0099817D01*
X0112973Y0099855D01*
X0113011Y0099895D01*
X0113045Y0099939D01*
X0113077Y0099984D01*
X0113105Y0100032D01*
X0113130Y0100081D01*
X0113151Y0100132D01*
X0113169Y0100185D01*
X0113182Y0100238D01*
X0113192Y0100293D01*
X0113198Y0100348D01*
X0113200Y0100403D01*
X0113200Y0100985D01*
X0113198Y0101040D01*
X0113192Y0101095D01*
X0113182Y0101150D01*
X0113169Y0101203D01*
X0113151Y0101256D01*
X0113130Y0101307D01*
X0113105Y0101356D01*
X0113077Y0101404D01*
X0113045Y0101449D01*
X0113011Y0101493D01*
X0112973Y0101533D01*
X0112933Y0101571D01*
X0112889Y0101605D01*
X0112844Y0101637D01*
X0112796Y0101665D01*
X0112747Y0101690D01*
X0112696Y0101711D01*
X0112643Y0101729D01*
X0112590Y0101742D01*
X0112535Y0101752D01*
X0112480Y0101758D01*
X0112425Y0101760D01*
X0110060Y0101760D01*
X0110005Y0101762D01*
X0109950Y0101768D01*
X0109895Y0101778D01*
X0109842Y0101791D01*
X0109789Y0101809D01*
X0109738Y0101830D01*
X0109689Y0101855D01*
X0109641Y0101883D01*
X0109596Y0101915D01*
X0109552Y0101949D01*
X0109512Y0101987D01*
X0109474Y0102027D01*
X0109440Y0102071D01*
X0109408Y0102116D01*
X0109380Y0102164D01*
X0109355Y0102213D01*
X0109334Y0102264D01*
X0109316Y0102317D01*
X0109303Y0102370D01*
X0109293Y0102425D01*
X0109287Y0102480D01*
X0109285Y0102535D01*
X0109285Y0103117D01*
X0109287Y0103172D01*
X0109293Y0103227D01*
X0109303Y0103282D01*
X0109316Y0103335D01*
X0109334Y0103388D01*
X0109355Y0103439D01*
X0109380Y0103488D01*
X0109408Y0103536D01*
X0109440Y0103581D01*
X0109474Y0103625D01*
X0109512Y0103665D01*
X0109552Y0103703D01*
X0109596Y0103737D01*
X0109641Y0103769D01*
X0109689Y0103797D01*
X0109738Y0103822D01*
X0109789Y0103843D01*
X0109842Y0103861D01*
X0109895Y0103874D01*
X0109950Y0103884D01*
X0110005Y0103890D01*
X0110060Y0103892D01*
X0112425Y0103892D01*
X0112480Y0103894D01*
X0112535Y0103900D01*
X0112590Y0103910D01*
X0112643Y0103923D01*
X0112696Y0103941D01*
X0112747Y0103962D01*
X0112796Y0103987D01*
X0112844Y0104015D01*
X0112889Y0104047D01*
X0112933Y0104081D01*
X0112973Y0104119D01*
X0113011Y0104159D01*
X0113045Y0104203D01*
X0113077Y0104248D01*
X0113105Y0104296D01*
X0113130Y0104345D01*
X0113151Y0104396D01*
X0113169Y0104449D01*
X0113182Y0104502D01*
X0113192Y0104557D01*
X0113198Y0104612D01*
X0113200Y0104667D01*
X0113200Y0124657D01*
X0115750Y0127307D02*
X0105450Y0127307D01*
X0104950Y0126807D01*
X0104950Y0109711D01*
X0104952Y0109656D01*
X0104958Y0109601D01*
X0104968Y0109546D01*
X0104981Y0109493D01*
X0104999Y0109440D01*
X0105020Y0109389D01*
X0105045Y0109340D01*
X0105073Y0109292D01*
X0105105Y0109247D01*
X0105139Y0109203D01*
X0105177Y0109163D01*
X0105217Y0109125D01*
X0105261Y0109091D01*
X0105306Y0109059D01*
X0105354Y0109031D01*
X0105403Y0109006D01*
X0105454Y0108985D01*
X0105507Y0108967D01*
X0105560Y0108954D01*
X0105615Y0108944D01*
X0105670Y0108938D01*
X0105725Y0108936D01*
X0105780Y0108934D01*
X0105835Y0108928D01*
X0105890Y0108918D01*
X0105943Y0108905D01*
X0105996Y0108887D01*
X0106047Y0108866D01*
X0106096Y0108841D01*
X0106144Y0108813D01*
X0106189Y0108781D01*
X0106233Y0108747D01*
X0106273Y0108709D01*
X0106311Y0108669D01*
X0106345Y0108625D01*
X0106377Y0108580D01*
X0106405Y0108532D01*
X0106430Y0108483D01*
X0106451Y0108432D01*
X0106469Y0108379D01*
X0106482Y0108326D01*
X0106492Y0108271D01*
X0106498Y0108216D01*
X0106500Y0108161D01*
X0106500Y0107770D01*
X0106498Y0107715D01*
X0106492Y0107660D01*
X0106482Y0107605D01*
X0106469Y0107552D01*
X0106451Y0107499D01*
X0106430Y0107448D01*
X0106405Y0107399D01*
X0106377Y0107351D01*
X0106345Y0107306D01*
X0106311Y0107262D01*
X0106273Y0107222D01*
X0106233Y0107184D01*
X0106189Y0107150D01*
X0106144Y0107118D01*
X0106096Y0107090D01*
X0106047Y0107065D01*
X0105996Y0107044D01*
X0105943Y0107026D01*
X0105890Y0107013D01*
X0105835Y0107003D01*
X0105780Y0106997D01*
X0105725Y0106995D01*
X0105670Y0106993D01*
X0105615Y0106987D01*
X0105560Y0106977D01*
X0105507Y0106964D01*
X0105454Y0106946D01*
X0105403Y0106925D01*
X0105354Y0106900D01*
X0105306Y0106872D01*
X0105261Y0106840D01*
X0105217Y0106806D01*
X0105177Y0106768D01*
X0105139Y0106728D01*
X0105105Y0106684D01*
X0105073Y0106639D01*
X0105045Y0106591D01*
X0105020Y0106542D01*
X0104999Y0106491D01*
X0104981Y0106438D01*
X0104968Y0106385D01*
X0104958Y0106330D01*
X0104952Y0106275D01*
X0104950Y0106220D01*
X0104950Y0105829D01*
X0104952Y0105774D01*
X0104958Y0105719D01*
X0104968Y0105664D01*
X0104981Y0105611D01*
X0104999Y0105558D01*
X0105020Y0105507D01*
X0105045Y0105458D01*
X0105073Y0105410D01*
X0105105Y0105365D01*
X0105139Y0105321D01*
X0105177Y0105281D01*
X0105217Y0105243D01*
X0105261Y0105209D01*
X0105306Y0105177D01*
X0105354Y0105149D01*
X0105403Y0105124D01*
X0105454Y0105103D01*
X0105507Y0105085D01*
X0105560Y0105072D01*
X0105615Y0105062D01*
X0105670Y0105056D01*
X0105725Y0105054D01*
X0105780Y0105052D01*
X0105835Y0105046D01*
X0105890Y0105036D01*
X0105943Y0105023D01*
X0105996Y0105005D01*
X0106047Y0104984D01*
X0106096Y0104959D01*
X0106144Y0104931D01*
X0106189Y0104899D01*
X0106233Y0104865D01*
X0106273Y0104827D01*
X0106311Y0104787D01*
X0106345Y0104743D01*
X0106377Y0104698D01*
X0106405Y0104650D01*
X0106430Y0104601D01*
X0106451Y0104550D01*
X0106469Y0104497D01*
X0106482Y0104444D01*
X0106492Y0104389D01*
X0106498Y0104334D01*
X0106500Y0104279D01*
X0106500Y0103888D01*
X0106498Y0103833D01*
X0106492Y0103778D01*
X0106482Y0103723D01*
X0106469Y0103670D01*
X0106451Y0103617D01*
X0106430Y0103566D01*
X0106405Y0103517D01*
X0106377Y0103469D01*
X0106345Y0103424D01*
X0106311Y0103380D01*
X0106273Y0103340D01*
X0106233Y0103302D01*
X0106189Y0103268D01*
X0106144Y0103236D01*
X0106096Y0103208D01*
X0106047Y0103183D01*
X0105996Y0103162D01*
X0105943Y0103144D01*
X0105890Y0103131D01*
X0105835Y0103121D01*
X0105780Y0103115D01*
X0105725Y0103113D01*
X0105670Y0103111D01*
X0105615Y0103105D01*
X0105560Y0103095D01*
X0105507Y0103082D01*
X0105454Y0103064D01*
X0105403Y0103043D01*
X0105354Y0103018D01*
X0105306Y0102990D01*
X0105261Y0102958D01*
X0105217Y0102924D01*
X0105177Y0102886D01*
X0105139Y0102846D01*
X0105105Y0102802D01*
X0105073Y0102757D01*
X0105045Y0102709D01*
X0105020Y0102660D01*
X0104999Y0102609D01*
X0104981Y0102556D01*
X0104968Y0102503D01*
X0104958Y0102448D01*
X0104952Y0102393D01*
X0104950Y0102338D01*
X0104950Y0101948D01*
X0104952Y0101893D01*
X0104958Y0101838D01*
X0104968Y0101783D01*
X0104981Y0101730D01*
X0104999Y0101677D01*
X0105020Y0101626D01*
X0105045Y0101577D01*
X0105073Y0101529D01*
X0105105Y0101484D01*
X0105139Y0101440D01*
X0105177Y0101400D01*
X0105217Y0101362D01*
X0105261Y0101328D01*
X0105306Y0101296D01*
X0105354Y0101268D01*
X0105403Y0101243D01*
X0105454Y0101222D01*
X0105507Y0101204D01*
X0105560Y0101191D01*
X0105615Y0101181D01*
X0105670Y0101175D01*
X0105725Y0101173D01*
X0105780Y0101171D01*
X0105835Y0101165D01*
X0105890Y0101155D01*
X0105943Y0101142D01*
X0105996Y0101124D01*
X0106047Y0101103D01*
X0106096Y0101078D01*
X0106144Y0101050D01*
X0106189Y0101018D01*
X0106233Y0100984D01*
X0106273Y0100946D01*
X0106311Y0100906D01*
X0106345Y0100862D01*
X0106377Y0100817D01*
X0106405Y0100769D01*
X0106430Y0100720D01*
X0106451Y0100669D01*
X0106469Y0100616D01*
X0106482Y0100563D01*
X0106492Y0100508D01*
X0106498Y0100453D01*
X0106500Y0100398D01*
X0106500Y0100007D01*
X0106498Y0099952D01*
X0106492Y0099897D01*
X0106482Y0099842D01*
X0106469Y0099789D01*
X0106451Y0099736D01*
X0106430Y0099685D01*
X0106405Y0099636D01*
X0106377Y0099588D01*
X0106345Y0099543D01*
X0106311Y0099499D01*
X0106273Y0099459D01*
X0106233Y0099421D01*
X0106189Y0099387D01*
X0106144Y0099355D01*
X0106096Y0099327D01*
X0106047Y0099302D01*
X0105996Y0099281D01*
X0105943Y0099263D01*
X0105890Y0099250D01*
X0105835Y0099240D01*
X0105780Y0099234D01*
X0105725Y0099232D01*
X0105670Y0099230D01*
X0105615Y0099224D01*
X0105560Y0099214D01*
X0105507Y0099201D01*
X0105454Y0099183D01*
X0105403Y0099162D01*
X0105354Y0099137D01*
X0105306Y0099109D01*
X0105261Y0099077D01*
X0105217Y0099043D01*
X0105177Y0099005D01*
X0105139Y0098965D01*
X0105105Y0098921D01*
X0105073Y0098876D01*
X0105045Y0098828D01*
X0105020Y0098779D01*
X0104999Y0098728D01*
X0104981Y0098675D01*
X0104968Y0098622D01*
X0104958Y0098567D01*
X0104952Y0098512D01*
X0104950Y0098457D01*
X0104950Y0062257D01*
X0105000Y0062207D01*
X0120350Y0057557D02*
X0120400Y0057507D01*
X0120350Y0057557D02*
X0120350Y0091957D01*
X0120348Y0092012D01*
X0120342Y0092067D01*
X0120332Y0092122D01*
X0120319Y0092175D01*
X0120301Y0092228D01*
X0120280Y0092279D01*
X0120255Y0092328D01*
X0120227Y0092376D01*
X0120195Y0092421D01*
X0120161Y0092465D01*
X0120123Y0092505D01*
X0120083Y0092543D01*
X0120039Y0092577D01*
X0119994Y0092609D01*
X0119946Y0092637D01*
X0119897Y0092662D01*
X0119846Y0092683D01*
X0119793Y0092701D01*
X0119740Y0092714D01*
X0119685Y0092724D01*
X0119630Y0092730D01*
X0119575Y0092732D01*
X0117440Y0092732D01*
X0117385Y0092734D01*
X0117330Y0092740D01*
X0117275Y0092750D01*
X0117222Y0092763D01*
X0117169Y0092781D01*
X0117118Y0092802D01*
X0117069Y0092827D01*
X0117021Y0092855D01*
X0116976Y0092887D01*
X0116932Y0092921D01*
X0116892Y0092959D01*
X0116854Y0092999D01*
X0116820Y0093043D01*
X0116788Y0093088D01*
X0116760Y0093136D01*
X0116735Y0093185D01*
X0116714Y0093236D01*
X0116696Y0093289D01*
X0116683Y0093342D01*
X0116673Y0093397D01*
X0116667Y0093452D01*
X0116665Y0093507D01*
X0116665Y0093831D01*
X0116667Y0093886D01*
X0116673Y0093941D01*
X0116683Y0093996D01*
X0116696Y0094049D01*
X0116714Y0094102D01*
X0116735Y0094153D01*
X0116760Y0094202D01*
X0116788Y0094250D01*
X0116820Y0094295D01*
X0116854Y0094339D01*
X0116892Y0094379D01*
X0116932Y0094417D01*
X0116976Y0094451D01*
X0117021Y0094483D01*
X0117069Y0094511D01*
X0117118Y0094536D01*
X0117169Y0094557D01*
X0117222Y0094575D01*
X0117275Y0094588D01*
X0117330Y0094598D01*
X0117385Y0094604D01*
X0117440Y0094606D01*
X0119575Y0094606D01*
X0119630Y0094608D01*
X0119685Y0094614D01*
X0119740Y0094624D01*
X0119793Y0094637D01*
X0119846Y0094655D01*
X0119897Y0094676D01*
X0119946Y0094701D01*
X0119994Y0094729D01*
X0120039Y0094761D01*
X0120083Y0094795D01*
X0120123Y0094833D01*
X0120161Y0094873D01*
X0120195Y0094917D01*
X0120227Y0094962D01*
X0120255Y0095010D01*
X0120280Y0095059D01*
X0120301Y0095110D01*
X0120319Y0095163D01*
X0120332Y0095216D01*
X0120342Y0095271D01*
X0120348Y0095326D01*
X0120350Y0095381D01*
X0120350Y0095706D01*
X0120348Y0095761D01*
X0120342Y0095816D01*
X0120332Y0095871D01*
X0120319Y0095924D01*
X0120301Y0095977D01*
X0120280Y0096028D01*
X0120255Y0096077D01*
X0120227Y0096125D01*
X0120195Y0096170D01*
X0120161Y0096214D01*
X0120123Y0096254D01*
X0120083Y0096292D01*
X0120039Y0096326D01*
X0119994Y0096358D01*
X0119946Y0096386D01*
X0119897Y0096411D01*
X0119846Y0096432D01*
X0119793Y0096450D01*
X0119740Y0096463D01*
X0119685Y0096473D01*
X0119630Y0096479D01*
X0119575Y0096481D01*
X0117440Y0096481D01*
X0117385Y0096483D01*
X0117330Y0096489D01*
X0117275Y0096499D01*
X0117222Y0096512D01*
X0117169Y0096530D01*
X0117118Y0096551D01*
X0117069Y0096576D01*
X0117021Y0096604D01*
X0116976Y0096636D01*
X0116932Y0096670D01*
X0116892Y0096708D01*
X0116854Y0096748D01*
X0116820Y0096792D01*
X0116788Y0096837D01*
X0116760Y0096885D01*
X0116735Y0096934D01*
X0116714Y0096985D01*
X0116696Y0097038D01*
X0116683Y0097091D01*
X0116673Y0097146D01*
X0116667Y0097201D01*
X0116665Y0097256D01*
X0116665Y0097580D01*
X0116667Y0097635D01*
X0116673Y0097690D01*
X0116683Y0097745D01*
X0116696Y0097798D01*
X0116714Y0097851D01*
X0116735Y0097902D01*
X0116760Y0097951D01*
X0116788Y0097999D01*
X0116820Y0098044D01*
X0116854Y0098088D01*
X0116892Y0098128D01*
X0116932Y0098166D01*
X0116976Y0098200D01*
X0117021Y0098232D01*
X0117069Y0098260D01*
X0117118Y0098285D01*
X0117169Y0098306D01*
X0117222Y0098324D01*
X0117275Y0098337D01*
X0117330Y0098347D01*
X0117385Y0098353D01*
X0117440Y0098355D01*
X0119575Y0098355D01*
X0119630Y0098357D01*
X0119685Y0098363D01*
X0119740Y0098373D01*
X0119793Y0098386D01*
X0119846Y0098404D01*
X0119897Y0098425D01*
X0119946Y0098450D01*
X0119994Y0098478D01*
X0120039Y0098510D01*
X0120083Y0098544D01*
X0120123Y0098582D01*
X0120161Y0098622D01*
X0120195Y0098666D01*
X0120227Y0098711D01*
X0120255Y0098759D01*
X0120280Y0098808D01*
X0120301Y0098859D01*
X0120319Y0098912D01*
X0120332Y0098965D01*
X0120342Y0099020D01*
X0120348Y0099075D01*
X0120350Y0099130D01*
X0120350Y0099455D01*
X0120348Y0099510D01*
X0120342Y0099565D01*
X0120332Y0099620D01*
X0120319Y0099673D01*
X0120301Y0099726D01*
X0120280Y0099777D01*
X0120255Y0099826D01*
X0120227Y0099874D01*
X0120195Y0099919D01*
X0120161Y0099963D01*
X0120123Y0100003D01*
X0120083Y0100041D01*
X0120039Y0100075D01*
X0119994Y0100107D01*
X0119946Y0100135D01*
X0119897Y0100160D01*
X0119846Y0100181D01*
X0119793Y0100199D01*
X0119740Y0100212D01*
X0119685Y0100222D01*
X0119630Y0100228D01*
X0119575Y0100230D01*
X0117440Y0100230D01*
X0117385Y0100232D01*
X0117330Y0100238D01*
X0117275Y0100248D01*
X0117222Y0100261D01*
X0117169Y0100279D01*
X0117118Y0100300D01*
X0117069Y0100325D01*
X0117021Y0100353D01*
X0116976Y0100385D01*
X0116932Y0100419D01*
X0116892Y0100457D01*
X0116854Y0100497D01*
X0116820Y0100541D01*
X0116788Y0100586D01*
X0116760Y0100634D01*
X0116735Y0100683D01*
X0116714Y0100734D01*
X0116696Y0100787D01*
X0116683Y0100840D01*
X0116673Y0100895D01*
X0116667Y0100950D01*
X0116665Y0101005D01*
X0116665Y0101330D01*
X0116667Y0101385D01*
X0116673Y0101440D01*
X0116683Y0101495D01*
X0116696Y0101548D01*
X0116714Y0101601D01*
X0116735Y0101652D01*
X0116760Y0101701D01*
X0116788Y0101749D01*
X0116820Y0101794D01*
X0116854Y0101838D01*
X0116892Y0101878D01*
X0116932Y0101916D01*
X0116976Y0101950D01*
X0117021Y0101982D01*
X0117069Y0102010D01*
X0117118Y0102035D01*
X0117169Y0102056D01*
X0117222Y0102074D01*
X0117275Y0102087D01*
X0117330Y0102097D01*
X0117385Y0102103D01*
X0117440Y0102105D01*
X0119575Y0102105D01*
X0119630Y0102107D01*
X0119685Y0102113D01*
X0119740Y0102123D01*
X0119793Y0102136D01*
X0119846Y0102154D01*
X0119897Y0102175D01*
X0119946Y0102200D01*
X0119994Y0102228D01*
X0120039Y0102260D01*
X0120083Y0102294D01*
X0120123Y0102332D01*
X0120161Y0102372D01*
X0120195Y0102416D01*
X0120227Y0102461D01*
X0120255Y0102509D01*
X0120280Y0102558D01*
X0120301Y0102609D01*
X0120319Y0102662D01*
X0120332Y0102715D01*
X0120342Y0102770D01*
X0120348Y0102825D01*
X0120350Y0102880D01*
X0120350Y0103204D01*
X0120348Y0103259D01*
X0120342Y0103314D01*
X0120332Y0103369D01*
X0120319Y0103422D01*
X0120301Y0103475D01*
X0120280Y0103526D01*
X0120255Y0103575D01*
X0120227Y0103623D01*
X0120195Y0103668D01*
X0120161Y0103712D01*
X0120123Y0103752D01*
X0120083Y0103790D01*
X0120039Y0103824D01*
X0119994Y0103856D01*
X0119946Y0103884D01*
X0119897Y0103909D01*
X0119846Y0103930D01*
X0119793Y0103948D01*
X0119740Y0103961D01*
X0119685Y0103971D01*
X0119630Y0103977D01*
X0119575Y0103979D01*
X0117440Y0103979D01*
X0117385Y0103981D01*
X0117330Y0103987D01*
X0117275Y0103997D01*
X0117222Y0104010D01*
X0117169Y0104028D01*
X0117118Y0104049D01*
X0117069Y0104074D01*
X0117021Y0104102D01*
X0116976Y0104134D01*
X0116932Y0104168D01*
X0116892Y0104206D01*
X0116854Y0104246D01*
X0116820Y0104290D01*
X0116788Y0104335D01*
X0116760Y0104383D01*
X0116735Y0104432D01*
X0116714Y0104483D01*
X0116696Y0104536D01*
X0116683Y0104589D01*
X0116673Y0104644D01*
X0116667Y0104699D01*
X0116665Y0104754D01*
X0116665Y0105079D01*
X0116667Y0105134D01*
X0116673Y0105189D01*
X0116683Y0105244D01*
X0116696Y0105297D01*
X0116714Y0105350D01*
X0116735Y0105401D01*
X0116760Y0105450D01*
X0116788Y0105498D01*
X0116820Y0105543D01*
X0116854Y0105587D01*
X0116892Y0105627D01*
X0116932Y0105665D01*
X0116976Y0105699D01*
X0117021Y0105731D01*
X0117069Y0105759D01*
X0117118Y0105784D01*
X0117169Y0105805D01*
X0117222Y0105823D01*
X0117275Y0105836D01*
X0117330Y0105846D01*
X0117385Y0105852D01*
X0117440Y0105854D01*
X0119575Y0105854D01*
X0119630Y0105856D01*
X0119685Y0105862D01*
X0119740Y0105872D01*
X0119793Y0105885D01*
X0119846Y0105903D01*
X0119897Y0105924D01*
X0119946Y0105949D01*
X0119994Y0105977D01*
X0120039Y0106009D01*
X0120083Y0106043D01*
X0120123Y0106081D01*
X0120161Y0106121D01*
X0120195Y0106165D01*
X0120227Y0106210D01*
X0120255Y0106258D01*
X0120280Y0106307D01*
X0120301Y0106358D01*
X0120319Y0106411D01*
X0120332Y0106464D01*
X0120342Y0106519D01*
X0120348Y0106574D01*
X0120350Y0106629D01*
X0120350Y0127557D01*
X0119950Y0131507D02*
X0115750Y0127307D01*
X0113900Y0131957D02*
X0099200Y0131957D01*
X0097950Y0130707D01*
X0113900Y0131957D02*
X0115200Y0133257D01*
X0119950Y0131557D02*
X0119950Y0131507D01*
X0123450Y0131107D02*
X0123450Y0103640D01*
X0123448Y0103585D01*
X0123442Y0103530D01*
X0123432Y0103475D01*
X0123419Y0103422D01*
X0123401Y0103369D01*
X0123380Y0103318D01*
X0123355Y0103269D01*
X0123327Y0103221D01*
X0123295Y0103176D01*
X0123261Y0103132D01*
X0123223Y0103092D01*
X0123183Y0103054D01*
X0123139Y0103020D01*
X0123094Y0102988D01*
X0123046Y0102960D01*
X0122997Y0102935D01*
X0122946Y0102914D01*
X0122893Y0102896D01*
X0122840Y0102883D01*
X0122785Y0102873D01*
X0122730Y0102867D01*
X0122675Y0102865D01*
X0122492Y0102865D01*
X0122437Y0102863D01*
X0122382Y0102857D01*
X0122327Y0102847D01*
X0122274Y0102834D01*
X0122221Y0102816D01*
X0122170Y0102795D01*
X0122121Y0102770D01*
X0122073Y0102742D01*
X0122028Y0102710D01*
X0121984Y0102676D01*
X0121944Y0102638D01*
X0121906Y0102598D01*
X0121872Y0102554D01*
X0121840Y0102509D01*
X0121812Y0102461D01*
X0121787Y0102412D01*
X0121766Y0102361D01*
X0121748Y0102308D01*
X0121735Y0102255D01*
X0121725Y0102200D01*
X0121719Y0102145D01*
X0121717Y0102090D01*
X0121717Y0101922D01*
X0121719Y0101867D01*
X0121725Y0101812D01*
X0121735Y0101757D01*
X0121748Y0101704D01*
X0121766Y0101651D01*
X0121787Y0101600D01*
X0121812Y0101551D01*
X0121840Y0101503D01*
X0121872Y0101458D01*
X0121906Y0101414D01*
X0121944Y0101374D01*
X0121984Y0101336D01*
X0122028Y0101302D01*
X0122073Y0101270D01*
X0122121Y0101242D01*
X0122170Y0101217D01*
X0122221Y0101196D01*
X0122274Y0101178D01*
X0122327Y0101165D01*
X0122382Y0101155D01*
X0122437Y0101149D01*
X0122492Y0101147D01*
X0124408Y0101147D01*
X0124463Y0101145D01*
X0124518Y0101139D01*
X0124573Y0101129D01*
X0124626Y0101116D01*
X0124679Y0101098D01*
X0124730Y0101077D01*
X0124779Y0101052D01*
X0124827Y0101024D01*
X0124872Y0100992D01*
X0124916Y0100958D01*
X0124956Y0100920D01*
X0124994Y0100880D01*
X0125028Y0100836D01*
X0125060Y0100791D01*
X0125088Y0100743D01*
X0125113Y0100694D01*
X0125134Y0100643D01*
X0125152Y0100590D01*
X0125165Y0100537D01*
X0125175Y0100482D01*
X0125181Y0100427D01*
X0125183Y0100372D01*
X0125183Y0100204D01*
X0125181Y0100149D01*
X0125175Y0100094D01*
X0125165Y0100039D01*
X0125152Y0099986D01*
X0125134Y0099933D01*
X0125113Y0099882D01*
X0125088Y0099833D01*
X0125060Y0099785D01*
X0125028Y0099740D01*
X0124994Y0099696D01*
X0124956Y0099656D01*
X0124916Y0099618D01*
X0124872Y0099584D01*
X0124827Y0099552D01*
X0124779Y0099524D01*
X0124730Y0099499D01*
X0124679Y0099478D01*
X0124626Y0099460D01*
X0124573Y0099447D01*
X0124518Y0099437D01*
X0124463Y0099431D01*
X0124408Y0099429D01*
X0122492Y0099429D01*
X0122437Y0099427D01*
X0122382Y0099421D01*
X0122327Y0099411D01*
X0122274Y0099398D01*
X0122221Y0099380D01*
X0122170Y0099359D01*
X0122121Y0099334D01*
X0122073Y0099306D01*
X0122028Y0099274D01*
X0121984Y0099240D01*
X0121944Y0099202D01*
X0121906Y0099162D01*
X0121872Y0099118D01*
X0121840Y0099073D01*
X0121812Y0099025D01*
X0121787Y0098976D01*
X0121766Y0098925D01*
X0121748Y0098872D01*
X0121735Y0098819D01*
X0121725Y0098764D01*
X0121719Y0098709D01*
X0121717Y0098654D01*
X0121717Y0098486D01*
X0121719Y0098431D01*
X0121725Y0098376D01*
X0121735Y0098321D01*
X0121748Y0098268D01*
X0121766Y0098215D01*
X0121787Y0098164D01*
X0121812Y0098115D01*
X0121840Y0098067D01*
X0121872Y0098022D01*
X0121906Y0097978D01*
X0121944Y0097938D01*
X0121984Y0097900D01*
X0122028Y0097866D01*
X0122073Y0097834D01*
X0122121Y0097806D01*
X0122170Y0097781D01*
X0122221Y0097760D01*
X0122274Y0097742D01*
X0122327Y0097729D01*
X0122382Y0097719D01*
X0122437Y0097713D01*
X0122492Y0097711D01*
X0124408Y0097711D01*
X0124463Y0097709D01*
X0124518Y0097703D01*
X0124573Y0097693D01*
X0124626Y0097680D01*
X0124679Y0097662D01*
X0124730Y0097641D01*
X0124779Y0097616D01*
X0124827Y0097588D01*
X0124872Y0097556D01*
X0124916Y0097522D01*
X0124956Y0097484D01*
X0124994Y0097444D01*
X0125028Y0097400D01*
X0125060Y0097355D01*
X0125088Y0097307D01*
X0125113Y0097258D01*
X0125134Y0097207D01*
X0125152Y0097154D01*
X0125165Y0097101D01*
X0125175Y0097046D01*
X0125181Y0096991D01*
X0125183Y0096936D01*
X0125183Y0096768D01*
X0125181Y0096713D01*
X0125175Y0096658D01*
X0125165Y0096603D01*
X0125152Y0096550D01*
X0125134Y0096497D01*
X0125113Y0096446D01*
X0125088Y0096397D01*
X0125060Y0096349D01*
X0125028Y0096304D01*
X0124994Y0096260D01*
X0124956Y0096220D01*
X0124916Y0096182D01*
X0124872Y0096148D01*
X0124827Y0096116D01*
X0124779Y0096088D01*
X0124730Y0096063D01*
X0124679Y0096042D01*
X0124626Y0096024D01*
X0124573Y0096011D01*
X0124518Y0096001D01*
X0124463Y0095995D01*
X0124408Y0095993D01*
X0122492Y0095993D01*
X0122437Y0095991D01*
X0122382Y0095985D01*
X0122327Y0095975D01*
X0122274Y0095962D01*
X0122221Y0095944D01*
X0122170Y0095923D01*
X0122121Y0095898D01*
X0122073Y0095870D01*
X0122028Y0095838D01*
X0121984Y0095804D01*
X0121944Y0095766D01*
X0121906Y0095726D01*
X0121872Y0095682D01*
X0121840Y0095637D01*
X0121812Y0095589D01*
X0121787Y0095540D01*
X0121766Y0095489D01*
X0121748Y0095436D01*
X0121735Y0095383D01*
X0121725Y0095328D01*
X0121719Y0095273D01*
X0121717Y0095218D01*
X0121717Y0095050D01*
X0121719Y0094995D01*
X0121725Y0094940D01*
X0121735Y0094885D01*
X0121748Y0094832D01*
X0121766Y0094779D01*
X0121787Y0094728D01*
X0121812Y0094679D01*
X0121840Y0094631D01*
X0121872Y0094586D01*
X0121906Y0094542D01*
X0121944Y0094502D01*
X0121984Y0094464D01*
X0122028Y0094430D01*
X0122073Y0094398D01*
X0122121Y0094370D01*
X0122170Y0094345D01*
X0122221Y0094324D01*
X0122274Y0094306D01*
X0122327Y0094293D01*
X0122382Y0094283D01*
X0122437Y0094277D01*
X0122492Y0094275D01*
X0124408Y0094275D01*
X0124463Y0094273D01*
X0124518Y0094267D01*
X0124573Y0094257D01*
X0124626Y0094244D01*
X0124679Y0094226D01*
X0124730Y0094205D01*
X0124779Y0094180D01*
X0124827Y0094152D01*
X0124872Y0094120D01*
X0124916Y0094086D01*
X0124956Y0094048D01*
X0124994Y0094008D01*
X0125028Y0093964D01*
X0125060Y0093919D01*
X0125088Y0093871D01*
X0125113Y0093822D01*
X0125134Y0093771D01*
X0125152Y0093718D01*
X0125165Y0093665D01*
X0125175Y0093610D01*
X0125181Y0093555D01*
X0125183Y0093500D01*
X0125183Y0093332D01*
X0125181Y0093277D01*
X0125175Y0093222D01*
X0125165Y0093167D01*
X0125152Y0093114D01*
X0125134Y0093061D01*
X0125113Y0093010D01*
X0125088Y0092961D01*
X0125060Y0092913D01*
X0125028Y0092868D01*
X0124994Y0092824D01*
X0124956Y0092784D01*
X0124916Y0092746D01*
X0124872Y0092712D01*
X0124827Y0092680D01*
X0124779Y0092652D01*
X0124730Y0092627D01*
X0124679Y0092606D01*
X0124626Y0092588D01*
X0124573Y0092575D01*
X0124518Y0092565D01*
X0124463Y0092559D01*
X0124408Y0092557D01*
X0122492Y0092557D01*
X0122437Y0092555D01*
X0122382Y0092549D01*
X0122327Y0092539D01*
X0122274Y0092526D01*
X0122221Y0092508D01*
X0122170Y0092487D01*
X0122121Y0092462D01*
X0122073Y0092434D01*
X0122028Y0092402D01*
X0121984Y0092368D01*
X0121944Y0092330D01*
X0121906Y0092290D01*
X0121872Y0092246D01*
X0121840Y0092201D01*
X0121812Y0092153D01*
X0121787Y0092104D01*
X0121766Y0092053D01*
X0121748Y0092000D01*
X0121735Y0091947D01*
X0121725Y0091892D01*
X0121719Y0091837D01*
X0121717Y0091782D01*
X0121717Y0091614D01*
X0121719Y0091559D01*
X0121725Y0091504D01*
X0121735Y0091449D01*
X0121748Y0091396D01*
X0121766Y0091343D01*
X0121787Y0091292D01*
X0121812Y0091243D01*
X0121840Y0091195D01*
X0121872Y0091150D01*
X0121906Y0091106D01*
X0121944Y0091066D01*
X0121984Y0091028D01*
X0122028Y0090994D01*
X0122073Y0090962D01*
X0122121Y0090934D01*
X0122170Y0090909D01*
X0122221Y0090888D01*
X0122274Y0090870D01*
X0122327Y0090857D01*
X0122382Y0090847D01*
X0122437Y0090841D01*
X0122492Y0090839D01*
X0124408Y0090839D01*
X0124463Y0090837D01*
X0124518Y0090831D01*
X0124573Y0090821D01*
X0124626Y0090808D01*
X0124679Y0090790D01*
X0124730Y0090769D01*
X0124779Y0090744D01*
X0124827Y0090716D01*
X0124872Y0090684D01*
X0124916Y0090650D01*
X0124956Y0090612D01*
X0124994Y0090572D01*
X0125028Y0090528D01*
X0125060Y0090483D01*
X0125088Y0090435D01*
X0125113Y0090386D01*
X0125134Y0090335D01*
X0125152Y0090282D01*
X0125165Y0090229D01*
X0125175Y0090174D01*
X0125181Y0090119D01*
X0125183Y0090064D01*
X0125183Y0089896D01*
X0125181Y0089841D01*
X0125175Y0089786D01*
X0125165Y0089731D01*
X0125152Y0089678D01*
X0125134Y0089625D01*
X0125113Y0089574D01*
X0125088Y0089525D01*
X0125060Y0089477D01*
X0125028Y0089432D01*
X0124994Y0089388D01*
X0124956Y0089348D01*
X0124916Y0089310D01*
X0124872Y0089276D01*
X0124827Y0089244D01*
X0124779Y0089216D01*
X0124730Y0089191D01*
X0124679Y0089170D01*
X0124626Y0089152D01*
X0124573Y0089139D01*
X0124518Y0089129D01*
X0124463Y0089123D01*
X0124408Y0089121D01*
X0122492Y0089121D01*
X0122437Y0089119D01*
X0122382Y0089113D01*
X0122327Y0089103D01*
X0122274Y0089090D01*
X0122221Y0089072D01*
X0122170Y0089051D01*
X0122121Y0089026D01*
X0122073Y0088998D01*
X0122028Y0088966D01*
X0121984Y0088932D01*
X0121944Y0088894D01*
X0121906Y0088854D01*
X0121872Y0088810D01*
X0121840Y0088765D01*
X0121812Y0088717D01*
X0121787Y0088668D01*
X0121766Y0088617D01*
X0121748Y0088564D01*
X0121735Y0088511D01*
X0121725Y0088456D01*
X0121719Y0088401D01*
X0121717Y0088346D01*
X0121717Y0088178D01*
X0121719Y0088123D01*
X0121725Y0088068D01*
X0121735Y0088013D01*
X0121748Y0087960D01*
X0121766Y0087907D01*
X0121787Y0087856D01*
X0121812Y0087807D01*
X0121840Y0087759D01*
X0121872Y0087714D01*
X0121906Y0087670D01*
X0121944Y0087630D01*
X0121984Y0087592D01*
X0122028Y0087558D01*
X0122073Y0087526D01*
X0122121Y0087498D01*
X0122170Y0087473D01*
X0122221Y0087452D01*
X0122274Y0087434D01*
X0122327Y0087421D01*
X0122382Y0087411D01*
X0122437Y0087405D01*
X0122492Y0087403D01*
X0124408Y0087403D01*
X0124463Y0087401D01*
X0124518Y0087395D01*
X0124573Y0087385D01*
X0124626Y0087372D01*
X0124679Y0087354D01*
X0124730Y0087333D01*
X0124779Y0087308D01*
X0124827Y0087280D01*
X0124872Y0087248D01*
X0124916Y0087214D01*
X0124956Y0087176D01*
X0124994Y0087136D01*
X0125028Y0087092D01*
X0125060Y0087047D01*
X0125088Y0086999D01*
X0125113Y0086950D01*
X0125134Y0086899D01*
X0125152Y0086846D01*
X0125165Y0086793D01*
X0125175Y0086738D01*
X0125181Y0086683D01*
X0125183Y0086628D01*
X0125183Y0086461D01*
X0125181Y0086406D01*
X0125175Y0086351D01*
X0125165Y0086296D01*
X0125152Y0086243D01*
X0125134Y0086190D01*
X0125113Y0086139D01*
X0125088Y0086090D01*
X0125060Y0086042D01*
X0125028Y0085997D01*
X0124994Y0085953D01*
X0124956Y0085913D01*
X0124916Y0085875D01*
X0124872Y0085841D01*
X0124827Y0085809D01*
X0124779Y0085781D01*
X0124730Y0085756D01*
X0124679Y0085735D01*
X0124626Y0085717D01*
X0124573Y0085704D01*
X0124518Y0085694D01*
X0124463Y0085688D01*
X0124408Y0085686D01*
X0122492Y0085686D01*
X0122437Y0085684D01*
X0122382Y0085678D01*
X0122327Y0085668D01*
X0122274Y0085655D01*
X0122221Y0085637D01*
X0122170Y0085616D01*
X0122121Y0085591D01*
X0122073Y0085563D01*
X0122028Y0085531D01*
X0121984Y0085497D01*
X0121944Y0085459D01*
X0121906Y0085419D01*
X0121872Y0085375D01*
X0121840Y0085330D01*
X0121812Y0085282D01*
X0121787Y0085233D01*
X0121766Y0085182D01*
X0121748Y0085129D01*
X0121735Y0085076D01*
X0121725Y0085021D01*
X0121719Y0084966D01*
X0121717Y0084911D01*
X0121717Y0084743D01*
X0121719Y0084688D01*
X0121725Y0084633D01*
X0121735Y0084578D01*
X0121748Y0084525D01*
X0121766Y0084472D01*
X0121787Y0084421D01*
X0121812Y0084372D01*
X0121840Y0084324D01*
X0121872Y0084279D01*
X0121906Y0084235D01*
X0121944Y0084195D01*
X0121984Y0084157D01*
X0122028Y0084123D01*
X0122073Y0084091D01*
X0122121Y0084063D01*
X0122170Y0084038D01*
X0122221Y0084017D01*
X0122274Y0083999D01*
X0122327Y0083986D01*
X0122382Y0083976D01*
X0122437Y0083970D01*
X0122492Y0083968D01*
X0124408Y0083968D01*
X0124463Y0083966D01*
X0124518Y0083960D01*
X0124573Y0083950D01*
X0124626Y0083937D01*
X0124679Y0083919D01*
X0124730Y0083898D01*
X0124779Y0083873D01*
X0124827Y0083845D01*
X0124872Y0083813D01*
X0124916Y0083779D01*
X0124956Y0083741D01*
X0124994Y0083701D01*
X0125028Y0083657D01*
X0125060Y0083612D01*
X0125088Y0083564D01*
X0125113Y0083515D01*
X0125134Y0083464D01*
X0125152Y0083411D01*
X0125165Y0083358D01*
X0125175Y0083303D01*
X0125181Y0083248D01*
X0125183Y0083193D01*
X0125183Y0083025D01*
X0125181Y0082970D01*
X0125175Y0082915D01*
X0125165Y0082860D01*
X0125152Y0082807D01*
X0125134Y0082754D01*
X0125113Y0082703D01*
X0125088Y0082654D01*
X0125060Y0082606D01*
X0125028Y0082561D01*
X0124994Y0082517D01*
X0124956Y0082477D01*
X0124916Y0082439D01*
X0124872Y0082405D01*
X0124827Y0082373D01*
X0124779Y0082345D01*
X0124730Y0082320D01*
X0124679Y0082299D01*
X0124626Y0082281D01*
X0124573Y0082268D01*
X0124518Y0082258D01*
X0124463Y0082252D01*
X0124408Y0082250D01*
X0122492Y0082250D01*
X0122437Y0082248D01*
X0122382Y0082242D01*
X0122327Y0082232D01*
X0122274Y0082219D01*
X0122221Y0082201D01*
X0122170Y0082180D01*
X0122121Y0082155D01*
X0122073Y0082127D01*
X0122028Y0082095D01*
X0121984Y0082061D01*
X0121944Y0082023D01*
X0121906Y0081983D01*
X0121872Y0081939D01*
X0121840Y0081894D01*
X0121812Y0081846D01*
X0121787Y0081797D01*
X0121766Y0081746D01*
X0121748Y0081693D01*
X0121735Y0081640D01*
X0121725Y0081585D01*
X0121719Y0081530D01*
X0121717Y0081475D01*
X0121717Y0081307D01*
X0121719Y0081252D01*
X0121725Y0081197D01*
X0121735Y0081142D01*
X0121748Y0081089D01*
X0121766Y0081036D01*
X0121787Y0080985D01*
X0121812Y0080936D01*
X0121840Y0080888D01*
X0121872Y0080843D01*
X0121906Y0080799D01*
X0121944Y0080759D01*
X0121984Y0080721D01*
X0122028Y0080687D01*
X0122073Y0080655D01*
X0122121Y0080627D01*
X0122170Y0080602D01*
X0122221Y0080581D01*
X0122274Y0080563D01*
X0122327Y0080550D01*
X0122382Y0080540D01*
X0122437Y0080534D01*
X0122492Y0080532D01*
X0122675Y0080532D01*
X0122730Y0080530D01*
X0122785Y0080524D01*
X0122840Y0080514D01*
X0122893Y0080501D01*
X0122946Y0080483D01*
X0122997Y0080462D01*
X0123046Y0080437D01*
X0123094Y0080409D01*
X0123139Y0080377D01*
X0123183Y0080343D01*
X0123223Y0080305D01*
X0123261Y0080265D01*
X0123295Y0080221D01*
X0123327Y0080176D01*
X0123355Y0080128D01*
X0123380Y0080079D01*
X0123401Y0080028D01*
X0123419Y0079975D01*
X0123432Y0079922D01*
X0123442Y0079867D01*
X0123448Y0079812D01*
X0123450Y0079757D01*
X0123450Y0073757D01*
X0124000Y0073207D01*
X0126650Y0067757D02*
X0125750Y0066857D01*
X0126650Y0067757D02*
X0126650Y0079757D01*
X0126652Y0079812D01*
X0126658Y0079867D01*
X0126668Y0079922D01*
X0126681Y0079975D01*
X0126699Y0080028D01*
X0126720Y0080079D01*
X0126745Y0080128D01*
X0126773Y0080176D01*
X0126805Y0080221D01*
X0126839Y0080265D01*
X0126877Y0080305D01*
X0126917Y0080343D01*
X0126961Y0080377D01*
X0127006Y0080409D01*
X0127054Y0080437D01*
X0127103Y0080462D01*
X0127154Y0080483D01*
X0127207Y0080501D01*
X0127260Y0080514D01*
X0127315Y0080524D01*
X0127370Y0080530D01*
X0127425Y0080532D01*
X0128096Y0080532D01*
X0128151Y0080534D01*
X0128206Y0080540D01*
X0128261Y0080550D01*
X0128314Y0080563D01*
X0128367Y0080581D01*
X0128418Y0080602D01*
X0128467Y0080627D01*
X0128515Y0080655D01*
X0128560Y0080687D01*
X0128604Y0080721D01*
X0128644Y0080759D01*
X0128682Y0080799D01*
X0128716Y0080843D01*
X0128748Y0080888D01*
X0128776Y0080936D01*
X0128801Y0080985D01*
X0128822Y0081036D01*
X0128840Y0081089D01*
X0128853Y0081142D01*
X0128863Y0081197D01*
X0128869Y0081252D01*
X0128871Y0081307D01*
X0128871Y0081477D01*
X0128869Y0081532D01*
X0128863Y0081587D01*
X0128853Y0081642D01*
X0128840Y0081695D01*
X0128822Y0081748D01*
X0128801Y0081799D01*
X0128776Y0081848D01*
X0128748Y0081896D01*
X0128716Y0081941D01*
X0128682Y0081985D01*
X0128644Y0082025D01*
X0128604Y0082063D01*
X0128560Y0082097D01*
X0128515Y0082129D01*
X0128467Y0082157D01*
X0128418Y0082182D01*
X0128367Y0082203D01*
X0128314Y0082221D01*
X0128261Y0082234D01*
X0128206Y0082244D01*
X0128151Y0082250D01*
X0128096Y0082252D01*
X0127425Y0082252D01*
X0127370Y0082254D01*
X0127315Y0082260D01*
X0127260Y0082270D01*
X0127207Y0082283D01*
X0127154Y0082301D01*
X0127103Y0082322D01*
X0127054Y0082347D01*
X0127006Y0082375D01*
X0126961Y0082407D01*
X0126917Y0082441D01*
X0126877Y0082479D01*
X0126839Y0082519D01*
X0126805Y0082563D01*
X0126773Y0082608D01*
X0126745Y0082656D01*
X0126720Y0082705D01*
X0126699Y0082756D01*
X0126681Y0082809D01*
X0126668Y0082862D01*
X0126658Y0082917D01*
X0126652Y0082972D01*
X0126650Y0083027D01*
X0126650Y0083197D01*
X0126652Y0083252D01*
X0126658Y0083307D01*
X0126668Y0083362D01*
X0126681Y0083415D01*
X0126699Y0083468D01*
X0126720Y0083519D01*
X0126745Y0083568D01*
X0126773Y0083616D01*
X0126805Y0083661D01*
X0126839Y0083705D01*
X0126877Y0083745D01*
X0126917Y0083783D01*
X0126961Y0083817D01*
X0127006Y0083849D01*
X0127054Y0083877D01*
X0127103Y0083902D01*
X0127154Y0083923D01*
X0127207Y0083941D01*
X0127260Y0083954D01*
X0127315Y0083964D01*
X0127370Y0083970D01*
X0127425Y0083972D01*
X0128096Y0083972D01*
X0128151Y0083974D01*
X0128206Y0083980D01*
X0128261Y0083990D01*
X0128314Y0084003D01*
X0128367Y0084021D01*
X0128418Y0084042D01*
X0128467Y0084067D01*
X0128515Y0084095D01*
X0128560Y0084127D01*
X0128604Y0084161D01*
X0128644Y0084199D01*
X0128682Y0084239D01*
X0128716Y0084283D01*
X0128748Y0084328D01*
X0128776Y0084376D01*
X0128801Y0084425D01*
X0128822Y0084476D01*
X0128840Y0084529D01*
X0128853Y0084582D01*
X0128863Y0084637D01*
X0128869Y0084692D01*
X0128871Y0084747D01*
X0128871Y0084918D01*
X0128869Y0084973D01*
X0128863Y0085028D01*
X0128853Y0085083D01*
X0128840Y0085136D01*
X0128822Y0085189D01*
X0128801Y0085240D01*
X0128776Y0085289D01*
X0128748Y0085337D01*
X0128716Y0085382D01*
X0128682Y0085426D01*
X0128644Y0085466D01*
X0128604Y0085504D01*
X0128560Y0085538D01*
X0128515Y0085570D01*
X0128467Y0085598D01*
X0128418Y0085623D01*
X0128367Y0085644D01*
X0128314Y0085662D01*
X0128261Y0085675D01*
X0128206Y0085685D01*
X0128151Y0085691D01*
X0128096Y0085693D01*
X0127425Y0085693D01*
X0127370Y0085695D01*
X0127315Y0085701D01*
X0127260Y0085711D01*
X0127207Y0085724D01*
X0127154Y0085742D01*
X0127103Y0085763D01*
X0127054Y0085788D01*
X0127006Y0085816D01*
X0126961Y0085848D01*
X0126917Y0085882D01*
X0126877Y0085920D01*
X0126839Y0085960D01*
X0126805Y0086004D01*
X0126773Y0086049D01*
X0126745Y0086097D01*
X0126720Y0086146D01*
X0126699Y0086197D01*
X0126681Y0086250D01*
X0126668Y0086303D01*
X0126658Y0086358D01*
X0126652Y0086413D01*
X0126650Y0086468D01*
X0126650Y0086638D01*
X0126652Y0086693D01*
X0126658Y0086748D01*
X0126668Y0086803D01*
X0126681Y0086856D01*
X0126699Y0086909D01*
X0126720Y0086960D01*
X0126745Y0087009D01*
X0126773Y0087057D01*
X0126805Y0087102D01*
X0126839Y0087146D01*
X0126877Y0087186D01*
X0126917Y0087224D01*
X0126961Y0087258D01*
X0127006Y0087290D01*
X0127054Y0087318D01*
X0127103Y0087343D01*
X0127154Y0087364D01*
X0127207Y0087382D01*
X0127260Y0087395D01*
X0127315Y0087405D01*
X0127370Y0087411D01*
X0127425Y0087413D01*
X0128096Y0087413D01*
X0128151Y0087415D01*
X0128206Y0087421D01*
X0128261Y0087431D01*
X0128314Y0087444D01*
X0128367Y0087462D01*
X0128418Y0087483D01*
X0128467Y0087508D01*
X0128515Y0087536D01*
X0128560Y0087568D01*
X0128604Y0087602D01*
X0128644Y0087640D01*
X0128682Y0087680D01*
X0128716Y0087724D01*
X0128748Y0087769D01*
X0128776Y0087817D01*
X0128801Y0087866D01*
X0128822Y0087917D01*
X0128840Y0087970D01*
X0128853Y0088023D01*
X0128863Y0088078D01*
X0128869Y0088133D01*
X0128871Y0088188D01*
X0128871Y0088358D01*
X0128869Y0088413D01*
X0128863Y0088468D01*
X0128853Y0088523D01*
X0128840Y0088576D01*
X0128822Y0088629D01*
X0128801Y0088680D01*
X0128776Y0088729D01*
X0128748Y0088777D01*
X0128716Y0088822D01*
X0128682Y0088866D01*
X0128644Y0088906D01*
X0128604Y0088944D01*
X0128560Y0088978D01*
X0128515Y0089010D01*
X0128467Y0089038D01*
X0128418Y0089063D01*
X0128367Y0089084D01*
X0128314Y0089102D01*
X0128261Y0089115D01*
X0128206Y0089125D01*
X0128151Y0089131D01*
X0128096Y0089133D01*
X0127425Y0089133D01*
X0127370Y0089135D01*
X0127315Y0089141D01*
X0127260Y0089151D01*
X0127207Y0089164D01*
X0127154Y0089182D01*
X0127103Y0089203D01*
X0127054Y0089228D01*
X0127006Y0089256D01*
X0126961Y0089288D01*
X0126917Y0089322D01*
X0126877Y0089360D01*
X0126839Y0089400D01*
X0126805Y0089444D01*
X0126773Y0089489D01*
X0126745Y0089537D01*
X0126720Y0089586D01*
X0126699Y0089637D01*
X0126681Y0089690D01*
X0126668Y0089743D01*
X0126658Y0089798D01*
X0126652Y0089853D01*
X0126650Y0089908D01*
X0126650Y0090078D01*
X0126652Y0090133D01*
X0126658Y0090188D01*
X0126668Y0090243D01*
X0126681Y0090296D01*
X0126699Y0090349D01*
X0126720Y0090400D01*
X0126745Y0090449D01*
X0126773Y0090497D01*
X0126805Y0090542D01*
X0126839Y0090586D01*
X0126877Y0090626D01*
X0126917Y0090664D01*
X0126961Y0090698D01*
X0127006Y0090730D01*
X0127054Y0090758D01*
X0127103Y0090783D01*
X0127154Y0090804D01*
X0127207Y0090822D01*
X0127260Y0090835D01*
X0127315Y0090845D01*
X0127370Y0090851D01*
X0127425Y0090853D01*
X0128096Y0090853D01*
X0128151Y0090855D01*
X0128206Y0090861D01*
X0128261Y0090871D01*
X0128314Y0090884D01*
X0128367Y0090902D01*
X0128418Y0090923D01*
X0128467Y0090948D01*
X0128515Y0090976D01*
X0128560Y0091008D01*
X0128604Y0091042D01*
X0128644Y0091080D01*
X0128682Y0091120D01*
X0128716Y0091164D01*
X0128748Y0091209D01*
X0128776Y0091257D01*
X0128801Y0091306D01*
X0128822Y0091357D01*
X0128840Y0091410D01*
X0128853Y0091463D01*
X0128863Y0091518D01*
X0128869Y0091573D01*
X0128871Y0091628D01*
X0128871Y0091799D01*
X0128869Y0091854D01*
X0128863Y0091909D01*
X0128853Y0091964D01*
X0128840Y0092017D01*
X0128822Y0092070D01*
X0128801Y0092121D01*
X0128776Y0092170D01*
X0128748Y0092218D01*
X0128716Y0092263D01*
X0128682Y0092307D01*
X0128644Y0092347D01*
X0128604Y0092385D01*
X0128560Y0092419D01*
X0128515Y0092451D01*
X0128467Y0092479D01*
X0128418Y0092504D01*
X0128367Y0092525D01*
X0128314Y0092543D01*
X0128261Y0092556D01*
X0128206Y0092566D01*
X0128151Y0092572D01*
X0128096Y0092574D01*
X0127425Y0092574D01*
X0127370Y0092576D01*
X0127315Y0092582D01*
X0127260Y0092592D01*
X0127207Y0092605D01*
X0127154Y0092623D01*
X0127103Y0092644D01*
X0127054Y0092669D01*
X0127006Y0092697D01*
X0126961Y0092729D01*
X0126917Y0092763D01*
X0126877Y0092801D01*
X0126839Y0092841D01*
X0126805Y0092885D01*
X0126773Y0092930D01*
X0126745Y0092978D01*
X0126720Y0093027D01*
X0126699Y0093078D01*
X0126681Y0093131D01*
X0126668Y0093184D01*
X0126658Y0093239D01*
X0126652Y0093294D01*
X0126650Y0093349D01*
X0126650Y0093519D01*
X0126652Y0093574D01*
X0126658Y0093629D01*
X0126668Y0093684D01*
X0126681Y0093737D01*
X0126699Y0093790D01*
X0126720Y0093841D01*
X0126745Y0093890D01*
X0126773Y0093938D01*
X0126805Y0093983D01*
X0126839Y0094027D01*
X0126877Y0094067D01*
X0126917Y0094105D01*
X0126961Y0094139D01*
X0127006Y0094171D01*
X0127054Y0094199D01*
X0127103Y0094224D01*
X0127154Y0094245D01*
X0127207Y0094263D01*
X0127260Y0094276D01*
X0127315Y0094286D01*
X0127370Y0094292D01*
X0127425Y0094294D01*
X0128096Y0094294D01*
X0128151Y0094296D01*
X0128206Y0094302D01*
X0128261Y0094312D01*
X0128314Y0094325D01*
X0128367Y0094343D01*
X0128418Y0094364D01*
X0128467Y0094389D01*
X0128515Y0094417D01*
X0128560Y0094449D01*
X0128604Y0094483D01*
X0128644Y0094521D01*
X0128682Y0094561D01*
X0128716Y0094605D01*
X0128748Y0094650D01*
X0128776Y0094698D01*
X0128801Y0094747D01*
X0128822Y0094798D01*
X0128840Y0094851D01*
X0128853Y0094904D01*
X0128863Y0094959D01*
X0128869Y0095014D01*
X0128871Y0095069D01*
X0128871Y0095239D01*
X0128869Y0095294D01*
X0128863Y0095349D01*
X0128853Y0095404D01*
X0128840Y0095457D01*
X0128822Y0095510D01*
X0128801Y0095561D01*
X0128776Y0095610D01*
X0128748Y0095658D01*
X0128716Y0095703D01*
X0128682Y0095747D01*
X0128644Y0095787D01*
X0128604Y0095825D01*
X0128560Y0095859D01*
X0128515Y0095891D01*
X0128467Y0095919D01*
X0128418Y0095944D01*
X0128367Y0095965D01*
X0128314Y0095983D01*
X0128261Y0095996D01*
X0128206Y0096006D01*
X0128151Y0096012D01*
X0128096Y0096014D01*
X0127425Y0096014D01*
X0127370Y0096016D01*
X0127315Y0096022D01*
X0127260Y0096032D01*
X0127207Y0096045D01*
X0127154Y0096063D01*
X0127103Y0096084D01*
X0127054Y0096109D01*
X0127006Y0096137D01*
X0126961Y0096169D01*
X0126917Y0096203D01*
X0126877Y0096241D01*
X0126839Y0096281D01*
X0126805Y0096325D01*
X0126773Y0096370D01*
X0126745Y0096418D01*
X0126720Y0096467D01*
X0126699Y0096518D01*
X0126681Y0096571D01*
X0126668Y0096624D01*
X0126658Y0096679D01*
X0126652Y0096734D01*
X0126650Y0096789D01*
X0126650Y0096960D01*
X0126652Y0097015D01*
X0126658Y0097070D01*
X0126668Y0097125D01*
X0126681Y0097178D01*
X0126699Y0097231D01*
X0126720Y0097282D01*
X0126745Y0097331D01*
X0126773Y0097379D01*
X0126805Y0097424D01*
X0126839Y0097468D01*
X0126877Y0097508D01*
X0126917Y0097546D01*
X0126961Y0097580D01*
X0127006Y0097612D01*
X0127054Y0097640D01*
X0127103Y0097665D01*
X0127154Y0097686D01*
X0127207Y0097704D01*
X0127260Y0097717D01*
X0127315Y0097727D01*
X0127370Y0097733D01*
X0127425Y0097735D01*
X0128096Y0097735D01*
X0128151Y0097737D01*
X0128206Y0097743D01*
X0128261Y0097753D01*
X0128314Y0097766D01*
X0128367Y0097784D01*
X0128418Y0097805D01*
X0128467Y0097830D01*
X0128515Y0097858D01*
X0128560Y0097890D01*
X0128604Y0097924D01*
X0128644Y0097962D01*
X0128682Y0098002D01*
X0128716Y0098046D01*
X0128748Y0098091D01*
X0128776Y0098139D01*
X0128801Y0098188D01*
X0128822Y0098239D01*
X0128840Y0098292D01*
X0128853Y0098345D01*
X0128863Y0098400D01*
X0128869Y0098455D01*
X0128871Y0098510D01*
X0128871Y0098680D01*
X0128869Y0098735D01*
X0128863Y0098790D01*
X0128853Y0098845D01*
X0128840Y0098898D01*
X0128822Y0098951D01*
X0128801Y0099002D01*
X0128776Y0099051D01*
X0128748Y0099099D01*
X0128716Y0099144D01*
X0128682Y0099188D01*
X0128644Y0099228D01*
X0128604Y0099266D01*
X0128560Y0099300D01*
X0128515Y0099332D01*
X0128467Y0099360D01*
X0128418Y0099385D01*
X0128367Y0099406D01*
X0128314Y0099424D01*
X0128261Y0099437D01*
X0128206Y0099447D01*
X0128151Y0099453D01*
X0128096Y0099455D01*
X0127425Y0099455D01*
X0127370Y0099457D01*
X0127315Y0099463D01*
X0127260Y0099473D01*
X0127207Y0099486D01*
X0127154Y0099504D01*
X0127103Y0099525D01*
X0127054Y0099550D01*
X0127006Y0099578D01*
X0126961Y0099610D01*
X0126917Y0099644D01*
X0126877Y0099682D01*
X0126839Y0099722D01*
X0126805Y0099766D01*
X0126773Y0099811D01*
X0126745Y0099859D01*
X0126720Y0099908D01*
X0126699Y0099959D01*
X0126681Y0100012D01*
X0126668Y0100065D01*
X0126658Y0100120D01*
X0126652Y0100175D01*
X0126650Y0100230D01*
X0126650Y0100400D01*
X0126652Y0100455D01*
X0126658Y0100510D01*
X0126668Y0100565D01*
X0126681Y0100618D01*
X0126699Y0100671D01*
X0126720Y0100722D01*
X0126745Y0100771D01*
X0126773Y0100819D01*
X0126805Y0100864D01*
X0126839Y0100908D01*
X0126877Y0100948D01*
X0126917Y0100986D01*
X0126961Y0101020D01*
X0127006Y0101052D01*
X0127054Y0101080D01*
X0127103Y0101105D01*
X0127154Y0101126D01*
X0127207Y0101144D01*
X0127260Y0101157D01*
X0127315Y0101167D01*
X0127370Y0101173D01*
X0127425Y0101175D01*
X0128096Y0101175D01*
X0128151Y0101177D01*
X0128206Y0101183D01*
X0128261Y0101193D01*
X0128314Y0101206D01*
X0128367Y0101224D01*
X0128418Y0101245D01*
X0128467Y0101270D01*
X0128515Y0101298D01*
X0128560Y0101330D01*
X0128604Y0101364D01*
X0128644Y0101402D01*
X0128682Y0101442D01*
X0128716Y0101486D01*
X0128748Y0101531D01*
X0128776Y0101579D01*
X0128801Y0101628D01*
X0128822Y0101679D01*
X0128840Y0101732D01*
X0128853Y0101785D01*
X0128863Y0101840D01*
X0128869Y0101895D01*
X0128871Y0101950D01*
X0128871Y0102120D01*
X0128869Y0102175D01*
X0128863Y0102230D01*
X0128853Y0102285D01*
X0128840Y0102338D01*
X0128822Y0102391D01*
X0128801Y0102442D01*
X0128776Y0102491D01*
X0128748Y0102539D01*
X0128716Y0102584D01*
X0128682Y0102628D01*
X0128644Y0102668D01*
X0128604Y0102706D01*
X0128560Y0102740D01*
X0128515Y0102772D01*
X0128467Y0102800D01*
X0128418Y0102825D01*
X0128367Y0102846D01*
X0128314Y0102864D01*
X0128261Y0102877D01*
X0128206Y0102887D01*
X0128151Y0102893D01*
X0128096Y0102895D01*
X0127425Y0102895D01*
X0127370Y0102897D01*
X0127315Y0102903D01*
X0127260Y0102913D01*
X0127207Y0102926D01*
X0127154Y0102944D01*
X0127103Y0102965D01*
X0127054Y0102990D01*
X0127006Y0103018D01*
X0126961Y0103050D01*
X0126917Y0103084D01*
X0126877Y0103122D01*
X0126839Y0103162D01*
X0126805Y0103206D01*
X0126773Y0103251D01*
X0126745Y0103299D01*
X0126720Y0103348D01*
X0126699Y0103399D01*
X0126681Y0103452D01*
X0126668Y0103505D01*
X0126658Y0103560D01*
X0126652Y0103615D01*
X0126650Y0103670D01*
X0126650Y0103841D01*
X0126652Y0103896D01*
X0126658Y0103951D01*
X0126668Y0104006D01*
X0126681Y0104059D01*
X0126699Y0104112D01*
X0126720Y0104163D01*
X0126745Y0104212D01*
X0126773Y0104260D01*
X0126805Y0104305D01*
X0126839Y0104349D01*
X0126877Y0104389D01*
X0126917Y0104427D01*
X0126961Y0104461D01*
X0127006Y0104493D01*
X0127054Y0104521D01*
X0127103Y0104546D01*
X0127154Y0104567D01*
X0127207Y0104585D01*
X0127260Y0104598D01*
X0127315Y0104608D01*
X0127370Y0104614D01*
X0127425Y0104616D01*
X0128096Y0104616D01*
X0128151Y0104618D01*
X0128206Y0104624D01*
X0128261Y0104634D01*
X0128314Y0104647D01*
X0128367Y0104665D01*
X0128418Y0104686D01*
X0128467Y0104711D01*
X0128515Y0104739D01*
X0128560Y0104771D01*
X0128604Y0104805D01*
X0128644Y0104843D01*
X0128682Y0104883D01*
X0128716Y0104927D01*
X0128748Y0104972D01*
X0128776Y0105020D01*
X0128801Y0105069D01*
X0128822Y0105120D01*
X0128840Y0105173D01*
X0128853Y0105226D01*
X0128863Y0105281D01*
X0128869Y0105336D01*
X0128871Y0105391D01*
X0128871Y0105561D01*
X0128869Y0105616D01*
X0128863Y0105671D01*
X0128853Y0105726D01*
X0128840Y0105779D01*
X0128822Y0105832D01*
X0128801Y0105883D01*
X0128776Y0105932D01*
X0128748Y0105980D01*
X0128716Y0106025D01*
X0128682Y0106069D01*
X0128644Y0106109D01*
X0128604Y0106147D01*
X0128560Y0106181D01*
X0128515Y0106213D01*
X0128467Y0106241D01*
X0128418Y0106266D01*
X0128367Y0106287D01*
X0128314Y0106305D01*
X0128261Y0106318D01*
X0128206Y0106328D01*
X0128151Y0106334D01*
X0128096Y0106336D01*
X0127425Y0106336D01*
X0127370Y0106338D01*
X0127315Y0106344D01*
X0127260Y0106354D01*
X0127207Y0106367D01*
X0127154Y0106385D01*
X0127103Y0106406D01*
X0127054Y0106431D01*
X0127006Y0106459D01*
X0126961Y0106491D01*
X0126917Y0106525D01*
X0126877Y0106563D01*
X0126839Y0106603D01*
X0126805Y0106647D01*
X0126773Y0106692D01*
X0126745Y0106740D01*
X0126720Y0106789D01*
X0126699Y0106840D01*
X0126681Y0106893D01*
X0126668Y0106946D01*
X0126658Y0107001D01*
X0126652Y0107056D01*
X0126650Y0107111D01*
X0126650Y0107281D01*
X0126652Y0107336D01*
X0126658Y0107391D01*
X0126668Y0107446D01*
X0126681Y0107499D01*
X0126699Y0107552D01*
X0126720Y0107603D01*
X0126745Y0107652D01*
X0126773Y0107700D01*
X0126805Y0107745D01*
X0126839Y0107789D01*
X0126877Y0107829D01*
X0126917Y0107867D01*
X0126961Y0107901D01*
X0127006Y0107933D01*
X0127054Y0107961D01*
X0127103Y0107986D01*
X0127154Y0108007D01*
X0127207Y0108025D01*
X0127260Y0108038D01*
X0127315Y0108048D01*
X0127370Y0108054D01*
X0127425Y0108056D01*
X0128096Y0108056D01*
X0128151Y0108058D01*
X0128206Y0108064D01*
X0128261Y0108074D01*
X0128314Y0108087D01*
X0128367Y0108105D01*
X0128418Y0108126D01*
X0128467Y0108151D01*
X0128515Y0108179D01*
X0128560Y0108211D01*
X0128604Y0108245D01*
X0128644Y0108283D01*
X0128682Y0108323D01*
X0128716Y0108367D01*
X0128748Y0108412D01*
X0128776Y0108460D01*
X0128801Y0108509D01*
X0128822Y0108560D01*
X0128840Y0108613D01*
X0128853Y0108666D01*
X0128863Y0108721D01*
X0128869Y0108776D01*
X0128871Y0108831D01*
X0128871Y0109002D01*
X0128869Y0109057D01*
X0128863Y0109112D01*
X0128853Y0109167D01*
X0128840Y0109220D01*
X0128822Y0109273D01*
X0128801Y0109324D01*
X0128776Y0109373D01*
X0128748Y0109421D01*
X0128716Y0109466D01*
X0128682Y0109510D01*
X0128644Y0109550D01*
X0128604Y0109588D01*
X0128560Y0109622D01*
X0128515Y0109654D01*
X0128467Y0109682D01*
X0128418Y0109707D01*
X0128367Y0109728D01*
X0128314Y0109746D01*
X0128261Y0109759D01*
X0128206Y0109769D01*
X0128151Y0109775D01*
X0128096Y0109777D01*
X0127425Y0109777D01*
X0127370Y0109779D01*
X0127315Y0109785D01*
X0127260Y0109795D01*
X0127207Y0109808D01*
X0127154Y0109826D01*
X0127103Y0109847D01*
X0127054Y0109872D01*
X0127006Y0109900D01*
X0126961Y0109932D01*
X0126917Y0109966D01*
X0126877Y0110004D01*
X0126839Y0110044D01*
X0126805Y0110088D01*
X0126773Y0110133D01*
X0126745Y0110181D01*
X0126720Y0110230D01*
X0126699Y0110281D01*
X0126681Y0110334D01*
X0126668Y0110387D01*
X0126658Y0110442D01*
X0126652Y0110497D01*
X0126650Y0110552D01*
X0126650Y0129207D01*
X0082100Y0135764D02*
X0082100Y0135772D01*
X0082098Y0135827D01*
X0082092Y0135882D01*
X0082082Y0135937D01*
X0082069Y0135990D01*
X0082051Y0136043D01*
X0082030Y0136094D01*
X0082005Y0136143D01*
X0081977Y0136191D01*
X0081945Y0136236D01*
X0081911Y0136280D01*
X0081873Y0136320D01*
X0081833Y0136358D01*
X0081789Y0136392D01*
X0081744Y0136424D01*
X0081696Y0136452D01*
X0081647Y0136477D01*
X0081596Y0136498D01*
X0081543Y0136516D01*
X0081490Y0136529D01*
X0081435Y0136539D01*
X0081380Y0136545D01*
X0081325Y0136547D01*
X0079775Y0136547D01*
X0079720Y0136549D01*
X0079665Y0136555D01*
X0079610Y0136565D01*
X0079557Y0136578D01*
X0079504Y0136596D01*
X0079453Y0136617D01*
X0079404Y0136642D01*
X0079356Y0136670D01*
X0079311Y0136702D01*
X0079267Y0136736D01*
X0079227Y0136774D01*
X0079189Y0136814D01*
X0079155Y0136858D01*
X0079123Y0136903D01*
X0079095Y0136951D01*
X0079070Y0137000D01*
X0079049Y0137051D01*
X0079031Y0137104D01*
X0079018Y0137157D01*
X0079008Y0137212D01*
X0079002Y0137267D01*
X0079000Y0137322D01*
X0079000Y0137330D01*
X0079002Y0137385D01*
X0079008Y0137440D01*
X0079018Y0137495D01*
X0079031Y0137548D01*
X0079049Y0137601D01*
X0079070Y0137652D01*
X0079095Y0137701D01*
X0079123Y0137749D01*
X0079155Y0137794D01*
X0079189Y0137838D01*
X0079227Y0137878D01*
X0079267Y0137916D01*
X0079311Y0137950D01*
X0079356Y0137982D01*
X0079404Y0138010D01*
X0079453Y0138035D01*
X0079504Y0138056D01*
X0079557Y0138074D01*
X0079610Y0138087D01*
X0079665Y0138097D01*
X0079720Y0138103D01*
X0079775Y0138105D01*
X0081325Y0138105D01*
X0081380Y0138107D01*
X0081435Y0138113D01*
X0081490Y0138123D01*
X0081543Y0138136D01*
X0081596Y0138154D01*
X0081647Y0138175D01*
X0081696Y0138200D01*
X0081744Y0138228D01*
X0081789Y0138260D01*
X0081833Y0138294D01*
X0081873Y0138332D01*
X0081911Y0138372D01*
X0081945Y0138416D01*
X0081977Y0138461D01*
X0082005Y0138509D01*
X0082030Y0138558D01*
X0082051Y0138609D01*
X0082069Y0138662D01*
X0082082Y0138715D01*
X0082092Y0138770D01*
X0082098Y0138825D01*
X0082100Y0138880D01*
X0082100Y0138888D01*
X0082098Y0138943D01*
X0082092Y0138998D01*
X0082082Y0139053D01*
X0082069Y0139106D01*
X0082051Y0139159D01*
X0082030Y0139210D01*
X0082005Y0139259D01*
X0081977Y0139307D01*
X0081945Y0139352D01*
X0081911Y0139396D01*
X0081873Y0139436D01*
X0081833Y0139474D01*
X0081789Y0139508D01*
X0081744Y0139540D01*
X0081696Y0139568D01*
X0081647Y0139593D01*
X0081596Y0139614D01*
X0081543Y0139632D01*
X0081490Y0139645D01*
X0081435Y0139655D01*
X0081380Y0139661D01*
X0081325Y0139663D01*
X0079775Y0139663D01*
X0079720Y0139665D01*
X0079665Y0139671D01*
X0079610Y0139681D01*
X0079557Y0139694D01*
X0079504Y0139712D01*
X0079453Y0139733D01*
X0079404Y0139758D01*
X0079356Y0139786D01*
X0079311Y0139818D01*
X0079267Y0139852D01*
X0079227Y0139890D01*
X0079189Y0139930D01*
X0079155Y0139974D01*
X0079123Y0140019D01*
X0079095Y0140067D01*
X0079070Y0140116D01*
X0079049Y0140167D01*
X0079031Y0140220D01*
X0079018Y0140273D01*
X0079008Y0140328D01*
X0079002Y0140383D01*
X0079000Y0140438D01*
X0079000Y0140445D01*
X0079002Y0140500D01*
X0079008Y0140555D01*
X0079018Y0140610D01*
X0079031Y0140663D01*
X0079049Y0140716D01*
X0079070Y0140767D01*
X0079095Y0140816D01*
X0079123Y0140864D01*
X0079155Y0140909D01*
X0079189Y0140953D01*
X0079227Y0140993D01*
X0079267Y0141031D01*
X0079311Y0141065D01*
X0079356Y0141097D01*
X0079404Y0141125D01*
X0079453Y0141150D01*
X0079504Y0141171D01*
X0079557Y0141189D01*
X0079610Y0141202D01*
X0079665Y0141212D01*
X0079720Y0141218D01*
X0079775Y0141220D01*
X0081325Y0141220D01*
X0081380Y0141222D01*
X0081435Y0141228D01*
X0081490Y0141238D01*
X0081543Y0141251D01*
X0081596Y0141269D01*
X0081647Y0141290D01*
X0081696Y0141315D01*
X0081744Y0141343D01*
X0081789Y0141375D01*
X0081833Y0141409D01*
X0081873Y0141447D01*
X0081911Y0141487D01*
X0081945Y0141531D01*
X0081977Y0141576D01*
X0082005Y0141624D01*
X0082030Y0141673D01*
X0082051Y0141724D01*
X0082069Y0141777D01*
X0082082Y0141830D01*
X0082092Y0141885D01*
X0082098Y0141940D01*
X0082100Y0141995D01*
X0082100Y0135764D02*
X0082098Y0135709D01*
X0082092Y0135654D01*
X0082082Y0135599D01*
X0082069Y0135546D01*
X0082051Y0135493D01*
X0082030Y0135442D01*
X0082005Y0135393D01*
X0081977Y0135345D01*
X0081945Y0135300D01*
X0081911Y0135256D01*
X0081873Y0135216D01*
X0081833Y0135178D01*
X0081789Y0135144D01*
X0081744Y0135112D01*
X0081696Y0135084D01*
X0081647Y0135059D01*
X0081596Y0135038D01*
X0081543Y0135020D01*
X0081490Y0135007D01*
X0081435Y0134997D01*
X0081380Y0134991D01*
X0081325Y0134989D01*
X0079775Y0134989D01*
X0079720Y0134987D01*
X0079665Y0134981D01*
X0079610Y0134971D01*
X0079557Y0134958D01*
X0079504Y0134940D01*
X0079453Y0134919D01*
X0079404Y0134894D01*
X0079356Y0134866D01*
X0079311Y0134834D01*
X0079267Y0134800D01*
X0079227Y0134762D01*
X0079189Y0134722D01*
X0079155Y0134678D01*
X0079123Y0134633D01*
X0079095Y0134585D01*
X0079070Y0134536D01*
X0079049Y0134485D01*
X0079031Y0134432D01*
X0079018Y0134379D01*
X0079008Y0134324D01*
X0079002Y0134269D01*
X0079000Y0134214D01*
X0079000Y0134207D01*
X0079002Y0134152D01*
X0079008Y0134097D01*
X0079018Y0134042D01*
X0079031Y0133989D01*
X0079049Y0133936D01*
X0079070Y0133885D01*
X0079095Y0133836D01*
X0079123Y0133788D01*
X0079155Y0133743D01*
X0079189Y0133699D01*
X0079227Y0133659D01*
X0079267Y0133621D01*
X0079311Y0133587D01*
X0079356Y0133555D01*
X0079404Y0133527D01*
X0079453Y0133502D01*
X0079504Y0133481D01*
X0079557Y0133463D01*
X0079610Y0133450D01*
X0079665Y0133440D01*
X0079720Y0133434D01*
X0079775Y0133432D01*
X0079830Y0133430D01*
X0079885Y0133424D01*
X0079940Y0133414D01*
X0079993Y0133401D01*
X0080046Y0133383D01*
X0080097Y0133362D01*
X0080146Y0133337D01*
X0080194Y0133309D01*
X0080239Y0133277D01*
X0080283Y0133243D01*
X0080323Y0133205D01*
X0080361Y0133165D01*
X0080395Y0133121D01*
X0080427Y0133076D01*
X0080455Y0133028D01*
X0080480Y0132979D01*
X0080501Y0132928D01*
X0080519Y0132875D01*
X0080532Y0132822D01*
X0080542Y0132767D01*
X0080548Y0132712D01*
X0080550Y0132657D01*
X0080550Y0120357D01*
X0080350Y0120157D01*
X0081800Y0220457D02*
X0080850Y0221407D01*
X0080850Y0273207D01*
X0262200Y0241457D02*
X0262800Y0242057D01*
X0271300Y0242057D01*
X0271300Y0240057D01*
X0271300Y0242057D02*
X0279200Y0242057D01*
X0279100Y0241957D01*
X0266600Y0237757D02*
X0266500Y0237657D01*
X0266500Y0207357D01*
X0266000Y0206857D01*
X0266100Y0206457D01*
X0324900Y0207157D02*
X0328000Y0210257D01*
X0361000Y0210257D01*
X0363800Y0213057D01*
X0363800Y0221257D01*
X0358200Y0241557D02*
X0358200Y0258957D01*
X0353000Y0258857D02*
X0353000Y0246657D01*
X0353100Y0246557D01*
X0347800Y0251257D02*
X0347700Y0251357D01*
X0347700Y0258857D01*
X0342400Y0258857D02*
X0342400Y0251257D01*
D20*
X0386500Y0169657D02*
X0385400Y0168557D01*
X0385400Y0133557D01*
X0390900Y0132757D02*
X0390900Y0161657D01*
X0390700Y0161857D01*
X0393900Y0163657D02*
X0394400Y0164157D01*
X0393900Y0163657D02*
X0393900Y0126157D01*
X0359100Y0137857D02*
X0357500Y0139457D01*
X0314600Y0139457D01*
X0313932Y0138789D01*
X0313932Y0122826D01*
X0311400Y0126757D02*
X0312000Y0127357D01*
X0312000Y0141557D01*
X0360200Y0141557D01*
X0360400Y0141357D01*
X0414100Y0159357D02*
X0419900Y0159357D01*
X0420000Y0159457D01*
X0411900Y0166257D02*
X0445100Y0166257D01*
X0445400Y0165957D01*
X0430200Y0150757D02*
X0430100Y0150857D01*
X0430200Y0150757D02*
X0430200Y0138457D01*
X0296300Y0133057D02*
X0296300Y0123257D01*
X0296200Y0123157D01*
X0294200Y0118473D02*
X0294200Y0114957D01*
X0294300Y0114857D01*
X0271200Y0054957D02*
X0269900Y0053657D01*
X0269900Y0041357D01*
X0268900Y0040357D01*
X0143800Y0040357D01*
X0141100Y0043057D01*
X0141100Y0117957D01*
X0142300Y0119157D01*
X0150400Y0119157D01*
X0159600Y0184157D02*
X0159700Y0184157D01*
D21*
X0353800Y0092257D02*
X0354900Y0092257D01*
X0359100Y0096457D01*
X0368200Y0096457D01*
X0370000Y0094557D01*
X0370000Y0084357D01*
X0445850Y0157107D02*
X0448150Y0159407D01*
X0465150Y0159407D01*
X0491500Y0152957D02*
X0492900Y0151557D01*
X0502900Y0151557D01*
X0505700Y0147957D01*
X0505700Y0133757D01*
X0497600Y0128257D01*
X0497600Y0126357D01*
X0501754Y0126510D02*
X0507900Y0131357D01*
X0507900Y0152188D01*
X0506211Y0153777D01*
X0497980Y0153777D01*
X0495400Y0156357D01*
X0495300Y0156457D01*
X0485491Y0179748D02*
X0487400Y0181657D01*
X0487400Y0187457D01*
X0487017Y0187457D01*
X0487400Y0187457D02*
X0487400Y0187573D01*
X0487017Y0187957D01*
X0485491Y0179748D02*
X0377309Y0179748D01*
D22*
X0353600Y0092257D02*
X0352900Y0090857D01*
X0351400Y0090057D01*
X0349800Y0090057D01*
D23*
X0030850Y0029357D02*
X0025750Y0034457D01*
X0025750Y0089557D01*
X0025750Y0291957D01*
X0025750Y0292207D01*
X0343550Y0090857D02*
X0343850Y0085057D01*
X0328100Y0069307D01*
X0314700Y0069307D01*
X0309750Y0064357D01*
X0309750Y0036107D01*
X0303000Y0029357D01*
X0030850Y0029357D01*
X0343550Y0090857D02*
X0352900Y0090857D01*
D24*
X0025750Y0089557D02*
X0025750Y0156957D01*
X0024900Y0156957D01*
X0024900Y0157057D01*
X0024600Y0089657D02*
X0024600Y0089557D01*
X0025750Y0089557D01*
X0025700Y0224557D02*
X0025000Y0224557D01*
X0025750Y0291757D02*
X0025750Y0291957D01*
X0025750Y0291757D02*
X0025800Y0291757D01*
D25*
X0159600Y0184157D02*
X0160100Y0182057D01*
X0162950Y0179207D01*
X0162950Y0177857D01*
X0159700Y0149657D02*
X0156600Y0143157D01*
X0159750Y0149457D02*
X0162900Y0149457D01*
X0332000Y0114457D02*
X0341700Y0114457D01*
X0345500Y0118257D01*
X0345500Y0136257D01*
X0345600Y0136357D01*
D26*
X0251800Y0142657D02*
X0251300Y0142157D01*
X0251300Y0125908D01*
X0251400Y0125808D01*
X0251800Y0142657D02*
X0251800Y0145557D01*
D27*
X0238600Y0139657D02*
X0238600Y0164857D01*
X0238700Y0165157D01*
X0236100Y0167357D02*
X0235900Y0167357D01*
X0236100Y0167357D02*
X0236100Y0141557D01*
X0233300Y0143457D02*
X0233300Y0171057D01*
X0230800Y0173007D02*
X0230750Y0172957D01*
X0230750Y0149307D01*
X0228250Y0151157D02*
X0228250Y0188357D01*
X0228450Y0188557D01*
X0220650Y0185679D02*
X0220600Y0153407D01*
X0217900Y0151357D02*
X0217650Y0151107D01*
X0217500Y0151107D01*
X0217900Y0151357D02*
X0217900Y0163157D01*
X0217850Y0163157D01*
X0215050Y0161157D02*
X0215000Y0161157D01*
X0214900Y0153157D01*
X0210350Y0154257D02*
X0210200Y0153307D01*
X0210350Y0154257D02*
X0210350Y0159257D01*
X0205900Y0162057D02*
X0205900Y0131257D01*
X0208000Y0137557D02*
X0208000Y0164557D01*
X0212450Y0169157D02*
X0212450Y0147957D01*
X0212500Y0147907D01*
X0201900Y0141957D02*
X0201900Y0174557D01*
X0201000Y0176657D01*
X0203700Y0176357D02*
X0203800Y0176257D01*
X0203800Y0140007D01*
X0199700Y0143257D02*
X0199700Y0173457D01*
X0198700Y0174457D01*
X0198700Y0178357D01*
X0199000Y0178657D01*
X0196800Y0181357D02*
X0197100Y0181657D01*
X0196800Y0181357D02*
X0196800Y0174157D01*
X0197600Y0173357D01*
X0197600Y0145357D01*
X0195200Y0146657D02*
X0195200Y0181657D01*
X0193800Y0183057D01*
X0191200Y0183857D02*
X0191100Y0183757D01*
X0191100Y0131957D01*
X0188800Y0130557D02*
X0188800Y0182457D01*
X0188700Y0182357D01*
X0186800Y0180657D02*
X0187100Y0180357D01*
X0187100Y0176057D01*
X0187000Y0175957D01*
X0187000Y0134157D01*
X0186700Y0133857D01*
X0186700Y0126957D01*
X0186600Y0126857D01*
X0185200Y0129157D02*
X0183500Y0127457D01*
X0185200Y0129157D02*
X0185200Y0175457D01*
X0182500Y0171457D02*
X0183100Y0170857D01*
X0183100Y0131157D01*
X0181200Y0129257D01*
X0179500Y0131657D02*
X0181100Y0133257D01*
X0181100Y0158657D01*
X0179100Y0156657D02*
X0179100Y0134557D01*
X0176400Y0131857D01*
X0175200Y0133957D02*
X0171200Y0133957D01*
X0170900Y0133657D01*
X0170900Y0129257D01*
X0168000Y0129357D02*
X0172300Y0125057D01*
X0190600Y0125057D01*
X0190900Y0124357D01*
X0191200Y0123457D01*
X0192500Y0122157D01*
X0221800Y0122157D01*
X0227100Y0116857D01*
X0256000Y0116857D01*
X0265900Y0126757D01*
X0268900Y0126757D01*
X0257500Y0114457D02*
X0259200Y0112757D01*
X0259200Y0097957D01*
X0260300Y0096857D01*
X0257000Y0094357D02*
X0256100Y0095257D01*
X0256100Y0111057D01*
X0254900Y0112257D01*
X0225600Y0112257D01*
X0220700Y0117157D01*
X0191800Y0117157D01*
X0187900Y0121057D01*
X0170400Y0121057D01*
X0165900Y0125557D01*
X0155900Y0125557D01*
X0151700Y0129757D01*
X0151700Y0132957D01*
X0148400Y0136257D01*
X0148400Y0142657D01*
X0146900Y0144157D01*
X0146900Y0149257D01*
X0147150Y0149457D01*
X0148800Y0147957D02*
X0148800Y0145557D01*
X0150000Y0144357D01*
X0150000Y0137057D01*
X0153100Y0133957D01*
X0153100Y0130857D01*
X0156900Y0127057D01*
X0167500Y0127057D01*
X0171500Y0123057D01*
X0189100Y0123057D01*
X0192000Y0120157D01*
X0221000Y0120157D01*
X0226700Y0114457D01*
X0257500Y0114457D01*
X0229500Y0119857D02*
X0228500Y0120857D01*
X0228500Y0139657D01*
X0225850Y0141507D02*
X0225850Y0135907D01*
X0226000Y0135757D01*
X0223250Y0133707D02*
X0223150Y0133807D01*
X0223150Y0157357D01*
X0225800Y0155357D02*
X0225800Y0141557D01*
X0225850Y0141507D01*
X0193200Y0124757D02*
X0193400Y0124257D01*
X0193200Y0124757D02*
X0193200Y0177757D01*
X0182500Y0171457D02*
X0162900Y0171507D01*
X0156600Y0174657D02*
X0155500Y0175757D01*
X0155500Y0190657D01*
X0125100Y0177807D02*
X0125000Y0177757D01*
X0123550Y0176307D01*
X0116050Y0176307D01*
X0105650Y0186707D01*
X0117000Y0174607D02*
X0114900Y0172507D01*
X0117000Y0174607D02*
X0125050Y0174607D01*
X0125100Y0174657D01*
X0123100Y0170257D02*
X0107850Y0170257D01*
X0107900Y0170307D01*
X0113850Y0166707D02*
X0120300Y0166707D01*
X0121850Y0165157D01*
X0121950Y0165207D01*
X0121950Y0168357D02*
X0114600Y0168357D01*
X0123100Y0170257D02*
X0125150Y0168307D01*
X0125100Y0162057D02*
X0122800Y0159657D01*
X0117150Y0159657D01*
X0115350Y0158007D01*
X0111050Y0158007D01*
X0112600Y0162057D02*
X0112750Y0162107D01*
X0113250Y0162507D01*
X0113600Y0162857D01*
X0115300Y0162857D01*
X0116100Y0162057D01*
X0121950Y0162057D01*
X0125100Y0158907D02*
X0123500Y0157757D01*
X0120700Y0157757D01*
X0116700Y0153307D01*
X0113100Y0153307D01*
X0116500Y0149557D02*
X0115850Y0148907D01*
X0115700Y0148807D01*
X0116500Y0149557D02*
X0119500Y0152607D01*
X0128250Y0152607D01*
X0128250Y0149457D02*
X0125200Y0147057D01*
X0123600Y0148207D01*
X0119500Y0148207D01*
X0118550Y0146957D01*
X0118550Y0143357D01*
X0114550Y0139357D01*
X0113600Y0138707D01*
X0114350Y0136157D02*
X0121300Y0143107D01*
X0121950Y0143157D01*
X0125100Y0143157D02*
X0115200Y0133257D01*
X0117500Y0132457D02*
X0124950Y0139907D01*
X0125100Y0140007D01*
X0128250Y0140007D02*
X0128250Y0139857D01*
X0119950Y0131557D01*
X0114700Y0141557D02*
X0114550Y0141557D01*
X0114700Y0141557D02*
X0116950Y0143807D01*
X0116950Y0147857D01*
X0118600Y0149507D01*
X0125050Y0149507D01*
X0125100Y0149457D01*
X0123900Y0153857D02*
X0122000Y0155757D01*
X0134550Y0155757D02*
X0136500Y0157707D01*
X0148800Y0147957D02*
X0150300Y0149457D01*
X0153350Y0146207D02*
X0151700Y0144657D01*
X0151700Y0138157D01*
X0154600Y0135357D01*
X0154600Y0131757D01*
X0157000Y0129357D01*
X0168000Y0129357D01*
X0175200Y0133957D02*
X0176900Y0135657D01*
X0176800Y0153257D01*
X0176800Y0153357D01*
X0179100Y0156657D02*
X0178900Y0156857D01*
X0160700Y0156857D01*
X0159800Y0155957D01*
X0159800Y0155707D01*
X0147150Y0168257D02*
X0147100Y0168307D01*
X0147150Y0168357D01*
X0147123Y0168520D01*
X0147100Y0168657D01*
X0137650Y0168407D02*
X0137300Y0168357D01*
X0220600Y0185679D02*
X0220650Y0185679D01*
X0240700Y0184657D02*
X0303500Y0184657D01*
X0304200Y0185357D01*
X0306000Y0183157D02*
X0305500Y0182657D01*
X0242400Y0182657D01*
X0244400Y0180757D02*
X0307500Y0180757D01*
X0308000Y0181257D01*
X0310100Y0178957D02*
X0309800Y0178657D01*
X0246600Y0178657D01*
X0247900Y0176357D02*
X0311600Y0176357D01*
X0312100Y0176857D01*
X0316700Y0173957D02*
X0317100Y0174357D01*
X0317100Y0183057D01*
X0316700Y0173957D02*
X0245400Y0173957D01*
X0244300Y0174357D01*
X0294200Y0171957D02*
X0294200Y0118473D01*
X0302100Y0114157D02*
X0302100Y0096057D01*
X0298900Y0094157D02*
X0298900Y0100057D01*
X0300300Y0101457D01*
X0300300Y0110657D01*
X0300100Y0110857D01*
X0318300Y0101357D02*
X0318300Y0131657D01*
X0321100Y0129857D02*
X0321400Y0129557D01*
X0321400Y0098257D01*
X0319300Y0100357D02*
X0318300Y0101357D01*
X0308100Y0123657D02*
X0308100Y0163057D01*
X0307800Y0163357D01*
X0321600Y0161557D02*
X0321600Y0145557D01*
X0325700Y0143557D02*
X0325700Y0169157D01*
X0325500Y0169357D01*
X0237900Y0239557D02*
X0237800Y0239457D01*
X0227900Y0239557D02*
X0227700Y0239357D01*
X0217900Y0239557D02*
X0217800Y0239457D01*
M02*
